<svg width="196" height="196" viewBox="0 0 196 196" fill="none" xmlns="http://www.w3.org/2000/svg">
<path d="M78.1134 50.1486C84.5179 53.1694 87.2489 60.8011 84.2281 67.2006L69.1438 99.1716L97.2851 71.0257C102.228 66.0832 110.209 66.0281 115.229 70.8511C120.401 75.83 120.277 84.2714 115.201 89.3467L86.6417 117.906L121.84 99.8017C128.129 96.565 135.858 99.043 139.09 105.333C142.331 111.622 139.849 119.35 133.559 122.582L103.009 138.301H127.399C134.47 138.301 140.207 144.034 140.207 151.11C140.207 158.181 134.474 163.923 127.399 163.923H116.227C98.6456 163.923 81.3176 168.074 65.6541 176.046L51.1167 183.449L38.5655 196L25.6601 183.095L1.4587 158.893C9.1873 151.16 14.01 146.338 14.01 146.338C12.0607 144.393 10.8744 141.97 10.4422 139.45L7.26979 120.959L1.64245 88.1562C0.446926 81.1771 5.12719 74.5567 12.1017 73.3616C19.0807 72.1661 25.6965 76.8509 26.8916 83.8254L31.4061 110.132C37.8657 102.385 43.3277 93.8386 47.64 84.6898L61.0603 56.2637C64.0818 49.8684 71.7136 47.1282 78.1134 50.1486Z" fill="#FFCEBF"/>
<path d="M9.87703 118.357L28.7405 152.342L11.8263 169.257L1.45898 158.894C9.18759 151.161 14.0103 146.338 14.0103 146.338C12.061 144.393 10.8746 141.97 10.4424 139.451L7.27008 120.96L9.87703 118.357Z" fill="#F9B19D"/>
<path d="M140.207 151.109C140.207 146.288 122.865 146.505 111.593 147.156C106.625 147.442 102.562 143.255 103.007 138.298H127.396C134.472 138.301 140.207 144.036 140.207 151.109Z" fill="#F9B19D"/>
<path d="M139.027 105.214C136.303 100.747 109.936 114.764 96.4303 122.341C92.5061 124.543 87.5751 122.31 86.6406 117.908L121.841 99.8019C128.092 96.5881 135.756 99.014 139.027 105.214Z" fill="#F9B19D"/>
<path d="M69.1445 99.1719L97.2878 71.0287C102.213 66.1034 110.149 66.0246 115.163 70.7979C112.166 68.426 90.2723 89.842 79.2228 101C76.1534 104.099 70.9323 103.151 69.1445 99.1719Z" fill="#F9B19D"/>
<path d="M65.656 176.048L51.1179 183.45L14.01 146.342C12.0615 144.393 10.8751 141.973 10.4449 139.449L10.4418 139.446L1.64514 88.1542C0.474884 81.3405 4.91283 74.8717 11.6155 73.458C3.84363 76.656 20.1625 160.01 65.656 176.048Z" fill="#F9B19D"/>
<path d="M42.2982 116.611C36.9239 111.92 31.4072 110.129 31.4072 110.129C37.8664 102.386 43.3261 93.8389 47.6473 84.6908L61.0626 56.2693C64.0833 49.8702 71.7162 47.1274 78.1153 50.1485C72.3046 48.3485 42.722 115.643 42.3013 116.601L42.2982 116.611Z" fill="#F9B19D"/>
<path d="M75.4929 61.4459C82.1572 59.0533 89.485 62.5185 91.8742 69.1798L103.815 102.453L103.812 62.6521C103.812 55.6627 109.417 49.9799 116.377 49.8402C123.555 49.7035 129.436 55.76 129.436 62.9381V103.327L141.523 65.6361C143.681 58.9002 150.898 55.1877 157.631 57.3494C164.37 59.5046 168.079 66.7253 165.918 73.4578L155.43 106.175L172.676 88.9291C177.676 83.9292 185.787 83.9258 190.791 88.9291C195.791 93.9291 195.797 102.044 190.794 107.047L182.894 114.946C170.463 127.378 161.145 142.566 155.706 159.279L150.661 174.792V196H132.41H98.1844C98.1814 185.067 98.1814 174.789 98.1814 174.789C95.4278 174.793 92.876 173.918 90.7889 172.442L75.4707 161.61L48.2963 142.394C42.5162 138.304 41.1442 130.313 45.2308 124.536C49.3204 118.756 57.3112 117.391 63.0882 121.477L84.8825 136.887C83.9722 126.841 81.7909 116.936 78.3708 107.417L67.7597 77.8272C65.3728 71.1693 68.8319 63.835 75.4929 61.4459Z" fill="#FFCEBF"/>
<path d="M75.4728 157.927L112.842 168.619V196H98.1835C98.1805 185.067 98.1805 174.789 98.1805 174.789C95.4269 174.793 92.8751 173.918 90.788 172.442L75.4697 161.61L75.4728 157.927Z" fill="#F9B19D"/>
<path d="M190.789 88.9288C187.38 85.5195 175.271 97.9356 167.761 106.366C164.451 110.082 158.616 109.993 155.426 106.174L172.671 88.9288C177.677 83.9274 185.788 83.9274 190.789 88.9288Z" fill="#F9B19D"/>
<path d="M157.502 57.3107C152.418 56.0785 143.684 84.6344 139.493 99.5419C138.275 103.873 133.209 105.781 129.436 103.329L141.523 65.6358C143.67 58.9434 150.806 55.2393 157.502 57.3107Z" fill="#F9B19D"/>
<path d="M103.816 102.452V62.6518C103.816 55.6865 109.373 50.0186 116.293 49.8486C112.497 50.2908 112.159 80.9158 112.236 96.6188C112.257 100.981 107.894 104.002 103.816 102.452Z" fill="#F9B19D"/>
<path d="M112.842 170.505V174.792H98.1853C95.4283 174.792 92.8799 173.921 90.7893 172.44H90.7851L48.2945 142.39C42.6495 138.4 41.2163 130.69 44.9537 124.949C42.8275 130.049 72.551 152.274 105.526 160.991C109.841 162.132 112.842 166.041 112.842 170.505Z" fill="#F9B19D"/>
<path d="M84.8811 136.884L84.8796 136.885C83.9716 126.842 81.7884 116.938 78.3752 107.414L67.764 77.8306C65.3753 71.1697 68.8332 63.8331 75.4942 61.4443C71.6806 63.4541 84.1526 98.9312 91.745 119.435C94.2313 126.151 91.268 133.647 84.8811 136.884Z" fill="#F9B19D"/>
<path d="M44.2194 41.2071C43.1223 41.2071 42.0715 40.5847 41.5773 39.5251L30.945 16.7424C30.2644 15.2842 30.8949 13.5505 32.353 12.8698C33.8115 12.1892 35.5453 12.8197 36.2255 14.2782L46.8574 37.0609C47.538 38.519 46.9075 40.2528 45.4494 40.9334C45.0513 41.1191 44.6317 41.2071 44.2194 41.2071Z" fill="#FFCEBF"/>
<path d="M66.494 35.6379C64.8847 35.6379 63.5801 34.3333 63.5801 32.724V2.91397C63.5801 1.30463 64.8847 0 66.494 0C68.1034 0 69.4076 1.30463 69.4076 2.91397V32.724C69.4076 34.3333 68.103 35.6379 66.494 35.6379Z" fill="#FFCEBF"/>
<path d="M92.8186 37.1571C92.4385 37.1571 92.0522 37.0825 91.6801 36.9244C90.199 36.295 89.5088 34.5842 90.1381 33.1031L98.7449 12.852C99.3742 11.3709 101.085 10.6807 102.566 11.31C104.047 11.9393 104.737 13.6501 104.108 15.1312L95.5013 35.3824C95.0301 36.4914 93.9521 37.1571 92.8186 37.1571Z" fill="#FFCEBF"/>
<path d="M29.5323 55.3838C29.0017 55.3838 28.465 55.2391 27.9826 54.9356L14.3128 46.3284C12.9511 45.4709 12.5423 43.6721 13.3994 42.31C14.2565 40.9484 16.0553 40.5391 17.4178 41.3966L31.0876 50.0034C32.4493 50.8609 32.8581 52.6597 32.001 54.0218C31.4471 54.9015 30.5004 55.3838 29.5323 55.3838Z" fill="#FFCEBF"/>
</svg>
