<svg width="1448" height="966" viewBox="0 0 1448 966" fill="none" xmlns="http://www.w3.org/2000/svg">
<g clip-path="url(#clip0_558_12682)">
<rect width="1448" height="966" rx="50" fill="white"/>
<path fill-rule="evenodd" clip-rule="evenodd" d="M2066.61 -9.42932C1939.46 -281.368 1611.44 -184.228 1467.74 -387.253C1389.07 -498.391 1262.52 -745.996 899.726 -432.423C666.239 -229.13 793.847 37.6062 1106.23 156.802C1188.42 200.27 1225.11 258.899 1248.09 337.083C1271.07 415.267 1219.64 585.642 1313.72 742.082C1596.82 1212.86 2542.77 1008.97 2066.61 -9.42932Z" fill="url(#paint0_linear_558_12682)"/>
<path fill-rule="evenodd" clip-rule="evenodd" d="M521.608 884.571C394.461 612.632 66.4434 709.772 -77.2636 506.747C-155.931 395.609 -282.481 148.004 -645.274 461.577C-878.761 664.87 -751.153 931.606 -438.769 1050.8C-356.584 1094.27 -319.893 1152.9 -296.91 1231.08C-273.928 1309.27 -325.357 1479.64 -231.283 1636.08C51.8159 2106.86 997.77 1902.97 521.608 884.571Z" fill="url(#paint1_linear_558_12682)"/>
<path d="M693.632 120H679.808V112H657.984V99.584L675.136 74.688H693.568V100.096H699.712V112H693.632V120ZM679.744 88.64L672.192 100.096H680V88.64H679.744ZM723.213 121.28C720.439 121.28 718.007 120.917 715.917 120.192C713.826 119.467 712.034 118.485 710.541 117.248C709.047 116.011 707.789 114.581 706.765 112.96C705.783 111.339 704.994 109.632 704.397 107.84C703.842 106.048 703.437 104.235 703.181 102.4C702.967 100.565 702.861 98.7947 702.861 97.088C702.861 95.424 702.967 93.6747 703.181 91.84C703.437 90.0053 703.842 88.2133 704.397 86.464C704.994 84.7147 705.783 83.0507 706.765 81.472C707.789 79.8933 709.047 78.5067 710.541 77.312C712.034 76.1173 713.826 75.1787 715.917 74.496C718.007 73.7707 720.439 73.408 723.213 73.408C727.394 73.408 730.807 74.176 733.453 75.712C736.098 77.2053 738.167 79.1253 739.661 81.472C741.154 83.776 742.178 86.336 742.733 89.152C743.287 91.9253 743.565 94.5707 743.565 97.088C743.565 98.752 743.437 100.523 743.181 102.4C742.967 104.235 742.562 106.048 741.965 107.84C741.41 109.632 740.642 111.339 739.661 112.96C738.679 114.581 737.421 116.011 735.885 117.248C734.391 118.485 732.599 119.467 730.509 120.192C728.418 120.917 725.986 121.28 723.213 121.28ZM723.213 86.528C722.274 86.528 721.506 86.848 720.909 87.488C720.311 88.128 719.842 88.96 719.501 89.984C719.159 91.008 718.925 92.16 718.797 93.44C718.669 94.6773 718.605 95.8933 718.605 97.088C718.605 98.3253 718.669 99.6053 718.797 100.928C718.925 102.208 719.159 103.381 719.501 104.448C719.842 105.515 720.311 106.389 720.909 107.072C721.506 107.712 722.274 108.032 723.213 108.032C724.151 108.032 724.919 107.712 725.517 107.072C726.157 106.389 726.626 105.515 726.925 104.448C727.266 103.381 727.501 102.208 727.629 100.928C727.757 99.6053 727.821 98.3253 727.821 97.088C727.821 95.8933 727.757 94.6773 727.629 93.44C727.501 92.16 727.266 91.008 726.925 89.984C726.626 88.96 726.157 88.128 725.517 87.488C724.919 86.848 724.151 86.528 723.213 86.528ZM783.257 120H769.433V112H747.609V99.584L764.761 74.688H783.193V100.096H789.337V112H783.257V120ZM769.369 88.64L761.817 100.096H769.625V88.64H769.369Z" fill="black"/>
<path d="M565.828 170.816H565.9L571.876 150.512H575.8L581.74 170.816H581.812L587.428 150.512H591.208L583.72 176H580.012L573.82 155.516H573.748L567.556 176H563.848L556.36 150.512H560.212L565.828 170.816ZM605.685 165.956C605.661 165.284 605.541 164.66 605.325 164.084C605.133 163.484 604.833 162.968 604.425 162.536C604.041 162.104 603.549 161.768 602.949 161.528C602.373 161.264 601.689 161.132 600.897 161.132C600.177 161.132 599.493 161.264 598.845 161.528C598.221 161.768 597.669 162.104 597.189 162.536C596.733 162.968 596.349 163.484 596.037 164.084C595.749 164.66 595.581 165.284 595.533 165.956H605.685ZM609.105 167.324C609.105 167.516 609.105 167.708 609.105 167.9C609.105 168.092 609.093 168.284 609.069 168.476H595.533C595.557 169.196 595.713 169.88 596.001 170.528C596.313 171.152 596.721 171.704 597.225 172.184C597.729 172.64 598.305 173 598.953 173.264C599.625 173.528 600.333 173.66 601.077 173.66C602.229 173.66 603.225 173.408 604.065 172.904C604.905 172.4 605.565 171.788 606.045 171.068L608.421 172.976C607.509 174.176 606.429 175.064 605.181 175.64C603.957 176.192 602.589 176.468 601.077 176.468C599.781 176.468 598.581 176.252 597.477 175.82C596.373 175.388 595.425 174.788 594.633 174.02C593.841 173.228 593.217 172.28 592.761 171.176C592.305 170.072 592.077 168.848 592.077 167.504C592.077 166.184 592.293 164.972 592.725 163.868C593.181 162.74 593.805 161.78 594.597 160.988C595.389 160.196 596.325 159.584 597.405 159.152C598.485 158.696 599.649 158.468 600.897 158.468C602.145 158.468 603.273 158.672 604.281 159.08C605.313 159.488 606.177 160.076 606.873 160.844C607.593 161.612 608.145 162.548 608.529 163.652C608.913 164.732 609.105 165.956 609.105 167.324ZM615.27 159.512H612.426L614.91 150.512H618.258L615.27 159.512ZM622.689 162.608C622.689 162.152 622.677 161.564 622.653 160.844C622.629 160.124 622.593 159.488 622.545 158.936H625.749C625.797 159.368 625.833 159.872 625.857 160.448C625.881 161 625.893 161.456 625.893 161.816H626.001C626.481 160.808 627.177 160.004 628.089 159.404C629.025 158.78 630.069 158.468 631.221 158.468C631.749 158.468 632.193 158.516 632.553 158.612L632.409 161.744C631.929 161.624 631.413 161.564 630.861 161.564C630.045 161.564 629.337 161.72 628.737 162.032C628.137 162.32 627.633 162.716 627.225 163.22C626.841 163.724 626.553 164.312 626.361 164.984C626.169 165.632 626.073 166.316 626.073 167.036V176H622.689V162.608ZM647.592 165.956C647.568 165.284 647.448 164.66 647.232 164.084C647.04 163.484 646.74 162.968 646.332 162.536C645.948 162.104 645.456 161.768 644.856 161.528C644.28 161.264 643.596 161.132 642.804 161.132C642.084 161.132 641.4 161.264 640.752 161.528C640.128 161.768 639.576 162.104 639.096 162.536C638.64 162.968 638.256 163.484 637.944 164.084C637.656 164.66 637.488 165.284 637.44 165.956H647.592ZM651.012 167.324C651.012 167.516 651.012 167.708 651.012 167.9C651.012 168.092 651 168.284 650.976 168.476H637.44C637.464 169.196 637.62 169.88 637.908 170.528C638.22 171.152 638.628 171.704 639.132 172.184C639.636 172.64 640.212 173 640.86 173.264C641.532 173.528 642.24 173.66 642.984 173.66C644.136 173.66 645.132 173.408 645.972 172.904C646.812 172.4 647.472 171.788 647.952 171.068L650.328 172.976C649.416 174.176 648.336 175.064 647.088 175.64C645.864 176.192 644.496 176.468 642.984 176.468C641.688 176.468 640.488 176.252 639.384 175.82C638.28 175.388 637.332 174.788 636.54 174.02C635.748 173.228 635.124 172.28 634.668 171.176C634.212 170.072 633.984 168.848 633.984 167.504C633.984 166.184 634.2 164.972 634.632 163.868C635.088 162.74 635.712 161.78 636.504 160.988C637.296 160.196 638.232 159.584 639.312 159.152C640.392 158.696 641.556 158.468 642.804 158.468C644.052 158.468 645.18 158.672 646.188 159.08C647.22 159.488 648.084 160.076 648.78 160.844C649.5 161.612 650.052 162.548 650.436 163.652C650.82 164.732 651.012 165.956 651.012 167.324ZM665.996 158.936L669.848 171.968H669.92L673.988 158.936H677.552L681.692 171.968H681.764L685.616 158.936H689.18L683.528 176H680L675.788 163.184H675.716L671.54 176H668.012L662.324 158.936H665.996ZM709.86 167.432C709.86 168.752 709.62 169.964 709.14 171.068C708.684 172.172 708.036 173.132 707.196 173.948C706.38 174.74 705.408 175.364 704.28 175.82C703.152 176.252 701.94 176.468 700.644 176.468C699.348 176.468 698.136 176.252 697.008 175.82C695.88 175.364 694.908 174.74 694.092 173.948C693.276 173.132 692.628 172.172 692.148 171.068C691.692 169.964 691.464 168.752 691.464 167.432C691.464 166.112 691.692 164.912 692.148 163.832C692.628 162.728 693.276 161.78 694.092 160.988C694.908 160.196 695.88 159.584 697.008 159.152C698.136 158.696 699.348 158.468 700.644 158.468C701.94 158.468 703.152 158.696 704.28 159.152C705.408 159.584 706.38 160.196 707.196 160.988C708.036 161.78 708.684 162.728 709.14 163.832C709.62 164.912 709.86 166.112 709.86 167.432ZM706.332 167.432C706.332 166.616 706.2 165.836 705.936 165.092C705.696 164.348 705.336 163.7 704.856 163.148C704.376 162.572 703.776 162.116 703.056 161.78C702.36 161.444 701.556 161.276 700.644 161.276C699.732 161.276 698.916 161.444 698.196 161.78C697.5 162.116 696.912 162.572 696.432 163.148C695.952 163.7 695.58 164.348 695.316 165.092C695.076 165.836 694.956 166.616 694.956 167.432C694.956 168.248 695.076 169.028 695.316 169.772C695.58 170.516 695.952 171.176 696.432 171.752C696.912 172.328 697.5 172.784 698.196 173.12C698.916 173.456 699.732 173.624 700.644 173.624C701.556 173.624 702.36 173.456 703.056 173.12C703.776 172.784 704.376 172.328 704.856 171.752C705.336 171.176 705.696 170.516 705.936 169.772C706.2 169.028 706.332 168.248 706.332 167.432ZM714.553 162.608C714.553 162.152 714.541 161.564 714.517 160.844C714.493 160.124 714.457 159.488 714.409 158.936H717.613C717.661 159.368 717.697 159.872 717.721 160.448C717.745 161 717.757 161.456 717.757 161.816H717.865C718.345 160.808 719.041 160.004 719.953 159.404C720.889 158.78 721.933 158.468 723.085 158.468C723.613 158.468 724.057 158.516 724.417 158.612L724.273 161.744C723.793 161.624 723.277 161.564 722.725 161.564C721.909 161.564 721.201 161.72 720.601 162.032C720.001 162.32 719.497 162.716 719.089 163.22C718.705 163.724 718.417 164.312 718.225 164.984C718.033 165.632 717.937 166.316 717.937 167.036V176H714.553V162.608ZM731.052 166.352H731.16L738.324 158.936H742.86L734.868 166.676L743.544 176H738.864L731.16 167.144H731.052V176H727.668V148.784H731.052V166.352ZM750 176H746.616V158.936H750V176ZM750.576 152.78C750.576 153.404 750.348 153.92 749.892 154.328C749.46 154.736 748.932 154.94 748.308 154.94C747.684 154.94 747.156 154.736 746.724 154.328C746.292 153.896 746.076 153.38 746.076 152.78C746.076 152.156 746.292 151.64 746.724 151.232C747.156 150.8 747.684 150.584 748.308 150.584C748.932 150.584 749.46 150.8 749.892 151.232C750.348 151.64 750.576 152.156 750.576 152.78ZM758.956 158.936C759.004 159.368 759.04 159.86 759.064 160.412C759.088 160.94 759.1 161.384 759.1 161.744H759.208C759.424 161.288 759.712 160.868 760.072 160.484C760.456 160.076 760.888 159.728 761.368 159.44C761.848 159.128 762.376 158.888 762.952 158.72C763.528 158.552 764.128 158.468 764.752 158.468C765.856 158.468 766.804 158.66 767.596 159.044C768.388 159.404 769.048 159.896 769.576 160.52C770.104 161.144 770.488 161.876 770.728 162.716C770.992 163.556 771.124 164.456 771.124 165.416V176H767.74V166.532C767.74 165.836 767.68 165.176 767.56 164.552C767.464 163.928 767.272 163.376 766.984 162.896C766.696 162.416 766.3 162.032 765.796 161.744C765.292 161.456 764.644 161.312 763.852 161.312C762.508 161.312 761.404 161.828 760.54 162.86C759.7 163.868 759.28 165.224 759.28 166.928V176H755.896V162.608C755.896 162.152 755.884 161.564 755.86 160.844C755.836 160.124 755.8 159.488 755.752 158.936H758.956ZM778.182 178.916C778.926 179.756 779.85 180.428 780.954 180.932C782.082 181.436 783.234 181.688 784.41 181.688C785.538 181.688 786.486 181.52 787.254 181.184C788.022 180.872 788.634 180.428 789.09 179.852C789.57 179.3 789.906 178.64 790.098 177.872C790.314 177.104 790.422 176.276 790.422 175.388V173.192H790.35C789.726 174.152 788.874 174.884 787.794 175.388C786.714 175.892 785.562 176.144 784.338 176.144C783.042 176.144 781.854 175.916 780.774 175.46C779.718 175.004 778.818 174.38 778.074 173.588C777.33 172.796 776.754 171.872 776.346 170.816C775.938 169.736 775.734 168.584 775.734 167.36C775.734 166.136 775.938 164.984 776.346 163.904C776.754 162.824 777.33 161.888 778.074 161.096C778.818 160.28 779.718 159.644 780.774 159.188C781.83 158.708 783.006 158.468 784.302 158.468C785.526 158.468 786.69 158.732 787.794 159.26C788.922 159.788 789.81 160.592 790.458 161.672H790.53V158.936H793.806V175.136C793.806 176.384 793.65 177.572 793.338 178.7C793.026 179.852 792.498 180.86 791.754 181.724C791.01 182.612 790.038 183.32 788.838 183.848C787.638 184.376 786.15 184.64 784.374 184.64C782.886 184.64 781.386 184.364 779.874 183.812C778.386 183.284 777.102 182.528 776.022 181.544L778.182 178.916ZM779.226 167.288C779.226 168.08 779.346 168.836 779.586 169.556C779.85 170.276 780.222 170.912 780.702 171.464C781.206 172.016 781.806 172.46 782.502 172.796C783.198 173.132 783.99 173.3 784.878 173.3C785.742 173.3 786.534 173.144 787.254 172.832C787.974 172.52 788.586 172.1 789.09 171.572C789.594 171.02 789.978 170.384 790.242 169.664C790.53 168.92 790.674 168.128 790.674 167.288C790.674 166.472 790.53 165.704 790.242 164.984C789.978 164.264 789.582 163.628 789.054 163.076C788.55 162.524 787.938 162.092 787.218 161.78C786.522 161.444 785.742 161.276 784.878 161.276C783.99 161.276 783.198 161.444 782.502 161.78C781.806 162.092 781.206 162.524 780.702 163.076C780.222 163.604 779.85 164.24 779.586 164.984C779.346 165.704 779.226 166.472 779.226 167.288ZM825.876 167.432C825.876 168.752 825.636 169.964 825.156 171.068C824.7 172.172 824.052 173.132 823.212 173.948C822.396 174.74 821.424 175.364 820.296 175.82C819.168 176.252 817.956 176.468 816.66 176.468C815.364 176.468 814.152 176.252 813.024 175.82C811.896 175.364 810.924 174.74 810.108 173.948C809.292 173.132 808.644 172.172 808.164 171.068C807.708 169.964 807.48 168.752 807.48 167.432C807.48 166.112 807.708 164.912 808.164 163.832C808.644 162.728 809.292 161.78 810.108 160.988C810.924 160.196 811.896 159.584 813.024 159.152C814.152 158.696 815.364 158.468 816.66 158.468C817.956 158.468 819.168 158.696 820.296 159.152C821.424 159.584 822.396 160.196 823.212 160.988C824.052 161.78 824.7 162.728 825.156 163.832C825.636 164.912 825.876 166.112 825.876 167.432ZM822.348 167.432C822.348 166.616 822.216 165.836 821.952 165.092C821.712 164.348 821.352 163.7 820.872 163.148C820.392 162.572 819.792 162.116 819.072 161.78C818.376 161.444 817.572 161.276 816.66 161.276C815.748 161.276 814.932 161.444 814.212 161.78C813.516 162.116 812.928 162.572 812.448 163.148C811.968 163.7 811.596 164.348 811.332 165.092C811.092 165.836 810.972 166.616 810.972 167.432C810.972 168.248 811.092 169.028 811.332 169.772C811.596 170.516 811.968 171.176 812.448 171.752C812.928 172.328 813.516 172.784 814.212 173.12C814.932 173.456 815.748 173.624 816.66 173.624C817.572 173.624 818.376 173.456 819.072 173.12C819.792 172.784 820.392 172.328 820.872 171.752C821.352 171.176 821.712 170.516 821.952 169.772C822.216 169.028 822.348 168.248 822.348 167.432ZM833.628 158.936C833.676 159.368 833.712 159.86 833.736 160.412C833.76 160.94 833.772 161.384 833.772 161.744H833.88C834.096 161.288 834.384 160.868 834.744 160.484C835.128 160.076 835.56 159.728 836.04 159.44C836.52 159.128 837.048 158.888 837.624 158.72C838.2 158.552 838.8 158.468 839.424 158.468C840.528 158.468 841.476 158.66 842.268 159.044C843.06 159.404 843.72 159.896 844.248 160.52C844.776 161.144 845.16 161.876 845.4 162.716C845.664 163.556 845.796 164.456 845.796 165.416V176H842.412V166.532C842.412 165.836 842.352 165.176 842.232 164.552C842.136 163.928 841.944 163.376 841.656 162.896C841.368 162.416 840.972 162.032 840.468 161.744C839.964 161.456 839.316 161.312 838.524 161.312C837.18 161.312 836.076 161.828 835.212 162.86C834.372 163.868 833.952 165.224 833.952 166.928V176H830.568V162.608C830.568 162.152 830.556 161.564 830.532 160.844C830.508 160.124 830.472 159.488 830.424 158.936H833.628ZM863.941 176H860.557V158.936H863.941V176ZM864.517 152.78C864.517 153.404 864.289 153.92 863.833 154.328C863.401 154.736 862.873 154.94 862.249 154.94C861.625 154.94 861.097 154.736 860.665 154.328C860.233 153.896 860.017 153.38 860.017 152.78C860.017 152.156 860.233 151.64 860.665 151.232C861.097 150.8 861.625 150.584 862.249 150.584C862.873 150.584 863.401 150.8 863.833 151.232C864.289 151.64 864.517 152.156 864.517 152.78ZM878.19 161.708H873.654V170.6C873.654 171.632 873.846 172.376 874.23 172.832C874.614 173.264 875.226 173.48 876.066 173.48C876.378 173.48 876.714 173.444 877.074 173.372C877.434 173.3 877.758 173.192 878.046 173.048L878.154 175.82C877.746 175.964 877.29 176.072 876.786 176.144C876.306 176.24 875.802 176.288 875.274 176.288C873.666 176.288 872.43 175.844 871.566 174.956C870.726 174.068 870.306 172.736 870.306 170.96V161.708H867.03V158.936H870.306V154.04H873.654V158.936H878.19V161.708ZM886.546 168.548H882.982V150.512H886.546V168.548ZM887.194 173.84C887.194 174.464 886.966 175.016 886.51 175.496C886.054 175.976 885.478 176.216 884.782 176.216C884.11 176.216 883.534 175.988 883.054 175.532C882.598 175.052 882.37 174.5 882.37 173.876C882.37 173.228 882.598 172.676 883.054 172.22C883.51 171.74 884.086 171.5 884.782 171.5C885.478 171.5 886.054 171.728 886.51 172.184C886.966 172.64 887.194 173.192 887.194 173.84Z" fill="black"/>
<path d="M822.296 289.308H607.306C602.842 289.308 599.224 292.927 599.224 297.392V621.129C599.224 625.593 602.842 629.212 607.306 629.212H822.296C826.76 629.212 830.379 625.593 830.379 621.129V297.392C830.379 292.927 826.76 289.308 822.296 289.308Z" fill="#F2F6FB"/>
<path d="M613.57 305.486C615.69 305.486 617.409 303.947 617.409 302.05C617.409 300.153 615.69 298.615 613.57 298.615C611.449 298.615 609.731 300.153 609.731 302.05C609.731 303.947 611.449 305.486 613.57 305.486Z" fill="#FF5645"/>
<path d="M626.299 305.486C628.308 305.486 629.936 303.947 629.936 302.05C629.936 300.153 628.308 298.615 626.299 298.615C624.291 298.615 622.662 300.153 622.662 302.05C622.662 303.947 624.291 305.486 626.299 305.486Z" fill="#FFCB3D"/>
<path d="M638.625 305.486C640.522 305.486 642.06 303.947 642.06 302.05C642.06 300.153 640.522 298.615 638.625 298.615C636.728 298.615 635.19 300.153 635.19 302.05C635.19 303.947 636.728 305.486 638.625 305.486Z" fill="#3ABF7C"/>
<path d="M697.02 298.615H732.986C733.656 298.615 734.199 299.158 734.199 299.827V304.273C734.199 304.943 733.656 305.486 732.986 305.486H697.02C696.35 305.486 695.808 304.943 695.808 304.273V299.827C695.808 299.158 696.35 298.615 697.02 298.615ZM799.666 298.615H819.063C819.733 298.615 820.276 299.158 820.276 299.827V304.273C820.276 304.943 819.733 305.486 819.063 305.486H799.666C798.996 305.486 798.453 304.943 798.453 304.273V299.827C798.453 299.158 798.996 298.615 799.666 298.615ZM772.994 298.615H791.988C792.657 298.615 793.2 299.158 793.2 299.827V304.273C793.2 304.943 792.657 305.486 791.988 305.486H772.994C772.325 305.486 771.782 304.943 771.782 304.273V299.827C771.782 299.158 772.325 298.615 772.994 298.615ZM670.752 406.245H759.658C760.105 406.245 760.466 406.607 760.466 407.053V413.934C760.466 414.38 760.105 414.742 759.658 414.742H670.752C670.306 414.742 669.944 414.38 669.944 413.934V407.053C669.944 406.607 670.306 406.245 670.752 406.245ZM654.588 392.488H775.015C775.461 392.488 775.823 392.85 775.823 393.296V400.177C775.823 400.623 775.461 400.985 775.015 400.985H654.588C654.141 400.985 653.779 400.623 653.779 400.177V393.296C653.779 392.85 654.141 392.488 654.588 392.488ZM613.368 437.231C613.368 436.339 614.095 435.617 614.985 435.617H815.426C816.319 435.617 817.043 436.339 817.043 437.231V568.338C817.043 569.23 816.315 569.952 815.426 569.952H614.985C614.092 569.952 613.368 569.229 613.368 568.338V437.231ZM614.632 580.308H707.071C707.792 580.308 708.053 580.383 708.317 580.524C708.58 580.665 708.787 580.872 708.928 581.135C709.068 581.399 709.144 581.66 709.144 582.381V609.797C709.144 610.517 709.068 610.779 708.928 611.042C708.787 611.305 708.58 611.512 708.317 611.653C708.053 611.794 707.792 611.869 707.071 611.869H614.632C613.911 611.869 613.65 611.794 613.386 611.653C613.123 611.512 612.916 611.305 612.775 611.042C612.634 610.779 612.559 610.517 612.559 609.797V582.381C612.559 581.66 612.634 581.399 612.775 581.135C612.916 580.872 613.123 580.665 613.386 580.524C613.65 580.383 613.911 580.308 614.632 580.308ZM722.531 580.308H814.971C815.691 580.308 815.953 580.383 816.216 580.524C816.479 580.665 816.686 580.872 816.827 581.135C816.968 581.399 817.043 581.66 817.043 582.381V609.797C817.043 610.517 816.968 610.779 816.827 611.042C816.686 611.305 816.479 611.512 816.216 611.653C815.953 611.794 815.691 611.869 814.971 611.869H722.531C721.81 611.869 721.549 611.794 721.286 611.653C721.022 611.512 720.816 611.305 720.675 611.042C720.534 610.779 720.459 610.517 720.459 609.797V582.381C720.459 581.66 720.534 581.399 720.675 581.135C720.816 580.872 721.022 580.665 721.286 580.524C721.549 580.383 721.81 580.308 722.531 580.308Z" fill="#E1E5F0"/>
<path d="M749.132 480.921C755.032 480.921 759.815 476.117 759.815 470.192C759.815 464.266 755.032 459.462 749.132 459.462C743.231 459.462 738.448 464.266 738.448 470.192C738.448 476.117 743.231 480.921 749.132 480.921Z" fill="#F2F6FB"/>
<path d="M715.003 382.331V380.714C717.251 380.714 719.459 380.421 721.588 379.847L722.009 381.408C719.743 382.019 717.393 382.331 715.003 382.331ZM728.531 378.682L727.716 377.286C729.636 376.165 731.401 374.795 732.965 373.213L734.114 374.35C732.451 376.032 730.573 377.49 728.531 378.682ZM738.383 368.715L736.978 367.916C738.075 365.986 738.913 363.918 739.468 361.758L741.033 362.161C740.443 364.459 739.551 366.661 738.383 368.715ZM741.875 355.108L740.259 355.128C740.23 352.882 739.908 350.677 739.307 348.554L740.862 348.114C741.502 350.373 741.845 352.719 741.875 355.108ZM738.051 341.624L736.665 342.457C735.52 340.551 734.127 338.803 732.525 337.26L733.646 336.096C735.35 337.737 736.832 339.597 738.051 341.624ZM727.959 331.901L727.179 333.317C725.236 332.245 723.157 331.434 720.99 330.907L721.372 329.336C723.679 329.897 725.891 330.761 727.959 331.901ZM714.311 328.585L714.352 330.202C712.107 330.258 709.906 330.609 707.791 331.238L707.33 329.688C709.582 329.019 711.924 328.646 714.311 328.585ZM700.879 332.584L701.729 333.959C699.839 335.129 698.109 336.545 696.587 338.166L695.409 337.06C697.028 335.335 698.868 333.829 700.879 332.584ZM691.287 342.802L692.713 343.564C691.667 345.521 690.883 347.61 690.384 349.784L688.809 349.423C689.339 347.108 690.174 344.885 691.287 342.802ZM688.149 356.494L689.764 356.432C689.85 358.675 690.229 360.872 690.886 362.98L689.343 363.461C688.643 361.217 688.24 358.88 688.149 356.494ZM692.321 369.874L693.684 369.005C694.878 370.88 696.316 372.592 697.957 374.094L696.865 375.286C695.121 373.689 693.591 371.869 692.321 369.874ZM702.659 379.334L703.402 377.898C705.372 378.919 707.47 379.676 709.651 380.146L709.31 381.726C706.989 381.226 704.755 380.42 702.659 379.334ZM731.922 545.891L717.9 545.954L717.939 545.891H656.697C652.903 545.891 651.46 543.283 653.471 540.066L695.323 473.159C697.335 469.942 700.665 469.897 702.763 473.063L733.862 520.384L744.863 502.76C746.637 499.919 749.579 499.874 751.436 502.663L776.907 540.907C778.763 543.694 777.572 545.711 774.218 545.607L755.592 545.784L749.711 545.81L749.76 545.891C749.76 545.891 746.687 545.891 742.891 545.891H731.922Z" fill="#3C41FF"/>
<path opacity="0.176986" d="M749.594 545.983C749.594 545.983 746.521 545.983 742.725 545.983H656.531C652.737 545.983 651.293 543.374 653.305 540.158L695.156 473.251C697.168 470.034 700.499 469.989 702.597 473.155L738.788 528.225" fill="#444444"/>
<path d="M959.696 677.712H918.274C917.304 677.712 916.456 677.013 916.456 676.173V675.614C916.456 674.774 917.264 674.075 918.274 674.075H959.696C960.666 674.075 961.515 674.774 961.515 675.614V676.173C961.515 677.013 960.707 677.712 959.696 677.712ZM864.527 674.075C865.531 674.075 866.345 674.889 866.345 675.894C866.345 676.898 865.531 677.712 864.527 677.712H798.656C797.651 677.712 796.837 676.898 796.837 675.894C796.837 674.889 797.651 674.075 798.656 674.075H864.527Z" fill="#9105C6"/>
<path d="M959.917 674.087C959.845 674.079 959.771 674.075 959.696 674.075H918.413L921.68 653.457L950.615 649.537L959.917 674.087ZM864.768 674.091C864.689 674.08 864.608 674.075 864.527 674.075H798.942C798.898 673.854 798.876 673.575 798.883 673.214C798.928 672.931 798.934 672.608 799.02 672.286C799.539 670.355 800.167 669.072 802.006 667.932C803.845 666.792 805.722 665.774 807.678 664.878C814.891 661.487 817.355 661.53 822.098 658.42C824.061 657.12 825.866 655.616 827.551 653.988C828.675 652.902 830.969 651.139 834.434 648.698L865.59 649.396L864.768 674.091Z" fill="#474961"/>
<path d="M908.619 426.409C911.695 432.397 920.02 450.98 927.452 488.809C928.064 491.947 928.651 495.003 929.215 497.969L929.272 497.901C939.457 536.282 946.527 563.152 950.481 578.51C954.543 594.284 948.91 594.038 951.99 607.308C953.766 614.959 959.716 621.111 959.664 629.078C959.656 630.336 959.687 632.853 959.755 636.627C959.878 643.367 954.953 649.14 948.278 650.078L921.316 653.868C914.022 654.893 907.279 649.81 906.254 642.516C906.244 642.449 906.235 642.382 906.227 642.314C905.499 636.496 905.131 633.036 905.122 631.937C905.102 629.658 905.074 627.584 905.03 625.694C903.477 619.336 901.858 612.718 900.555 607.384C898.797 604.668 896.729 600.914 895.099 594.84C894.027 590.844 891.59 575.291 887.787 548.181C887.714 547.817 887.575 546.697 887.37 544.819L882.047 525.225C881.825 527.513 881.599 529.828 881.37 532.164C881.839 564.636 881.827 582.878 881.333 586.89C879.778 599.515 875.126 602.991 874.99 606.958C874.857 610.845 875.448 616.508 876.57 625.02C876.714 626.111 876.831 629.587 876.92 635.451C876.921 635.519 876.922 635.587 876.922 635.654C876.922 641.558 873.087 646.566 867.772 648.322C864.429 651.366 859.046 649.05 844.91 649.146C844.91 649.146 842.735 649.165 839.863 648.992L836.359 648.992C834.285 648.992 832.311 648.516 830.549 647.661C828.878 647.193 827.495 646.578 826.725 645.769C826.082 645.074 825.676 644.286 825.676 644.286C825.484 643.856 825.346 643.432 825.247 643.032C824.13 641.351 823.38 639.394 823.121 637.269C822.664 633.522 822.344 631.026 822.161 629.781C821.002 621.899 826.037 614.979 826.731 607.155C827.934 593.585 822.391 594.613 824.218 578.428C825.98 562.815 829.315 544.793 834.222 524.363C837.06 492.185 840.795 456.03 844.91 443.881C844.979 443.664 847.545 435.052 851.256 428.973C851.369 429.095 851.487 429.212 851.609 429.324C852.073 429.761 852.535 430.076 852.996 430.311C853.919 430.86 854.684 431.049 854.684 431.049C854.684 431.049 854.722 431.048 854.761 431.088C854.761 431.088 879.537 437.285 904.12 430.227L904.195 430.185C904.195 430.185 904.953 429.969 905.856 429.388C906.271 429.138 906.759 428.766 907.209 428.354C907.772 427.803 908.237 427.14 908.619 426.409Z" fill="#8F4AFF"/>
<path opacity="0.176986" d="M856.556 431.483L869.493 479.187L882.035 525.353C881.817 527.6 881.595 529.872 881.37 532.164C881.839 564.636 881.827 582.878 881.333 586.89C879.778 599.515 875.126 602.991 874.99 606.958C874.857 610.845 875.448 616.508 876.57 625.02C876.714 626.111 876.831 629.587 876.92 635.451C876.921 635.519 876.922 635.587 876.922 635.654C876.922 641.558 873.087 646.566 867.772 648.322C864.429 651.366 859.045 649.05 844.91 649.146C844.91 649.146 842.735 649.165 839.863 648.992L836.359 648.992C834.285 648.992 832.311 648.516 830.549 647.661C828.878 647.193 827.495 646.578 826.725 645.768C826.082 645.074 825.676 644.286 825.676 644.286C825.484 643.856 825.346 643.432 825.247 643.032C824.13 641.351 823.38 639.394 823.121 637.269C822.664 633.522 822.344 631.026 822.161 629.781C821.002 621.899 826.037 614.979 826.731 607.155C827.934 593.585 822.391 594.613 824.218 578.428C825.98 562.815 829.315 544.793 834.222 524.363C837.06 492.185 840.795 456.03 844.91 443.881C844.979 443.664 847.545 435.052 851.256 428.973C851.369 429.095 851.487 429.212 851.609 429.324C852.073 429.761 852.535 430.076 852.996 430.311C853.919 430.86 854.684 431.049 854.684 431.049C854.684 431.049 854.722 431.048 854.761 431.088C854.761 431.088 855.393 431.246 856.556 431.483Z" fill="#444444"/>
<path d="M909.049 375.672C909.095 376.137 909.141 376.616 909.185 377.111L909.187 377.233L909.298 379.211C909.949 401.231 910.274 411.128 910.456 415.006C910.456 415.006 910.425 415.411 910.473 416.016C910.58 417.793 910.746 425.106 907.377 428.399C906.928 428.811 906.439 429.184 906.025 429.433C905.122 430.015 904.364 430.23 904.364 430.23L904.289 430.272C879.706 437.331 854.93 431.134 854.93 431.134C854.511 431.023 854.107 430.91 853.338 430.526C852.583 430.15 851.865 429.595 851.635 429.379C848.191 426.205 848.244 418.881 848.289 417.102C848.28 416.536 848.272 416.091 848.272 416.091C848.315 412.393 848.3 403.411 848.199 383.925C838.547 383.03 834.64 380.245 836.476 375.572C840.649 364.956 843.413 354.77 859.956 353.593C864.015 351.569 868.447 350.892 871.532 350.685C873.319 350.573 874.652 350.591 875.185 350.622C875.413 350.618 875.719 350.653 876.29 350.683C876.862 350.714 877.509 350.743 878.233 350.771C878.955 350.718 879.602 350.666 880.172 350.615C880.742 350.565 881.008 350.52 881.274 350.515C881.844 350.465 883.137 350.402 884.928 350.452C885.354 350.465 885.807 350.487 886.282 350.518C886.521 350.463 886.763 350.409 887.01 350.356C904.012 346.686 909.388 355.978 916.291 365.321C919.054 369.061 916.64 372.511 909.049 375.672Z" fill="#F0549E"/>
<path opacity="0.176986" d="M859.699 353.592C857.337 354.783 855.106 356.433 853.346 358.716C852.564 359.74 851.563 361.293 850.803 363.53C850.694 363.855 850.585 364.14 850.477 364.465C850.222 365.157 849.677 366.622 849.21 368.206C848.708 369.994 848.31 373.396 848.05 378.13L848.052 378.252L848.011 380.233C848.018 381.481 848.024 382.69 848.03 383.861C838.616 382.933 834.818 380.159 836.634 375.539C840.771 365.013 843.523 354.908 859.699 353.592Z" fill="#444444"/>
<path d="M906.257 474.543C905.92 474.805 905.721 474.922 905.721 474.922C900.416 474.031 908.001 454.38 910.262 448.818L891.22 380.693C903.041 378.194 910.839 375.469 914.613 372.52C924.879 413.833 930.427 440.331 931.255 452.013C931.318 452.384 931.357 452.781 931.371 453.204C931.592 460.002 929.333 470.406 924.595 484.415C924.557 484.498 912.233 490.549 903.563 485.433L906.257 474.543ZM854.401 315.054C854.418 315.031 854.435 315.008 854.452 314.985C857.999 311.01 864.528 311.127 867.469 311.761C867.826 311.84 869.095 312.135 870.932 312.45C871.928 312.636 872.732 312.721 873.21 312.812C879.173 313.682 881.62 313.208 884.465 315.133C884.998 315.473 886.208 316.332 887.186 317.857C889.943 322.17 888.639 327.235 888.277 328.741C887.072 333.248 884.124 335.782 883.197 336.864C882.508 337.681 881.551 338.594 880.621 339.418L881.522 352.463C881.531 352.745 881.42 353.032 881.182 353.162C880.155 353.845 878.686 354.624 876.842 355.093C873.517 355.977 870.629 355.512 868.997 355.084C868.671 355.014 868.417 354.7 868.406 354.376L867.918 345.822C867.564 345.915 867.187 346.011 866.785 346.111C863.233 347.038 863.447 346.939 863.197 346.994C860.598 347.371 858.436 347.062 858.042 346.939C856.608 346.667 855.208 345.3 854.057 343.107C852.495 340.179 851.295 335.745 850.947 330.547C850.863 329.807 850.899 329.079 850.934 328.352L851.53 321.14C851.659 319.528 852.189 317.958 853.145 316.595C853.534 315.986 853.911 315.497 854.359 315.097C854.373 315.083 854.387 315.068 854.401 315.054ZM836.511 379.532C837.796 381.853 841.692 383.315 848.199 383.919C848.27 397.551 848.299 406.042 848.295 411.18C838.59 423.134 832.097 421.269 832.097 421.269C827.574 421.464 824.116 419.408 822.811 418.618C811.426 411.751 789.814 373.535 786.086 366.841C781.166 366.167 776.572 364.874 772.305 362.962C765.5 359.912 762.758 357.019 764.078 354.282L798.953 356.534L799.049 356.467L829.294 388.303C832.464 384.935 834.617 382.184 836.511 379.532Z" fill="#F2A98A"/>
<path opacity="0.2" d="M836.641 379.532C837.926 381.853 841.823 383.315 848.33 383.919C848.4 397.551 848.429 406.042 848.425 411.18C838.72 423.134 832.227 421.269 832.227 421.269C827.704 421.464 824.246 419.408 822.941 418.618C811.556 411.751 789.944 373.535 786.217 366.841C781.296 366.167 776.702 364.874 772.435 362.962C765.63 359.912 762.888 357.019 764.209 354.282L799.083 356.534L799.179 356.467L829.424 388.303C832.594 384.935 834.747 382.184 836.641 379.532Z" fill="#8C2A00"/>
<path d="M867.263 345.964L873.217 344.064L868.346 351.507L867.263 345.964Z" fill="#482D1F"/>
<path d="M881.779 329.636C881.822 328.657 881.62 327.651 881.093 326.726C879.997 324.782 877.692 323.524 875.695 323.964C874.572 324.212 873.76 324.98 873.671 325.052C872.442 326.305 872.049 327.726 872.049 327.726L871.852 328.67C857.368 323.144 854.56 316.17 853.805 315.73C854.035 315.47 854.262 315.25 854.403 315.061C857.99 311.09 864.641 311.22 867.621 311.859C868.019 311.941 869.288 312.237 871.164 312.556C872.201 312.746 873.005 312.831 873.483 312.922C879.566 313.805 882.054 313.335 884.939 315.264C885.472 315.604 886.723 316.467 887.7 317.992C890.749 322.621 889.36 327.717 888.831 328.881C888.461 329.695 887.88 330.203 887.88 330.203C885.739 329.882 883.744 329.74 881.779 329.636ZM849.907 326.34C849.508 326.238 849.414 325.707 849.711 325.439C850.092 325.135 850.754 324.846 851.561 324.889C853.216 324.975 854.934 326.158 853.053 326.545C851.948 326.771 850.665 326.541 849.907 326.34ZM858.206 327.058C857.806 326.956 857.713 326.425 858.05 326.16C858.431 325.856 859.093 325.567 859.941 325.611C861.595 325.698 863.312 326.921 861.432 327.268C860.245 327.529 858.964 327.26 858.206 327.058Z" fill="#482D1F"/>
<path d="M852.907 329.33C852.83 330.014 852.65 331.138 852.225 331.52C851.508 332.09 850.726 330.025 851.316 328.801C851.545 328.287 851.832 328.221 852.153 328.279C852.633 328.385 852.932 328.846 852.907 329.33ZM860.135 329.628C860.139 330.316 860.08 331.446 859.651 331.91C859.01 332.564 857.981 330.567 858.453 329.297C858.641 328.781 858.93 328.674 859.253 328.691C859.737 328.717 860.12 329.141 860.135 329.628Z" fill="#482D1F"/>
<path d="M856.392 337.729C856.679 337.663 857.375 337.497 857.52 337.059C857.524 336.978 857.571 336.859 857.534 336.777C857.388 336.486 856.895 336.622 856.167 336.624C854.871 336.637 853.828 336.461 853.828 336.461C853.828 336.461 854.068 337.283 854.257 337.536C854.629 338.162 855.942 337.826 856.392 337.729Z" fill="#482D1F"/>
<path d="M854.073 329.472L854.08 329.416L854.074 329.444L854.073 329.472ZM853.248 333.703C853.148 334.154 853.478 334.62 853.934 334.721C854.034 334.735 854.034 334.735 854.099 334.744C854.777 334.832 855.202 334.874 855.933 334.912C856.156 334.924 856.346 334.752 856.357 334.529C856.369 334.307 856.198 334.116 855.975 334.105C855.267 334.068 854.862 334.028 854.203 333.942L854.073 333.925C854.072 333.923 854.038 333.875 854.039 333.867L854.873 329.57L854.88 329.514L855.005 327.133C855.017 326.91 854.845 326.72 854.622 326.708C854.4 326.697 854.209 326.868 854.198 327.091L854.074 329.444L853.248 333.703Z" fill="#482D1F"/>
<path d="M881.752 329.012C881.812 330.209 881.465 331.469 880.822 332.444C880.036 333.675 879.047 334.288 877.809 334.709C877.597 334.781 877.484 335.01 877.556 335.222C877.628 335.433 877.857 335.546 878.069 335.474C878.613 335.289 879.05 335.101 879.566 334.781C880.327 334.31 880.987 333.689 881.5 332.884C882.235 331.771 882.628 330.341 882.559 328.972C882.548 328.749 882.358 328.577 882.135 328.588C881.912 328.599 881.741 328.789 881.752 329.012Z" fill="#482D1F"/>
<path d="M912.631 472.524C912.695 472.195 913.013 471.981 913.342 472.045C913.67 472.109 913.885 472.427 913.821 472.756C913.418 474.82 913.055 476.414 912.205 479.955C911.36 483.479 910.999 485.062 910.601 487.103C910.537 487.432 910.219 487.647 909.89 487.583C909.562 487.518 909.347 487.2 909.411 486.871C909.814 484.807 910.177 483.213 911.027 479.672C911.872 476.148 912.233 474.565 912.631 472.524ZM920.827 470.745C920.911 470.421 921.242 470.227 921.566 470.311C921.89 470.395 922.085 470.726 922 471.05C921.423 473.27 921.015 475.001 920.135 478.863C919.253 482.736 918.842 484.475 918.261 486.711C918.177 487.035 917.846 487.229 917.522 487.145C917.198 487.06 917.003 486.729 917.088 486.405C917.665 484.186 918.073 482.455 918.953 478.593C919.835 474.72 920.246 472.981 920.827 470.745Z" fill="#482D1F"/>
<path d="M784.309 363.376C798.593 363.376 810.173 351.705 810.173 337.307C810.173 322.91 798.593 311.238 784.309 311.238C770.025 311.238 758.446 322.91 758.446 337.307C758.446 351.705 770.025 363.376 784.309 363.376Z" fill="#474BFF"/>
<path d="M784.38 336.698C781.526 336.698 779.213 334.414 779.213 331.595C779.213 328.777 781.526 326.492 784.38 326.492C787.233 326.492 789.546 328.777 789.546 331.595C789.546 334.414 787.233 336.698 784.38 336.698ZM784.38 339.25C789.552 339.25 793.744 343.391 793.744 348.5H775.015C775.015 343.391 779.207 339.25 784.38 339.25Z" fill="#F2F6FB"/>
<path d="M508.418 587.831V587.907C508.418 588.877 509.267 589.685 510.237 589.685H540.748L529.998 609.408C522.32 623.473 514.682 637.498 507.044 651.563L494.395 674.762C493.951 675.57 494.315 676.621 495.163 677.106L495.325 677.187C496.174 677.672 497.265 677.389 497.669 676.621L544.991 589.685H576.512L623.834 676.621C624.238 677.389 625.33 677.632 626.178 677.187L626.34 677.106C627.188 676.621 627.552 675.57 627.108 674.762L614.459 651.563C606.781 637.498 599.143 623.473 591.505 609.408L580.755 589.685H621.208C622.218 589.685 623.026 588.877 623.026 587.907V587.705C623.026 586.735 622.177 585.926 621.208 585.926H593.728C575.825 585.926 557.882 585.926 539.939 585.926H511.986L508.58 558.362C506.236 539.609 503.933 520.815 501.589 502.021L497.75 470.981C497.628 469.89 496.699 469.082 495.689 469.203L495.487 469.243C494.517 469.365 493.83 470.375 493.951 471.385L508.378 587.624C508.388 587.694 508.402 587.764 508.418 587.831Z" fill="#D8DEED"/>
<path d="M596.286 674.233C596.038 674.108 595.76 674.038 595.468 674.038H573.616L533.513 644.157L548.709 622.867L573.037 640.529C574.37 645.056 575.744 649.583 577.118 654.15C577.846 656.534 578.573 658.878 579.301 661.223C581.564 662.112 583.503 662.92 584.877 663.526C587.504 664.658 589.727 665.709 592.151 667.285C592.151 667.285 594.253 668.578 595.425 670.438C595.789 671.044 596.112 671.731 596.314 672.458C596.395 672.782 596.395 673.105 596.435 673.388C596.422 673.653 596.362 673.95 596.286 674.233ZM671.978 674.166C671.845 674.135 671.706 674.118 671.564 674.118H606.501C606.379 674.118 606.26 674.13 606.145 674.153L605.513 648.957L636.067 648.869C639.801 651.31 642.23 653.073 643.354 654.158C645.04 655.786 646.844 657.291 648.807 658.59C653.55 661.701 656.014 661.658 663.228 665.049C665.183 665.944 667.06 666.963 668.899 668.103C670.738 669.243 671.366 670.525 671.885 672.457C671.972 672.779 671.977 673.102 672.023 673.384C672.028 673.703 672.012 673.958 671.978 674.166Z" fill="#474961"/>
<path d="M572.144 677.349C572.104 677.324 572.065 677.297 572.026 677.268L531.453 647.036C530.645 646.43 530.483 645.258 531.089 644.45C531.695 643.641 532.867 643.48 533.676 644.086L573.815 673.994H595.667C596.678 673.994 597.526 674.843 597.526 675.853C597.526 676.864 596.678 677.713 595.667 677.713H573.239C572.828 677.713 572.45 677.579 572.144 677.349ZM606.7 674.075H671.763C672.767 674.075 673.581 674.889 673.581 675.894C673.581 676.898 672.767 677.713 671.763 677.713H606.7C605.695 677.713 604.881 676.898 604.881 675.894C604.881 674.889 605.695 674.075 606.7 674.075Z" fill="#FF5645"/>
<path d="M649.745 571.303C646.734 587.132 645.502 610.334 648.455 624.938C648.455 624.938 651.522 650.037 649.373 650.198C648.852 650.239 643.312 650.481 642.726 650.522C628.143 651.492 602.819 653.432 599.043 653.432C596.526 653.432 595.267 651.815 595.267 648.582L594.446 639.9V639.829C591.661 643.153 588.77 646.599 585.772 650.168C581.313 651.491 574.569 649.595 565.539 644.479C556.509 639.364 549.519 634.321 544.57 629.35C542.186 627.814 536.383 619.32 537.919 617.097L548.062 602.305L554.124 593.453C555.821 590.948 557.103 589.286 558.921 586.659C558.921 586.619 559.247 586.138 559.247 586.098C558.6 586.098 559.337 585.572 554.73 585.532C550.123 585.491 525.31 584.966 515.814 571.265C512.025 565.799 511.732 559.746 511.449 557.038C510.398 546.503 513.177 537.965 519.786 531.424C521.556 530.124 522.859 529.353 523.694 529.11C525.027 528.706 532.059 528.504 533.433 528.423L561.641 528.059C575.063 527.881 586.27 527.729 595.261 527.604L595.267 527.534L595.261 527.604C613.43 527.351 622.55 527.206 622.622 527.17C622.784 527.089 640.218 527.817 644.905 530.525C653.884 535.786 658.606 552.365 649.745 571.303Z" fill="#FFC855"/>
<path opacity="0.2" d="M649.657 571.461C646.658 587.289 645.436 610.431 648.383 625.008C648.383 625.008 651.45 650.106 649.302 650.268C648.781 650.309 643.24 650.551 642.654 650.591C628.072 651.561 602.747 653.501 598.971 653.501C596.454 653.501 595.196 651.885 595.196 648.651L594.375 639.984C629.19 598.434 647.412 576.018 649.042 572.736C649.254 572.31 649.459 571.885 649.657 571.461ZM595.179 527.802L595.196 527.604L595.179 527.802ZM610.442 527.583C610.434 527.583 610.426 527.583 610.419 527.584L609.843 527.482H609.908C610.087 527.516 610.265 527.55 610.442 527.583Z" fill="#8C2A00"/>
<path d="M577.576 559.138C575.582 562.155 573.482 565.085 568.383 572.061C563.268 579.06 561.161 581.999 559.148 585.046C558.902 585.418 559.004 585.919 559.376 586.166C559.749 586.412 560.25 586.31 560.496 585.937C562.49 582.921 564.59 579.99 569.688 573.015C574.804 566.016 576.91 563.076 578.924 560.03C579.17 559.658 579.068 559.156 578.696 558.91C578.323 558.664 577.822 558.766 577.576 559.138Z" fill="#482D1F"/>
<path d="M645.221 455.548C646.593 456.619 646.836 458.601 645.765 459.973C645.748 459.994 645.732 460.014 645.715 460.035L629.018 480.328C628.16 481.37 626.629 481.539 625.566 480.708C624.503 479.877 624.296 478.351 625.099 477.267L640.748 456.154C641.785 454.756 643.759 454.462 645.158 455.499C645.179 455.515 645.2 455.531 645.221 455.548Z" fill="#474961"/>
<path d="M641.766 459.745C645.283 462.494 650.318 461.927 653.012 458.479C654.306 456.822 652.505 453.367 652.952 448.244C653.056 447.047 653.887 445.113 655.444 442.441L655.444 442.441C655.556 442.248 655.491 442.001 655.298 441.888C655.204 441.833 655.092 441.819 654.987 441.848C646.906 444.088 642.001 446.314 640.273 448.526C637.58 451.973 638.248 456.997 641.766 459.745Z" fill="#F2F6FB"/>
<path d="M645.589 454.895C646.418 455.542 649.134 453.867 649.53 454.744C650.86 457.683 650.819 461.658 653 458.866C654.361 457.124 652.541 453.55 653.069 448.209C653.192 446.958 654.082 444.925 655.736 442.11L655.736 442.11C655.849 441.918 655.785 441.67 655.593 441.557C655.497 441.501 655.382 441.486 655.275 441.517C646.872 443.955 641.762 446.337 639.944 448.664C638.315 450.749 639.622 451.831 642.104 452.172C642.972 452.291 643.559 451.27 644.782 451.034C646.143 450.772 644.783 454.265 645.589 454.895Z" fill="#474BFF"/>
<path d="M566.784 455.568C576.83 459.056 583.192 469.368 581.315 480.272L572.881 527.91L526.212 528.746C523.54 528.266 521.656 527.148 520.56 525.391C518.916 522.756 519.364 519.416 519.588 518.13L528.01 471.026C530.091 459.073 541.361 451.027 553.301 452.919L554.117 449.076C554.21 448.64 554.639 448.361 555.076 448.454L566.934 450.975C567.371 451.068 567.649 451.497 567.557 451.934L566.784 455.568Z" fill="#FF4F03"/>
<path d="M557.117 435.5C556.268 444.123 555.812 448.477 555.75 448.564C555.686 448.652 559.347 449.443 566.735 450.936L567.391 447.6C567.563 447.665 567.741 447.73 567.923 447.797C571.341 449.112 571.137 448.994 571.381 449.071C573.938 449.713 576.12 449.635 576.523 449.588C579.913 449.286 583.764 443.034 585.386 434.072C585.535 433.342 585.563 432.614 585.631 431.885L585.828 424.646C585.881 423.028 585.529 421.417 584.737 420.016C584.403 419.416 584.07 418.855 583.698 418.417C579.439 412.913 571.78 414.057 570.409 414.243C570.247 414.246 570.086 414.289 569.925 414.292C568.396 414.682 567.017 414.423 565.562 414.408C564.915 414.42 564.399 414.954 564.37 415.601L564.349 425.95C564.325 426.921 561.526 424.707 560.433 424.645C558.491 424.518 556.374 427.544 555.681 429.537C554.911 431.693 555.595 433.864 556.872 435.257C556.953 435.341 557.034 435.422 557.117 435.5ZM583.843 507.054C584.701 506.762 585.556 506.469 586.41 506.175C592.943 503.921 599.372 501.624 606.349 499.07C608.7 498.234 609.708 497.816 611.395 497.146C616.892 494.942 637.577 486.474 638.567 485.686C642.052 484.192 639.764 471.777 639.764 467.242C633.991 469.782 626.054 473.034 615.955 476.999C613.917 478.049 612.447 479.413 611.395 480.55C609.678 480.68 595.944 483.069 583.29 485.186C583.637 485.127 583.984 485.067 584.332 485.008C584.25 481.778 583.654 476.848 581.089 471.495C581.727 474.289 581.835 477.258 581.316 480.272L580.359 485.674C572.957 486.902 566.303 487.963 563.178 488.318C563.001 487.807 561.61 481.774 559.005 470.221L534.919 476.998C535.471 480.317 536.798 485.638 538.898 492.959C542.048 503.941 543.264 512.143 551.504 514.545C553.424 515.108 555.914 515.021 561.441 513.684C566.643 512.426 571.476 511.042 576.125 509.583L572.889 527.856L572.872 527.857L572.882 527.911L617.21 527.294C619.55 527.221 616.823 525.622 609.031 522.497C601.238 519.372 593.296 516.715 585.202 514.525L584.959 506.676C584.587 506.802 584.215 506.928 583.843 507.054ZM529.66 465.781C535.582 468.344 541.315 468.643 546.859 466.676C552.403 464.709 555.22 460.292 555.31 453.425C550.47 451.951 545.388 452.352 540.064 454.627C534.741 456.902 531.273 460.62 529.66 465.781Z" fill="#DB9E75"/>
<path d="M566.764 450.693L563.363 445.838L567.395 447.603L566.764 450.693Z" fill="#482D1F"/>
<path d="M583.112 432.449C583.159 431.959 583.537 431.568 584.02 431.534C584.343 431.512 584.636 431.653 584.797 432.209C585.169 433.48 584.049 435.422 583.474 434.733C583.037 434.277 583.079 433.14 583.112 432.449ZM575.919 432.708C575.966 432.219 576.344 431.828 576.828 431.794C577.15 431.772 577.444 431.913 577.604 432.469C577.976 433.74 576.856 435.681 576.282 434.992C575.845 434.537 575.846 433.402 575.919 432.708Z" fill="#482D1F"/>
<path d="M578.504 440.712C578.217 440.651 577.514 440.457 577.362 440.022C577.357 439.941 577.308 439.823 577.343 439.74C577.487 439.486 578.02 439.571 578.751 439.601C580.049 439.631 581.089 439.437 581.089 439.437C581.089 439.437 580.823 440.266 580.635 440.482C580.277 441.155 578.956 440.802 578.504 440.712Z" fill="#482D1F"/>
<path d="M585.918 429.133C586.316 429.024 586.443 428.529 586.141 428.267C585.756 427.969 585.123 427.608 584.314 427.624C582.655 427.659 580.909 428.754 582.722 429.194C583.879 429.519 585.161 429.307 585.918 429.133ZM578.098 429.68C578.495 429.571 578.622 429.076 578.28 428.816C577.895 428.519 577.262 428.158 576.413 428.177C574.754 428.212 573.011 429.347 574.821 429.747C576.018 430.068 577.3 429.857 578.098 429.68ZM557.141 441.462C558.636 440.461 559.652 438.888 560.188 436.744C559.451 436.535 558.316 436.084 557.394 435.046C556.157 433.653 555.474 431.523 556.246 429.447C556.938 427.455 558.932 425.884 560.874 426.012C561.966 426.073 562.826 426.665 562.948 426.743C564.299 427.73 564.888 429.014 564.888 429.014L565.761 431.232C567.151 430.255 569.947 426.552 574.149 420.121C576.484 419.84 578.287 419.645 579.558 419.537C581.464 419.374 583.509 419.566 584.279 419.257C584.224 419.393 584.168 419.531 584.113 419.669C584.25 419.43 584.32 419.297 584.32 419.297C584.359 419.175 583.702 418.58 583.7 418.499C579.687 413.193 572.299 413.685 570.928 413.871C570.767 413.874 570.606 413.917 570.443 413.879C568.185 414.161 566.286 414.235 564.994 414.298C558.855 414.526 556.457 413.759 553.372 415.349C552.812 415.642 551.49 416.352 550.343 417.787C549.68 418.591 549.182 419.444 548.812 420.307C545.289 420.192 542.787 421.943 541.308 425.561C539.332 430.392 542.362 434.767 546.136 436.556C547.727 440.521 552.09 443.376 555.605 442.235C556.237 442.029 556.749 441.772 557.141 441.462Z" fill="#482D1F"/>
<path d="M581.039 432.931L581.033 432.873L581.038 432.902L581.039 432.931ZM581.818 437.153L581.824 437.198C581.854 437.638 581.582 438.068 581.148 438.172C581.068 438.185 581.023 438.191 580.979 438.197C580.554 438.255 580.248 438.28 579.15 438.357C578.927 438.373 578.734 438.205 578.719 437.982C578.703 437.76 578.871 437.566 579.094 437.551C580.173 437.475 580.47 437.451 580.87 437.396C580.912 437.391 580.953 437.385 580.995 437.379C580.986 437.379 581.016 437.33 581.018 437.27L580.238 433.019L580.231 432.96L580.146 430.576C580.138 430.353 580.312 430.166 580.535 430.158C580.758 430.15 580.945 430.324 580.953 430.547L581.038 432.902L581.818 437.153Z" fill="#482D1F"/>
<path d="M558.581 469.942L558.58 466.683C558.58 466.349 558.852 466.077 559.187 466.077C559.521 466.077 559.793 466.349 559.793 466.683L559.793 469.942C559.793 470.277 559.521 470.548 559.187 470.548C558.852 470.548 558.581 470.277 558.581 469.942Z" fill="#482D1F"/>
<path opacity="0.2" d="M581.101 471.496C581.795 472.91 582.479 474.75 583.153 477.015C583.826 479.28 584.214 481.945 584.316 485.01L580.355 485.657C580.715 483.698 580.964 482.294 581.101 481.447C581.361 479.849 581.644 478.437 581.644 477.329C581.644 475.344 581.463 473.399 581.101 471.496ZM576.123 509.582L584.957 506.676L585.202 514.524C599.627 518.848 609.732 522.444 615.518 525.312C616.683 525.89 617.407 526.303 617.689 526.552C617.808 526.662 617.901 526.758 617.969 526.839C618.135 527.037 617.969 527.24 617.443 527.277C617.093 527.302 602.235 527.5 572.871 527.87L576.123 509.582Z" fill="#8C2A00"/>
</g>
<defs>
<linearGradient id="paint0_linear_558_12682" x1="1118.51" y1="526.492" x2="1937.67" y2="-179.731" gradientUnits="userSpaceOnUse">
<stop stop-color="#E90D65"/>
<stop offset="1" stop-color="#AC0087"/>
</linearGradient>
<linearGradient id="paint1_linear_558_12682" x1="-426.485" y1="1420.49" x2="392.674" y2="714.269" gradientUnits="userSpaceOnUse">
<stop stop-color="#E90D65"/>
<stop offset="1" stop-color="#AC0087"/>
</linearGradient>
<clipPath id="clip0_558_12682">
<rect width="1448" height="966" rx="50" fill="white"/>
</clipPath>
</defs>
</svg>
