<svg width="500" height="380" viewBox="0 0 500 380" fill="none" xmlns="http://www.w3.org/2000/svg">
<g clip-path="url(#clip0_10_304)">
<path d="M167.499 280.063H111.099C102.649 280.063 95.7989 286.913 95.7989 295.363V295.363C95.7989 303.813 102.649 310.663 111.099 310.663H167.499C175.949 310.663 182.799 303.813 182.799 295.363C182.799 286.913 175.949 280.063 167.499 280.063Z" fill="#3F3D56"/>
<path d="M150.399 302.863V328.321C144.605 328.882 138.766 328.769 132.999 327.985V302.863H150.399Z" fill="#3F3D56"/>
<path d="M208.971 312.223C208.497 312.289 208.029 312.355 207.555 312.433C188.595 315.469 171.291 325.705 152.247 328.117C151.629 328.195 151.017 328.267 150.399 328.321C150.135 328.345 149.871 328.375 149.607 328.393C144.957 323.839 140.307 318.991 135.939 313.969C133.569 311.251 131.277 308.479 129.123 305.671C123.531 298.423 118.791 290.971 115.659 283.651C115.977 280.141 113.793 272.023 112.749 265.807L112.743 265.801C112.299 263.191 112.059 260.923 112.281 259.465C113.553 251.053 120.423 252.019 122.535 243.775C124.44 242.194 126.468 240.768 128.601 239.509C128.955 239.299 129.315 239.089 129.687 238.879L152.607 223.039L161.367 231.631L174.699 244.711L189.147 258.877L176.883 271.267C176.883 271.267 187.131 283.081 199.113 298.831C202.329 303.061 205.671 307.579 208.971 312.223Z" fill="#2F2E41"/>
<path d="M406.599 302.863V376.345C400.943 378.114 395.106 379.243 389.199 379.711V302.863H406.599Z" fill="#3F3D56"/>
<path d="M429.099 296.863H372.699C364.249 296.863 357.399 303.713 357.399 312.163V312.163C357.399 320.613 364.249 327.463 372.699 327.463H429.099C437.549 327.463 444.399 320.613 444.399 312.163C444.399 303.713 437.549 296.863 429.099 296.863Z" fill="#3F3D56"/>
<path d="M291.903 336.319C288.873 334.483 285.791 332.689 282.657 330.937C282.273 330.727 281.889 330.511 281.505 330.301L283.569 329.419L289.137 327.025L289.191 327.001L289.251 327.205L291.903 336.319Z" fill="#FFB6B6"/>
<path d="M300.525 341.659C299.535 341.029 298.551 340.411 297.561 339.799H297.555C295.959 338.797 294.359 337.809 292.755 336.835C292.473 336.661 292.191 336.493 291.903 336.319C288.873 334.483 285.791 332.689 282.657 330.937C282.273 330.727 281.889 330.511 281.505 330.301C275.441 326.938 269.209 323.888 262.833 321.163C258.645 319.399 254.403 317.809 250.119 316.453H250.113L246.747 310.819L231.597 285.445L228.267 279.871C228.267 279.871 216.909 283.231 200.835 286.453C194.985 287.629 188.517 288.781 181.731 289.753C174.477 290.785 166.869 291.607 159.309 292.003C155.703 292.195 152.109 292.291 148.569 292.261C139.419 292.201 130.629 291.343 122.931 289.303C120.363 286.891 112.623 283.609 107.079 280.603H107.073C104.745 279.343 102.813 278.137 101.799 277.063C95.9549 270.883 100.947 266.065 95.7508 259.321C95.6809 256.847 95.8073 254.371 96.1288 251.917C96.1828 251.509 96.2368 251.095 96.3028 250.675L97.9408 222.859L110.109 221.251L128.625 218.803L148.683 216.151L150.891 233.443C150.891 233.443 166.509 232.651 186.297 232.915C218.079 233.347 260.607 236.515 266.367 250.111C266.907 251.389 267.447 252.679 267.987 253.969C269.271 257.053 270.543 260.153 271.803 263.269C276.369 274.549 280.725 285.937 284.703 296.701C287.175 303.397 289.503 309.853 291.645 315.895C293.367 320.755 294.963 325.351 296.421 329.581C297.753 333.445 298.959 337.003 300.033 340.195C300.201 340.693 300.363 341.185 300.525 341.659Z" fill="#2F2E41"/>
<path d="M188.591 173.127L150.158 140.486L175.163 115.18L192.608 143.754L257.273 156.574C259.217 155.111 261.545 154.245 263.973 154.082C266.401 153.919 268.824 154.466 270.947 155.656C273.069 156.846 274.8 158.628 275.927 160.785C277.054 162.941 277.53 165.38 277.295 167.802C277.061 170.224 276.126 172.526 274.607 174.426C273.087 176.326 271.047 177.744 268.735 178.505C266.424 179.266 263.941 179.338 261.589 178.712C259.237 178.086 257.119 176.79 255.491 174.981L188.591 173.127Z" fill="#A0616A"/>
<path d="M116.192 97.5881C111.75 112.038 154.052 146.5 154.052 146.5C154.522 143.031 178.505 172.944 180.137 170.235C184.774 162.536 189.877 143.504 195.231 141.072C198.293 139.68 180.729 120.346 180.729 120.346C180.729 120.346 171.769 108.492 159.939 93.4689C156.674 89.1597 152.371 85.7467 147.432 83.5477C142.492 81.3487 137.077 80.4352 131.689 80.8922C131.689 80.8922 120.634 83.1386 116.192 97.5881Z" fill="#AC0087"/>
<path d="M134.895 65.5999C149.251 65.5999 160.89 53.9618 160.89 39.6055C160.89 25.2492 149.251 13.6111 134.895 13.6111C120.539 13.6111 108.901 25.2492 108.901 39.6055C108.901 53.9618 120.539 65.5999 134.895 65.5999Z" fill="#A0616A"/>
<path d="M147.892 82.7804C153.493 86.1097 156.843 92.2268 158.766 98.4516C162.326 109.976 164.469 121.891 165.147 133.934L167.179 169.987L192.334 246.756C170.533 265.203 88.583 250.948 88.583 250.948C88.583 250.948 86.0674 250.11 88.583 247.594C91.0986 245.079 93.5476 247.307 91.032 244.792C88.5164 242.276 90.2506 245.079 91.0891 242.563C91.9277 240.047 91.0891 241.725 90.2506 240.886C89.4121 240.047 96.7421 232.501 96.7421 232.501L90.0338 188.435L81.6486 99.5509C91.711 86.973 111.948 79.5584 111.948 79.5584L117.177 70.1463L143.321 72.2379L147.892 82.7804Z" fill="#AC0087"/>
<path d="M156.323 25.795C158.344 27.3019 159.841 29.4045 160.603 31.8068C160.896 27.8809 160.915 23.9395 160.659 20.0111C160.352 17.2506 158.409 16.6297 156.159 15.9102C154.126 15.2601 151.828 14.5258 151.209 11.846C143.038 3.89697 128.814 4.2978 119.079 7.07056C113.723 8.59636 110.64 10.5567 110.365 11.7051L110.308 11.9415L110.09 12.0502C105.961 14.1147 105.157 20.634 105.21 25.7394C105.311 35.3582 108.632 46.2828 110.503 47.1702C110.602 47.2172 110.627 47.1988 110.67 47.1631C113.487 44.9117 116.924 47.3342 118.435 48.6511C119.326 42.6728 122.194 37.1655 126.582 33.0088C130.97 28.8521 136.625 26.2857 142.642 25.7195C144.608 25.5296 146.557 25.2027 148.477 24.7412C149.451 24.4892 150.452 24.3579 151.458 24.35C153.189 24.3237 154.887 24.828 156.323 25.795V25.795Z" fill="#2F2E41"/>
<path d="M123.569 212.29L115.618 208.218C115.192 207.914 114.889 207.468 114.765 206.959C114.641 206.451 114.704 205.915 114.943 205.45C115.181 204.984 115.579 204.62 116.064 204.423C116.549 204.227 117.088 204.211 117.583 204.38L125.535 208.452C125.961 208.756 126.264 209.202 126.388 209.711C126.512 210.219 126.449 210.755 126.21 211.22C125.972 211.686 125.574 212.05 125.089 212.247C124.604 212.443 124.065 212.459 123.569 212.29L123.569 212.29Z" fill="#6C63FF"/>
<path d="M96.8076 201.38L83.7269 152.683L118.682 146.065L116.802 179.491L162.731 226.782C165.162 226.683 167.57 227.293 169.661 228.538C171.751 229.784 173.434 231.61 174.505 233.796C175.575 235.981 175.986 238.431 175.689 240.846C175.391 243.261 174.397 245.538 172.828 247.398C171.258 249.258 169.182 250.621 166.851 251.321C164.521 252.022 162.037 252.029 159.702 251.342C157.368 250.654 155.284 249.303 153.704 247.452C152.124 245.601 151.117 243.33 150.806 240.917L96.8076 201.38Z" fill="#A0616A"/>
<path d="M80.1499 98.0827C68.2849 107.45 83.5137 159.844 83.5137 159.844C85.8715 157.256 88.6114 195.499 91.4934 194.197C99.6842 190.496 114.697 177.734 120.485 178.774C123.795 179.369 120.327 153.478 120.327 153.478C120.327 153.478 119.689 138.633 118.49 119.55C118.251 114.148 116.65 108.895 113.835 104.279C111.019 99.6625 107.082 95.8337 102.389 93.1487C102.389 93.1487 92.015 88.7158 80.1499 98.0827Z" fill="#AC0087"/>
<path d="M491.397 232.207L16.5449 231.667C13.8763 226.01 11.5071 220.216 9.4469 214.309L480.129 214.807C484.659 220.068 488.45 225.922 491.397 232.207V232.207Z" fill="#3F3D56"/>
<path d="M340.155 358.099C337.701 359.287 335.225 360.433 332.727 361.537C328.575 359.179 324.471 356.713 320.391 354.193L335.523 347.545L340.155 358.099Z" fill="#FFB6B6"/>
<path d="M450.483 275.419C448.023 278.719 445.485 281.953 442.869 285.121C440.457 288.043 437.981 290.909 435.441 293.719C434.391 294.883 433.329 296.041 432.243 297.187C430.245 299.329 428.203 301.435 426.117 303.505C422.361 304.687 414.753 306.769 406.599 308.713C400.665 310.123 394.443 311.461 389.199 312.313C386.263 312.84 383.294 313.157 380.313 313.261C376.773 313.291 373.179 313.195 369.573 313.003C365.505 312.787 361.431 312.451 357.405 312.019C346.935 310.921 336.795 309.211 328.047 307.453C324.843 306.817 321.831 306.169 319.059 305.539C313.809 304.357 309.417 303.253 306.237 302.413C302.655 301.477 300.615 300.871 300.615 300.871L291.645 315.895L286.989 323.689L283.569 329.419L282.657 330.937C282.273 330.727 281.889 330.511 281.505 330.301C275.441 326.938 269.209 323.888 262.833 321.163C258.645 319.399 254.403 317.809 250.119 316.453H250.113C248.475 315.937 246.831 315.451 245.181 315.007C245.697 313.621 246.219 312.225 246.747 310.819C247.731 308.197 248.735 305.551 249.759 302.881C251.973 297.097 254.265 291.229 256.623 285.391C258.555 280.597 260.523 275.821 262.515 271.111C263.433 268.939 265.299 267.031 267.909 265.357C269.156 264.571 270.457 263.873 271.803 263.269C279.273 259.867 290.277 257.653 302.403 256.231C303.405 256.117 304.413 256.003 305.427 255.895C315.465 254.839 326.115 254.293 336.075 254.041C341.061 253.915 345.873 253.867 350.349 253.861C351.795 253.861 353.201 253.865 354.567 253.873H354.573C358.263 253.891 361.659 253.945 364.647 254.005C365.229 254.017 365.793 254.035 366.345 254.047H366.351C366.723 254.053 367.089 254.065 367.449 254.071C373.983 254.239 377.991 254.443 377.991 254.443L379.545 242.251L379.863 239.791L380.163 237.451V237.445L380.199 237.151L380.445 237.145L384.765 237.061L421.077 236.353L440.913 235.963L437.769 249.439L432.579 271.675C433.107 275.191 450.663 272.437 450.483 275.419Z" fill="#2F2E41"/>
<path d="M344.631 353.879C343.149 354.635 341.655 355.379 340.155 356.099C337.701 357.287 335.225 358.433 332.727 359.537C328.167 363.5 327.58 369.02 323.5 366.5C314 368.5 319.059 366.5 314 368.5C313.01 367.87 298.551 338.411 297.561 337.799H297.555C294.831 333.755 292.053 329.543 289.251 325.205C289.209 325.145 289.173 325.085 289.137 325.025C288.417 323.921 287.701 322.809 286.989 321.689C282.507 314.669 278.001 307.349 273.627 299.873L284.703 294.701L305.295 285.089L308.847 283.433L319.059 303.539L328.167 321.473L330.195 325.463L344.631 353.879Z" fill="#2F2E41"/>
<path d="M347.734 259.35L400.235 208.72L414.786 167.518L393.322 158.185C382.298 168.745 370.38 201.639 370.38 201.639L334.253 247.602C333.971 247.698 333.69 247.801 333.413 247.923C331.786 248.641 330.371 249.766 329.306 251.19C328.241 252.614 327.561 254.289 327.332 256.052C327.103 257.816 327.333 259.609 327.999 261.257C328.666 262.906 329.746 264.355 331.136 265.464C332.527 266.574 334.179 267.305 335.935 267.589C337.691 267.873 339.49 267.699 341.158 267.084C342.827 266.469 344.309 265.435 345.461 264.08C346.613 262.725 347.396 261.096 347.734 259.35V259.35Z" fill="#FFB8B8"/>
<path d="M387.283 162.785L414.508 171.428L414.611 171.411C424.744 169.714 433.152 153.163 438.421 139.579C440.155 135.098 440.123 130.126 438.331 125.668C436.539 121.21 433.121 117.599 428.769 115.564V115.564C425.548 114.085 421.978 113.536 418.461 113.98C414.945 114.423 411.622 115.842 408.87 118.075L394.89 129.498L387.283 162.785Z" fill="#6C63FF"/>
<path d="M450.374 276.027L450.533 275.816C459.027 264.55 447.409 236.652 445.653 232.605L453.551 230.266L452.174 215.228L451.511 208.522L457.652 202.69L457.673 202.541L461.896 172.486L467.422 152.594C469.505 145.073 469.549 137.135 467.55 129.592C465.55 122.049 461.58 115.174 456.046 109.673L444.749 98.457L431.215 77.2732L408.524 76.6874L400.364 91.1827C392.776 92.7314 385.971 96.893 381.136 102.943C376.3 108.992 373.74 116.547 373.902 124.29L374.67 162.879L366.528 210.692L366.3 219.376L358.308 227.81L359.786 236.335L353.808 238.716L350.883 250.831C349.766 252.229 342.389 261.553 342.322 264.153C342.312 264.543 342.59 264.928 343.197 265.362C347.972 268.778 374.66 276.181 386.671 271.73C399.465 266.994 449.608 275.89 450.113 275.98L450.374 276.027Z" fill="#E90D65"/>
<path d="M417.888 70.1934C434.491 70.1934 447.95 56.7341 447.95 40.1312C447.95 23.5284 434.491 10.0691 417.888 10.0691C401.285 10.0691 387.826 23.5284 387.826 40.1312C387.826 56.7341 401.285 70.1934 417.888 70.1934Z" fill="#FFB8B8"/>
<path d="M414.22 70.5956C418.876 70.6683 423.529 70.3431 428.129 69.6236C432.688 68.6965 442.888 61.2217 445.732 56.7238C447.845 53.3818 449.195 48.1632 449.957 44.374C450.982 39.3597 450.943 34.1859 449.842 29.1877C448.741 24.1895 446.602 19.4783 443.565 15.3591C442.397 13.6362 440.786 12.2608 438.901 11.3785C438.734 11.3132 438.562 11.2553 438.388 11.2058C435.641 10.4831 433.173 8.95595 431.301 6.82044C430.938 6.3885 430.544 5.98328 430.123 5.60791C428.006 3.82195 425.498 2.56217 422.801 1.93155C418.449 0.766703 412.15 1.92297 404.08 5.37155C400.026 7.10419 395.592 6.47714 392.181 5.73722C391.989 5.70027 391.792 5.71405 391.607 5.77721C391.423 5.84037 391.258 5.9507 391.13 6.09723C389.679 7.45965 387.766 8.22228 385.775 8.23182C384.556 8.28536 383.277 9.97349 381.73 12.1749C381.38 12.6746 380.97 13.2578 380.675 13.6125L380.635 12.931L379.946 13.6913C378.862 14.8862 378.098 16.336 377.725 17.9057C377.352 19.4754 377.382 21.1139 377.813 22.6687C378.244 24.2234 379.061 25.6439 380.189 26.7978C381.317 27.9517 382.718 28.8014 384.262 29.2679C385.489 29.5942 386.745 29.7945 388.012 29.8655C388.78 29.9346 389.574 30.006 390.335 30.138C392.776 30.638 395.047 31.7627 396.924 33.4021C398.802 35.0416 400.222 37.1399 401.046 39.4921C401.241 40.0358 401.558 40.5275 401.974 40.9291C402.389 41.3307 402.891 41.6315 403.44 41.8084C403.99 41.9853 404.573 42.0334 405.145 41.9491C405.716 41.8649 406.261 41.6504 406.736 41.3223C407.529 40.7051 408.459 40.2888 409.447 40.1089C410.435 39.9289 411.452 39.9907 412.411 40.2888C413.24 40.7498 413.886 41.4817 414.239 42.3618C414.668 43.3424 415.38 44.1729 416.284 44.7472C419.373 46.3403 419.586 53.3975 418.477 59.2805C417.407 64.9513 415.292 69.0535 413.335 69.2563C411.827 69.4123 411.655 69.5193 411.546 69.7859L411.448 70.0245L411.618 70.2477C412.45 70.5495 413.338 70.6682 414.22 70.5956V70.5956Z" fill="#2F2E41"/>
<path d="M394.748 153.696L383.157 130.587C366.332 131.736 332.94 151.189 332.94 151.189L269.761 164.584C267.889 163.865 265.861 163.651 263.881 163.965C261.9 164.278 260.037 165.108 258.479 166.371C256.921 167.633 255.724 169.283 255.006 171.156C254.289 173.028 254.078 175.057 254.394 177.037C254.71 179.017 255.542 180.879 256.806 182.435C258.07 183.992 259.722 185.187 261.596 185.902C263.469 186.617 265.497 186.826 267.477 186.508C269.457 186.19 271.318 185.355 272.873 184.089L353.24 178.329L394.748 153.696Z" fill="#FFB8B8"/>
<path d="M390.073 157.491L420.345 134.994L425.678 115.778C426.711 112.001 426.667 108.011 425.551 104.259C424.436 100.506 422.293 97.1398 419.365 94.541V94.541C415.372 91.0449 410.2 89.1955 404.896 89.3666C399.591 89.5378 394.55 91.7167 390.79 95.4629C379.399 106.834 366.405 122.697 369.196 133.697L369.225 133.808L390.073 157.491Z" fill="#E90D65"/>
<path d="M352.599 217.663H271.599V228.463H352.599V217.663Z" fill="white"/>
<path d="M145.599 217.663H64.5988V228.463H145.599V217.663Z" fill="white"/>
<path d="M155.057 165.726V217.149C155.058 217.804 155.318 218.432 155.782 218.896C156.245 219.359 156.873 219.62 157.529 219.62H233.731C234.387 219.62 235.015 219.359 235.478 218.896C235.942 218.432 236.202 217.804 236.203 217.149V165.726C236.201 165.072 235.94 164.444 235.477 163.981C235.014 163.519 234.386 163.258 233.731 163.258H157.529C156.874 163.258 156.246 163.519 155.783 163.981C155.32 164.444 155.059 165.072 155.057 165.726Z" fill="#3F3D56"/>
<path d="M156.845 166.366V216.514C156.846 216.864 156.985 217.2 157.232 217.448C157.48 217.695 157.816 217.835 158.166 217.835H233.097C233.447 217.835 233.783 217.695 234.03 217.448C234.278 217.2 234.417 216.864 234.418 216.514V166.366C234.418 166.016 234.279 165.679 234.031 165.431C233.784 165.183 233.448 165.043 233.097 165.042H158.166C157.815 165.043 157.479 165.183 157.232 165.431C156.984 165.679 156.845 166.016 156.845 166.366Z" fill="#6C63FF"/>
<path d="M153.464 227.177C153.603 227.352 153.781 227.494 153.983 227.59C154.184 227.687 154.406 227.736 154.63 227.735H236.225C236.448 227.735 236.668 227.685 236.87 227.589C237.071 227.493 237.248 227.353 237.389 227.18C237.53 227.006 237.63 226.804 237.682 226.587C237.735 226.37 237.738 226.144 237.692 225.926L236.426 219.91C236.373 219.664 236.26 219.436 236.097 219.245C235.934 219.055 235.725 218.908 235.491 218.819C235.321 218.752 235.14 218.718 234.958 218.718H155.891C155.709 218.718 155.528 218.752 155.358 218.819C155.124 218.908 154.916 219.055 154.752 219.245C154.589 219.436 154.476 219.664 154.424 219.91L153.157 225.926C153.112 226.144 153.116 226.37 153.169 226.586C153.222 226.803 153.323 227.005 153.464 227.177V227.177Z" fill="#2F2E41"/>
<path d="M232.159 221.31H234.086C234.248 221.31 234.379 221.179 234.379 221.017V220.095C234.379 219.933 234.248 219.802 234.086 219.802H232.159C231.997 219.802 231.866 219.933 231.866 220.095V221.017C231.866 221.179 231.997 221.31 232.159 221.31Z" fill="#3F3D56"/>
<path d="M227.132 221.31H229.06C229.221 221.31 229.352 221.179 229.352 221.017V220.095C229.352 219.933 229.221 219.802 229.06 219.802H227.132C226.971 219.802 226.839 219.933 226.839 220.095V221.017C226.839 221.179 226.971 221.31 227.132 221.31Z" fill="#3F3D56"/>
<path d="M222.106 221.31H224.033C224.195 221.31 224.326 221.179 224.326 221.017V220.095C224.326 219.933 224.195 219.802 224.033 219.802H222.106C221.944 219.802 221.813 219.933 221.813 220.095V221.017C221.813 221.179 221.944 221.31 222.106 221.31Z" fill="#3F3D56"/>
<path d="M217.08 221.31H219.007C219.169 221.31 219.3 221.179 219.3 221.017V220.095C219.3 219.933 219.169 219.802 219.007 219.802H217.08C216.918 219.802 216.787 219.933 216.787 220.095V221.017C216.787 221.179 216.918 221.31 217.08 221.31Z" fill="#3F3D56"/>
<path d="M212.054 221.31H213.981C214.143 221.31 214.274 221.179 214.274 221.017V220.095C214.274 219.933 214.143 219.802 213.981 219.802H212.054C211.892 219.802 211.761 219.933 211.761 220.095V221.017C211.761 221.179 211.892 221.31 212.054 221.31Z" fill="#3F3D56"/>
<path d="M207.027 221.31H208.955C209.116 221.31 209.248 221.179 209.248 221.017V220.095C209.248 219.933 209.116 219.802 208.955 219.802H207.027C206.866 219.802 206.735 219.933 206.735 220.095V221.017C206.735 221.179 206.866 221.31 207.027 221.31Z" fill="#3F3D56"/>
<path d="M202.001 221.31H203.929C204.09 221.31 204.221 221.179 204.221 221.017V220.095C204.221 219.933 204.09 219.802 203.929 219.802H202.001C201.84 219.802 201.708 219.933 201.708 220.095V221.017C201.708 221.179 201.84 221.31 202.001 221.31Z" fill="#3F3D56"/>
<path d="M196.975 221.31H198.902C199.064 221.31 199.195 221.179 199.195 221.017V220.095C199.195 219.933 199.064 219.802 198.902 219.802H196.975C196.813 219.802 196.682 219.933 196.682 220.095V221.017C196.682 221.179 196.813 221.31 196.975 221.31Z" fill="#3F3D56"/>
<path d="M191.949 221.31H193.876C194.038 221.31 194.169 221.179 194.169 221.017V220.095C194.169 219.933 194.038 219.802 193.876 219.802H191.949C191.787 219.802 191.656 219.933 191.656 220.095V221.017C191.656 221.179 191.787 221.31 191.949 221.31Z" fill="#3F3D56"/>
<path d="M186.923 221.31H188.85C189.012 221.31 189.143 221.179 189.143 221.017V220.095C189.143 219.933 189.012 219.802 188.85 219.802H186.923C186.761 219.802 186.63 219.933 186.63 220.095V221.017C186.63 221.179 186.761 221.31 186.923 221.31Z" fill="#3F3D56"/>
<path d="M181.897 221.31H183.824C183.986 221.31 184.117 221.179 184.117 221.017V220.095C184.117 219.933 183.986 219.802 183.824 219.802H181.897C181.735 219.802 181.604 219.933 181.604 220.095V221.017C181.604 221.179 181.735 221.31 181.897 221.31Z" fill="#3F3D56"/>
<path d="M176.87 221.31H178.798C178.959 221.31 179.091 221.179 179.091 221.017V220.095C179.091 219.933 178.959 219.802 178.798 219.802H176.87C176.709 219.802 176.577 219.933 176.577 220.095V221.017C176.577 221.179 176.709 221.31 176.87 221.31Z" fill="#3F3D56"/>
<path d="M171.844 221.31H173.771C173.933 221.31 174.064 221.179 174.064 221.017V220.095C174.064 219.933 173.933 219.802 173.771 219.802H171.844C171.682 219.802 171.551 219.933 171.551 220.095V221.017C171.551 221.179 171.682 221.31 171.844 221.31Z" fill="#3F3D56"/>
<path d="M166.818 221.31H168.745C168.907 221.31 169.038 221.179 169.038 221.017V220.095C169.038 219.933 168.907 219.802 168.745 219.802H166.818C166.656 219.802 166.525 219.933 166.525 220.095V221.017C166.525 221.179 166.656 221.31 166.818 221.31Z" fill="#3F3D56"/>
<path d="M161.792 221.31H163.719C163.881 221.31 164.012 221.179 164.012 221.017V220.095C164.012 219.933 163.881 219.802 163.719 219.802H161.792C161.63 219.802 161.499 219.933 161.499 220.095V221.017C161.499 221.179 161.63 221.31 161.792 221.31Z" fill="#3F3D56"/>
<path d="M156.766 221.31H158.693C158.855 221.31 158.986 221.179 158.986 221.017V220.095C158.986 219.933 158.855 219.802 158.693 219.802H156.766C156.604 219.802 156.473 219.933 156.473 220.095V221.017C156.473 221.179 156.604 221.31 156.766 221.31Z" fill="#3F3D56"/>
<path d="M232.218 223.823H234.145C234.307 223.823 234.438 223.692 234.438 223.53V222.608C234.438 222.446 234.307 222.315 234.145 222.315H232.218C232.056 222.315 231.925 222.446 231.925 222.608V223.53C231.925 223.692 232.056 223.823 232.218 223.823Z" fill="#3F3D56"/>
<path d="M227.192 223.823H229.119C229.281 223.823 229.412 223.692 229.412 223.53V222.608C229.412 222.446 229.281 222.315 229.119 222.315H227.192C227.03 222.315 226.899 222.446 226.899 222.608V223.53C226.899 223.692 227.03 223.823 227.192 223.823Z" fill="#3F3D56"/>
<path d="M222.165 223.823H224.093C224.254 223.823 224.386 223.692 224.386 223.53V222.608C224.386 222.446 224.254 222.315 224.093 222.315H222.165C222.004 222.315 221.873 222.446 221.873 222.608V223.53C221.873 223.692 222.004 223.823 222.165 223.823Z" fill="#3F3D56"/>
<path d="M217.139 223.823H219.067C219.228 223.823 219.359 223.692 219.359 223.53V222.608C219.359 222.446 219.228 222.315 219.067 222.315H217.139C216.978 222.315 216.846 222.446 216.846 222.608V223.53C216.846 223.692 216.978 223.823 217.139 223.823Z" fill="#3F3D56"/>
<path d="M212.113 223.823H214.04C214.202 223.823 214.333 223.692 214.333 223.53V222.608C214.333 222.446 214.202 222.315 214.04 222.315H212.113C211.951 222.315 211.82 222.446 211.82 222.608V223.53C211.82 223.692 211.951 223.823 212.113 223.823Z" fill="#3F3D56"/>
<path d="M207.087 223.823H209.014C209.176 223.823 209.307 223.692 209.307 223.53V222.608C209.307 222.446 209.176 222.315 209.014 222.315H207.087C206.925 222.315 206.794 222.446 206.794 222.608V223.53C206.794 223.692 206.925 223.823 207.087 223.823Z" fill="#3F3D56"/>
<path d="M202.061 223.823H203.988C204.15 223.823 204.281 223.692 204.281 223.53V222.608C204.281 222.446 204.15 222.315 203.988 222.315H202.061C201.899 222.315 201.768 222.446 201.768 222.608V223.53C201.768 223.692 201.899 223.823 202.061 223.823Z" fill="#3F3D56"/>
<path d="M197.035 223.823H198.962C199.124 223.823 199.255 223.692 199.255 223.53V222.608C199.255 222.446 199.124 222.315 198.962 222.315H197.035C196.873 222.315 196.742 222.446 196.742 222.608V223.53C196.742 223.692 196.873 223.823 197.035 223.823Z" fill="#3F3D56"/>
<path d="M192.008 223.823H193.936C194.097 223.823 194.229 223.692 194.229 223.53V222.608C194.229 222.446 194.097 222.315 193.936 222.315H192.008C191.847 222.315 191.715 222.446 191.715 222.608V223.53C191.715 223.692 191.847 223.823 192.008 223.823Z" fill="#3F3D56"/>
<path d="M186.982 223.823H188.909C189.071 223.823 189.202 223.692 189.202 223.53V222.608C189.202 222.446 189.071 222.315 188.909 222.315H186.982C186.82 222.315 186.689 222.446 186.689 222.608V223.53C186.689 223.692 186.82 223.823 186.982 223.823Z" fill="#3F3D56"/>
<path d="M181.956 223.823H183.883C184.045 223.823 184.176 223.692 184.176 223.53V222.608C184.176 222.446 184.045 222.315 183.883 222.315H181.956C181.794 222.315 181.663 222.446 181.663 222.608V223.53C181.663 223.692 181.794 223.823 181.956 223.823Z" fill="#3F3D56"/>
<path d="M176.93 223.823H178.857C179.019 223.823 179.15 223.692 179.15 223.53V222.608C179.15 222.446 179.019 222.315 178.857 222.315H176.93C176.768 222.315 176.637 222.446 176.637 222.608V223.53C176.637 223.692 176.768 223.823 176.93 223.823Z" fill="#3F3D56"/>
<path d="M171.904 223.823H173.831C173.993 223.823 174.124 223.692 174.124 223.53V222.608C174.124 222.446 173.993 222.315 173.831 222.315H171.904C171.742 222.315 171.611 222.446 171.611 222.608V223.53C171.611 223.692 171.742 223.823 171.904 223.823Z" fill="#3F3D56"/>
<path d="M166.877 223.823H168.805C168.966 223.823 169.098 223.692 169.098 223.53V222.608C169.098 222.446 168.966 222.315 168.805 222.315H166.877C166.716 222.315 166.584 222.446 166.584 222.608V223.53C166.584 223.692 166.716 223.823 166.877 223.823Z" fill="#3F3D56"/>
<path d="M161.851 223.823H163.778C163.94 223.823 164.071 223.692 164.071 223.53V222.608C164.071 222.446 163.94 222.315 163.778 222.315H161.851C161.689 222.315 161.558 222.446 161.558 222.608V223.53C161.558 223.692 161.689 223.823 161.851 223.823Z" fill="#3F3D56"/>
<path d="M156.825 223.823H158.752C158.914 223.823 159.045 223.692 159.045 223.53V222.608C159.045 222.446 158.914 222.315 158.752 222.315H156.825C156.663 222.315 156.532 222.446 156.532 222.608V223.53C156.532 223.692 156.663 223.823 156.825 223.823Z" fill="#3F3D56"/>
<path d="M190.5 226.838H210.019C210.181 226.838 210.312 226.707 210.312 226.546V225.624C210.312 225.462 210.181 225.331 210.019 225.331H190.5C190.339 225.331 190.208 225.462 190.208 225.624V226.546C190.208 226.707 190.339 226.838 190.5 226.838Z" fill="#3F3D56"/>
</g>
<defs>
<clipPath id="clip0_10_304">
<rect width="499.933" height="379.866" fill="white"/>
</clipPath>
</defs>
</svg>
