<svg width="220" height="229" viewBox="0 0 220 229" fill="none" xmlns="http://www.w3.org/2000/svg">
<g clip-path="url(#clip0_119_908)">
<path d="M100.597 6.14043C103.054 2.60194 107.162 0.316348 111.464 0.0332695C118.476 -0.475223 125.308 4.90851 126.376 11.8387C126.702 14.7062 126.544 17.6995 125.193 20.3048C116.587 20.1318 107.977 20.221 99.3664 20.1056C97.173 15.676 97.7569 10.1455 100.597 6.14043ZM109.639 3.2677C106.52 4.23227 103.012 6.29245 102.459 9.76802C103.801 8.28973 104.842 6.47068 106.651 5.49039C110.181 3.13665 115.13 3.32012 118.512 5.86783C121.484 7.71308 122.557 11.2778 123.331 14.4808C124.193 7.41428 116.409 1.21801 109.639 3.2677ZM110.318 9.29098C111.117 10.4443 113.484 9.92529 113.552 11.7548C112.169 11.4298 110.617 10.46 109.318 11.5189C110.596 12.2948 112.095 12.5359 113.489 13.0339C112.679 14.8844 110.444 14.161 108.887 14.119C109.171 15.8437 109.813 17.5003 110.602 19.0519C110.959 19.7387 111.743 19.8068 112.427 19.6915C112.032 18.2918 111.301 17.018 110.875 15.6288C112.553 15.5502 114.089 14.9001 115.241 13.6735C115.814 13.3694 117.129 13.7364 117.171 12.8924C116.587 12.4625 115.909 12.2056 115.272 11.8806C115.777 10.979 117.818 11.7601 117.65 10.5281C115.446 9.87287 113.247 9.0446 110.954 8.77201C110.796 8.90306 110.475 9.15993 110.318 9.29098Z" fill="#F4F4F4"/>
<path d="M144.412 45.3315C149.603 44.1363 155.347 45.0222 159.692 48.1885C167.371 53.2524 170.133 64.5389 165.315 72.4441C163.363 77.3665 158.466 80.4227 153.459 81.5813C150.771 82.5511 147.92 82.0583 145.159 81.8119C144.885 83.6677 145.995 86.2154 144.265 87.5364C144.265 79.0178 144.28 70.4993 144.396 61.9807C144.712 62.7198 145.064 63.4695 144.996 64.2925C145.001 68.4967 144.885 72.7062 145.064 76.9052C145.017 77.9327 145.943 78.4831 146.647 79.044C146.353 74.1321 145.774 69.2306 145.669 64.3082C147.694 64.9373 149.772 65.8127 151.944 65.4825C153.401 65.3986 154.569 64.455 155.721 63.6687C157.194 64.4865 158.861 65.278 160.444 64.2086C159.55 63.1549 158.272 62.5364 157.304 61.5718C156.978 60.6964 157.509 59.8209 157.709 58.9822C158.882 59.6374 159.944 60.5653 161.244 60.9637C161.901 60.7488 162.506 60.3818 163.121 60.0568C161.901 58.5575 160.118 57.7345 158.556 56.6651C156.11 55.0977 153.869 53.2262 151.397 51.706C150.35 50.9406 149.198 51.9576 148.21 52.3246C150.487 54.2013 154.395 55.6796 154.043 59.2181C151.765 58.3164 150.103 56.251 147.747 55.58C147.137 55.6691 145.332 55.7372 145.89 56.6703C148.173 58.5051 150.813 59.8628 153.091 61.7133C152.249 62.2952 151.465 63.113 150.392 63.2126C148.236 63.5534 146.332 62.269 144.375 61.6033C144.28 56.1776 144.433 50.7572 144.412 45.3315Z" fill="#F4F4F4"/>
<path d="M38.7669 101.999C43.2851 98.4294 49.3551 97.4805 54.9621 98.0677C55.1515 98.2826 55.5355 98.7072 55.7248 98.9169L55.709 99.2419C55.0726 101.349 55.4145 103.561 55.2251 105.727C50.2861 106.733 45.3628 107.813 40.4237 108.793C38.7406 108.893 38.3776 110.717 38.1672 112.049C41.0444 111.608 43.9952 110.413 46.9039 111.32C47.7876 111.53 48.3662 112.237 48.8606 112.945C46.0203 113.752 43.0011 113.925 40.2502 115.016C39.7925 115.86 39.5979 116.809 39.3402 117.721C42.8959 117.181 46.3517 116.143 49.9231 115.687C50.4281 118.554 48.1085 121.039 45.468 121.731C44.2004 122.129 42.8801 122.323 41.6283 122.774C40.9655 123.812 41.6703 125.353 42.6224 126.056C46.783 129.374 50.7489 132.939 55.0463 136.095C55.0515 134.527 55.5618 132.755 54.7307 131.335C52.085 128.651 48.5871 126.811 46.2096 123.87C50.265 122.842 53.8365 119.351 53.847 115C55.1252 114.549 55.3145 113.385 55.1567 112.185C53.2947 112.243 52.1796 110.927 51.4853 109.375C52.6793 109.019 53.8944 108.741 55.1199 108.521C55.283 109.559 55.4671 110.591 55.5881 111.64C55.6249 123.45 55.546 135.261 55.5039 147.077L55.1936 147.701L54.778 147.292C54.494 145.19 54.6308 143.061 54.5624 140.949C51.2381 140.86 47.8455 140.854 44.6527 139.822C41.3653 138.689 38.1883 137.012 35.795 134.459C32.4182 131.036 29.7409 126.512 29.7882 121.584C29.1517 114.098 32.5286 106.303 38.7669 101.999Z" fill="#F4F4F4"/>
<path d="M138.148 118.502C140.799 119.388 143.539 120.001 146.18 120.929C147.321 121.291 147.584 122.549 147.936 123.529C149.509 124.032 151.092 124.489 152.686 124.934C152.634 125.128 152.539 125.506 152.486 125.699C150.866 125.264 149.257 124.803 147.658 124.3C146.895 124.882 146.174 125.846 145.08 125.616C142.251 125.06 139.547 124.017 136.754 123.299C136.817 123.099 136.943 122.701 137.006 122.502C139.715 123.278 142.382 124.195 145.128 124.835C146.906 125.165 147.658 122.25 145.875 121.71C143.255 120.829 140.583 120.096 137.901 119.446C137.979 119.131 138.058 118.816 138.148 118.502Z" fill="#F4F4F4"/>
<path d="M135.707 130.506C136.354 130.611 136.964 130.841 137.569 131.088C136.917 132.556 136.996 134.511 135.728 135.596C135.938 134.149 136.386 132.744 136.806 131.345C136.296 131.229 135.928 130.951 135.707 130.506Z" fill="#F4F4F4"/>
<path d="M152.213 135.167C152.244 135.335 152.302 135.675 152.328 135.848C151.487 136.472 150.209 136.818 149.961 137.977C150.861 138.359 151.492 137.657 152.144 137.227C152.318 137.767 152.497 138.318 152.744 138.842C152.176 139.062 151.692 139.424 151.187 139.754C151.681 138.176 149.762 138.291 148.783 137.872C149.788 136.803 151.077 136.074 152.213 135.167Z" fill="#F4F4F4"/>
<path d="M159.003 142.165C156.657 141.263 158.193 136.996 160.523 137.573C161.07 137.741 161.691 137.992 161.859 138.611C160.628 137.914 159.066 137.667 158.577 139.371C159.555 139.397 161.344 139.444 161.281 140.834C161.449 142.029 159.939 142.558 159.003 142.165ZM160.234 141.719C161.528 140.902 160.06 139.79 159.166 139.539C157.735 140.393 158.745 142.38 160.234 141.719Z" fill="#F4F4F4"/>
<path d="M169.544 145.3C167.545 144.21 168.65 140.577 170.854 140.614C171.453 140.781 172.41 140.891 172.316 141.72C171.164 140.876 169.665 140.949 169.186 142.485C170.18 142.49 171.979 142.548 171.853 143.979C171.995 145.258 170.522 145.667 169.544 145.3ZM169.607 144.739C170.191 145.237 171.416 144.902 171.269 144.005C171.506 143.035 170.196 143.077 169.665 142.752C169.244 143.287 168.608 144.393 169.607 144.739Z" fill="#F4F4F4"/>
<path d="M197.874 148.833C198.916 148.827 200.815 148.838 200.73 150.321C200.657 151.857 198.611 151.831 197.853 152.906C198.527 153.199 199.494 153.157 199.894 153.917C198.779 153.744 197.701 153.414 196.644 153.052C197.611 151.894 199.536 151.747 200.162 150.348C200.362 148.932 198.674 149.577 197.906 149.446C197.895 149.289 197.88 148.985 197.874 148.833Z" fill="#F4F4F4"/>
<path d="M109.639 3.26773C116.408 1.21803 124.193 7.4143 123.33 14.4808C122.557 11.2778 121.484 7.71311 118.512 5.86786C115.13 3.32015 110.181 3.13667 106.651 5.49042C104.842 6.47071 103.8 8.28975 102.459 9.76805C103.011 6.29247 106.52 4.23229 109.639 3.26773Z" fill="#DFDFDF"/>
<path d="M110.317 9.29144C110.475 9.16038 110.796 8.90352 110.954 8.77246C113.247 9.04506 115.446 9.87332 117.65 10.5286C117.818 11.7605 115.777 10.9794 115.272 11.8811C115.909 12.2061 116.587 12.463 117.171 12.8928C117.129 13.7368 115.814 13.3699 115.241 13.6739C114.089 14.9006 112.553 15.5506 110.875 15.6293C111.301 17.0184 112.032 18.2923 112.427 19.692C111.743 19.8073 110.959 19.7391 110.601 19.0524C109.812 17.5007 109.171 15.8442 108.887 14.1195C110.444 14.1614 112.679 14.8849 113.489 13.0344C112.095 12.5364 110.596 12.2952 109.318 11.5194C110.617 10.4604 112.169 11.4303 113.552 11.7553C113.484 9.92574 111.117 10.4447 110.317 9.29144Z" fill="#DFDFDF"/>
<path d="M144.417 44.1304C145.701 44.0045 146.953 43.6953 148.226 43.4961C153.18 43.1501 158.093 44.9691 161.949 48.0306C168.324 53.2308 170.664 62.693 167.387 70.2417C166.93 71.1277 166.656 72.7527 165.315 72.4434C170.133 64.5382 167.372 53.2518 159.692 48.1878C155.347 45.0215 149.604 44.1356 144.412 45.3308C144.412 45.032 144.417 44.4292 144.417 44.1304Z" fill="#DFDFDF"/>
<path d="M148.21 52.3246C149.199 51.9576 150.351 50.9407 151.398 51.706C153.87 53.2262 156.111 55.0977 158.557 56.6651C160.119 57.7345 161.902 58.5576 163.122 60.0568C162.507 60.3818 161.902 60.7488 161.245 60.9637C159.945 60.5653 158.883 59.6375 157.71 58.9822C157.51 59.8209 156.979 60.6964 157.305 61.5718C158.273 62.5364 159.551 63.155 160.445 64.2086C158.862 65.2781 157.194 64.4865 155.722 63.6687C154.57 64.455 153.402 65.3986 151.945 65.4825C149.773 65.8128 147.695 64.9373 145.67 64.3082C145.775 69.2307 146.354 74.1321 146.648 79.0441C145.943 78.4831 145.018 77.9327 145.065 76.9052C144.886 72.7062 145.002 68.4968 144.997 64.2925C145.065 63.4695 144.713 62.7199 144.397 61.9807L144.376 61.6033C146.333 62.269 148.237 63.5534 150.393 63.2126C151.466 63.113 152.25 62.2952 153.092 61.7134C150.814 59.8629 148.174 58.5051 145.891 56.6704C145.333 55.7373 147.137 55.6691 147.748 55.58C150.104 56.251 151.766 58.3164 154.044 59.2181C154.396 55.6796 150.488 54.2013 148.21 52.3246Z" fill="#DFDFDF"/>
<path d="M55.199 96.5842C55.3147 94.8019 55.241 92.9881 55.725 91.2529C55.8144 93.8059 55.8039 96.3641 55.725 98.917C55.5356 98.7073 55.1516 98.2827 54.9623 98.0678C49.3552 97.4807 43.2853 98.4295 38.767 101.999C32.5287 106.303 29.1519 114.098 29.7883 121.584C29.5937 121.38 29.1992 120.971 29.0046 120.766C28.2682 114.177 30.8193 107.54 35.2955 102.728C40.5711 97.8424 48.035 95.3156 55.199 96.5842Z" fill="#DFDFDF"/>
<path d="M55.2249 105.727C55.4142 103.562 55.0724 101.35 55.7088 99.2422C55.7456 103.373 55.8561 107.514 55.5878 111.64C55.4668 110.592 55.2827 109.559 55.1197 108.521C53.8941 108.741 52.6791 109.019 51.4851 109.375C52.1794 110.927 53.2945 112.243 55.1565 112.185C55.3143 113.386 55.125 114.549 53.8468 115C53.8363 119.351 50.2648 122.843 46.2094 123.87C48.5869 126.811 52.0847 128.651 54.7305 131.335C55.5615 132.756 55.0513 134.527 55.0461 136.095C50.7487 132.939 46.7827 129.374 42.6221 126.056C41.6701 125.354 40.9653 123.812 41.628 122.774C42.8799 122.324 44.2001 122.13 45.4678 121.731C48.1082 121.039 50.4278 118.554 49.9229 115.687C46.3514 116.143 42.8957 117.181 39.34 117.721C39.5977 116.809 39.7923 115.86 40.2499 115.016C43.0009 113.926 46.02 113.753 48.8604 112.945C48.366 112.238 47.7874 111.53 46.9037 111.32C43.995 110.413 41.0442 111.609 38.167 112.049C38.3774 110.717 38.7403 108.893 40.4235 108.793C45.3626 107.813 50.2858 106.733 55.2249 105.727Z" fill="#DFDFDF"/>
<path d="M144.765 18.2021C145.664 18.4014 145.727 19.4812 146.364 20.0107C146.927 20.3619 147.511 20.6765 148.11 20.9648C147.327 21.6882 146.111 21.9818 145.712 23.0512C145.643 23.5859 144.807 24.2831 144.57 23.4286C144.176 22.1915 143.008 21.6725 141.914 21.1745C143.113 20.4196 144.418 19.6962 144.765 18.2021Z" fill="url(#paint0_linear_119_908)"/>
<path d="M153.212 26.7578C153.717 27.4603 154.406 27.995 154.98 28.6345C154.259 29.0906 153.749 29.793 153.039 30.2544C153.002 29.3212 151.682 29.1954 151.598 28.4458C152.25 27.995 152.813 27.4498 153.212 26.7578Z" fill="url(#paint1_linear_119_908)"/>
<path d="M42.1751 59.165C42.801 59.836 43.4427 60.4913 44.0055 61.22C43.1482 61.3458 42.7852 62.1111 42.2014 62.6196C41.8648 61.891 40.8549 61.6498 40.6182 60.9369C41.1968 60.4022 41.749 59.8308 42.1751 59.165Z" fill="url(#paint2_linear_119_908)"/>
<path d="M89.877 64.6842C92.6963 64.1128 95.4419 63.2583 98.2192 62.5192C99.2659 62.2204 100.376 62.2256 101.422 62.5506C104.205 63.316 106.972 64.1652 109.817 64.6895C109.575 65.0145 109.254 65.2032 108.844 65.2556C106.209 65.9161 103.579 66.6291 100.965 67.3735C100.234 67.6565 99.5078 67.667 98.782 67.4049C96.1468 66.6553 93.501 65.9581 90.85 65.2766C90.4292 65.2242 90.1031 65.025 89.877 64.6842Z" fill="url(#paint3_linear_119_908)"/>
<path d="M99.8448 69.2137C101.922 68.7734 103.963 68.1443 106.009 67.5781C106.046 69.1403 106.046 70.7077 106.067 72.2751C101.88 72.4481 97.6777 72.3171 93.4856 72.338C93.4803 70.7759 93.475 69.2137 93.4856 67.6515C95.6316 68.0709 97.6935 68.831 99.8448 69.2137Z" fill="url(#paint4_linear_119_908)"/>
<path d="M48.3084 71.1328C49.1026 71.2953 49.0921 72.3542 49.6549 72.8313C50.2388 73.2192 50.87 73.5337 51.4854 73.8745C50.3597 74.7342 48.9554 75.3371 48.7344 76.915C47.9507 76.6738 47.7876 75.8089 47.3353 75.2322C46.8251 74.839 46.2465 74.5455 45.71 74.1943C45.6258 73.4289 46.6463 73.366 47.067 72.9257C47.6877 72.5168 47.8666 71.7042 48.3084 71.1328Z" fill="url(#paint5_linear_119_908)"/>
<path d="M91.5865 73.9219C96.7886 73.9585 102.001 73.8537 107.203 73.969C108.429 74.7344 109.412 75.9244 110.296 77.0724C103.2 77.0776 96.0995 77.1248 89.0039 77.0462C89.7666 75.9296 90.666 74.9179 91.5865 73.9219Z" fill="url(#paint6_linear_119_908)"/>
<path d="M91.1396 84.9091C96.8835 84.8777 102.627 84.9563 108.371 84.8672C108.545 90.6441 108.429 96.4262 108.429 102.208C106.877 102.224 105.32 102.224 103.769 102.219C103.721 98.9058 103.753 95.5927 103.753 92.2849C101.202 91.7449 98.4089 91.724 95.8631 92.2901C95.9104 95.5927 95.8946 98.8953 95.8736 102.198C94.3272 102.214 92.7807 102.219 91.2343 102.256C91.0345 96.4786 91.2343 90.6913 91.1396 84.9091ZM97.3726 89.9207C98.5719 89.1658 98.0775 87.6403 98.067 86.4713C95.984 86.1987 96.2786 88.9613 97.3726 89.9207ZM101.596 86.529C101.223 87.6246 101.339 88.7621 101.728 89.8368C103.385 89.5852 102.896 87.7347 102.796 86.5499C102.496 86.5447 101.896 86.5342 101.596 86.529Z" fill="url(#paint7_linear_119_908)"/>
<path d="M110.033 84.9091C113.678 84.8829 117.329 84.9511 120.974 84.8672C121.21 90.6441 121.016 96.4367 121.074 102.219C117.434 102.235 113.794 102.166 110.154 102.261C109.865 96.4891 110.107 90.6913 110.033 84.9091ZM113.857 90.3925C113.92 89.4122 113.952 88.4371 113.952 87.4568C111.743 86.5394 111.648 90.9953 113.857 90.3925ZM118.565 90.3558C118.649 89.3964 118.67 88.4371 118.649 87.4726C116.434 86.5394 116.34 91.0373 118.565 90.3558ZM112.327 92.2849C112.358 93.4958 111.99 95.4879 113.883 95.0895C113.931 94.1249 113.952 93.1551 113.952 92.1905C113.405 92.2167 112.863 92.2534 112.327 92.2849ZM117.024 92.4159C117.129 93.3648 116.619 95.2258 118.149 95.1209C119.138 94.5862 118.486 93.0712 118.659 92.1381C118.102 92.1905 117.56 92.2796 117.024 92.4159ZM112.39 99.5925C112.884 99.6554 113.378 99.7183 113.878 99.7865C113.92 98.8481 114.041 97.8993 113.868 96.9714C112.132 95.8391 112.258 98.5388 112.39 99.5925ZM118.565 99.8179C118.628 98.8586 118.749 97.8888 118.591 96.9295C116.571 95.7185 116.25 100.484 118.565 99.8179Z" fill="url(#paint8_linear_119_908)"/>
<path d="M97.4679 93.4905C99.0353 93.4852 100.603 93.4905 102.175 93.4957C102.207 96.4051 102.239 99.3145 102.16 102.219C100.587 102.219 99.0143 102.219 97.4468 102.224C97.4311 99.3093 97.4048 96.3999 97.4679 93.4905Z" fill="url(#paint9_linear_119_908)"/>
<path d="M1.38994 142.337C3.79898 139.721 8.05425 140.062 10.7052 142.128C15.3603 145.524 16.6858 151.464 19.968 155.93C20.9305 156.994 21.8773 158.719 23.5394 158.525C24.9333 158.001 24.6651 156.145 24.7334 154.95C24.5809 153.571 25.8012 152.664 26.8479 152.061C27.5159 152.172 28.9887 152.172 28.6415 153.251C27.4896 159.217 27.132 165.288 26.3324 171.306C25.0227 170.346 24.5546 168.721 23.6867 167.421C19.1053 159.982 13.9822 152.827 7.93853 146.494C6.38686 145.095 4.77207 143.779 3.22565 142.374C4.94038 144.324 7.17059 145.734 8.81694 147.742C14.708 154.268 19.7576 161.513 24.2495 169.057C24.8281 169.99 25.2647 171.002 25.6592 172.034C18.3584 169.691 10.7578 168.045 3.07838 167.856C10.721 168.726 18.3216 170.047 25.717 172.192C26.4376 172.815 26.7217 173.78 27.1425 174.608C30.4667 182.409 33.8331 190.204 36.4052 198.292C26.243 195.425 16.3544 191.609 6.21328 188.668C5.63469 188.343 5.06662 188.012 4.50907 187.661C4.59323 187.237 4.76155 186.377 4.84571 185.952C5.86613 183.903 8.25413 183.106 10.4212 183.384C13.0722 183.357 15.1709 185.402 17.7798 185.543C19.1895 185.407 21.041 184.443 20.8095 182.77C20.8779 180.548 18.6372 179.237 16.8015 178.577C12.2727 177.025 7.96483 174.703 4.40913 171.473C3.14149 170.325 2.15263 168.517 2.86798 166.808C4.23556 164.58 7.17059 164.811 9.44813 164.643C11.1103 164.58 12.5778 163.4 12.8881 161.744C11.9255 160.323 10.4002 159.5 9.1115 158.42C6.20276 156.098 3.62015 153.346 1.49514 150.295C-0.0723111 148.009 -0.840258 144.455 1.38994 142.337Z" fill="url(#paint10_linear_119_908)"/>
<path d="M77.7798 151.307C93.0388 151.05 108.324 151.506 123.599 151.443C124.803 151.16 124.845 152.581 124.793 153.398C124.698 157.246 124.877 161.099 124.672 164.936C124.53 165.104 124.241 165.44 124.099 165.602C114.799 165.707 105.5 165.571 96.2 165.571C89.9933 165.099 83.7024 165.723 77.5378 165.178C77.0644 161.655 77.5378 158.038 77.3643 154.478C77.4958 153.451 77.0434 152.151 77.7798 151.307ZM89.9512 156.565C89.8828 158.006 89.7987 159.453 89.8986 160.895C90.9506 161.665 90.8454 159.904 91.0032 159.327C91.4187 159.296 92.2445 159.233 92.6601 159.196C92.376 158.342 91.3241 158.656 90.7823 158.122C90.6192 156.701 92.7548 157.865 92.6496 156.481C91.7449 156.444 90.8454 156.455 89.9512 156.565ZM102.044 156.617C102.023 158.027 101.939 159.443 102.017 160.853C102.991 161.775 103.043 160.019 103.122 159.437C103.901 159.306 105.163 159.228 105.126 158.158C105.426 156.423 103.233 156.192 102.044 156.617ZM93.0441 159.18C92.6969 160.937 95.1059 161.733 96.1947 160.58C95.4478 160.465 94.7062 160.37 93.9645 160.292C94.2328 159.589 94.2907 158.866 94.1434 158.132C94.3643 158.127 94.8166 158.127 95.0376 158.122C94.9797 158.483 94.864 159.201 94.8061 159.563C95.1322 159.448 95.7739 159.217 96.1001 159.102C96.1947 157.157 92.8547 157.236 93.0441 159.18ZM96.7155 158.682C95.6793 160.339 98.5775 162.121 99.5137 160.481C99.0351 160.433 98.083 160.334 97.6044 160.281L97.4045 159.469C98.1409 159.437 98.8826 159.406 99.6189 159.38C100.098 157.576 97.0731 156.953 96.7155 158.682ZM106.036 157.99C106.415 158.032 107.172 158.122 107.546 158.163C107.504 158.955 108.103 161.272 106.509 160.308C106.536 159.972 106.583 159.306 106.604 158.971C105.71 159.233 105.147 160.318 106.047 160.973C106.867 161.089 107.703 160.979 108.529 160.963C108.492 160.15 108.456 159.338 108.424 158.53C108.708 158.562 109.287 158.625 109.576 158.656C110.039 160.024 110.659 161.487 109.25 162.52C109.508 162.467 110.023 162.368 110.281 162.321C111.364 161.031 111.622 159.207 112.369 157.697C111.138 157.566 111.217 159.149 110.544 159.841C110.286 159.128 110.06 158.41 109.728 157.734C109.103 157.456 108.677 158.053 108.177 158.279C107.872 157.403 106.63 157.55 106.036 157.99Z" fill="url(#paint11_linear_119_908)"/>
<path d="M29.3358 152.424L29.462 152.083C30.7297 153 31.9395 154.101 32.5023 155.595C33.4491 158.458 33.0914 161.508 33.1545 164.47C33.1913 167.27 33.0861 170.064 33.144 172.863C33.1492 174.305 33.6279 175.883 34.9113 176.7C37.4782 177.539 39.9188 175.804 41.6019 174.037C43.2798 172.381 43.7953 169.833 45.7941 168.46C46.6514 168.533 47.5141 168.633 48.3714 168.737C45.6468 175.007 43.1168 181.371 40.8024 187.809C39.661 191.012 38.2777 194.136 37.3782 197.417C41.3337 187.924 44.5527 178.142 48.6186 168.69C50.0651 169.555 50.8699 171.133 51.0487 172.769C51.4853 181.481 51.0435 190.718 46.6409 198.487C44.7684 201.491 42.4908 204.563 39.2192 206.13L38.7721 206.308C37.82 201.04 36.0948 195.955 34.2275 190.954C31.95 185.072 29.6409 179.196 26.9741 173.476C26.7164 172.769 26.1746 172.024 26.4692 171.248C27.4738 167.306 27.3844 163.202 28.0997 159.212C28.4995 156.943 28.3101 154.547 29.3358 152.424Z" fill="url(#paint12_linear_119_908)"/>
<path d="M4.51953 188.967C7.70178 188.752 10.5316 190.387 13.4877 191.263C21.0514 193.795 28.5889 196.505 36.342 198.408C37.4413 200.955 37.8148 203.729 38.588 206.376L38.1935 206.502C31.9342 208.253 25.2488 206.879 19.4524 204.237C14.8973 202.072 10.9051 198.848 7.59658 195.068C6.42888 193.695 5.3506 192.211 4.71415 190.508C4.66681 190.12 4.57213 189.349 4.51953 188.967Z" fill="url(#paint13_linear_119_908)"/>
<path d="M198.074 202.302C199.973 199.629 201.851 196.94 203.729 194.245C204.87 195.037 206.069 195.776 206.995 196.83C206.495 197.406 206.027 197.999 205.58 198.612C205.307 197.611 205.101 196.588 204.923 195.571C203.939 196.468 204.265 197.747 204.433 198.895C202.761 200.625 201.498 202.706 199.778 204.394C199.71 203.513 199.657 202.633 199.61 201.757C199.489 201.893 199.242 202.161 199.121 202.292C198.858 202.297 198.337 202.302 198.074 202.302Z" fill="url(#paint14_linear_119_908)"/>
<path d="M193.397 227.817C194.097 227.246 194.755 226.58 195.57 226.171C196.243 226.601 195.743 227.618 195.833 228.284L195.643 228.289C194.886 228.147 194.139 227.979 193.397 227.817Z" fill="url(#paint15_linear_119_908)"/>
<path d="M56.0246 32.3619C56.4348 25.7882 62.2313 20.179 68.843 20.0008C79.0156 19.9903 89.1936 20.0899 99.3662 20.1056C107.977 20.2209 116.587 20.1318 125.192 20.3048C128.843 20.546 132.709 19.7806 136.17 21.3008C140.33 22.9574 143.497 26.8366 144.265 31.24C144.57 33.641 144.391 36.0681 144.391 38.4848C147.184 37.9815 150.119 37.9291 152.907 38.4848C150.093 38.4638 147.279 38.4795 144.475 38.663C144.412 40.4873 144.423 42.3063 144.417 44.1306C144.417 44.4294 144.412 45.0323 144.412 45.3311C144.433 50.7567 144.281 56.1772 144.375 61.6028L144.396 61.9803C144.281 70.4988 144.265 79.0174 144.265 87.536V87.5884C144.17 90.5659 144.349 93.554 144.123 96.5263C142.724 96.2747 141.398 96.8042 140.146 97.3441C140.215 78.3045 140.273 59.2648 140.325 40.2252C140.341 37.1585 140.893 33.8873 139.51 31.0146C138.042 27.9741 134.871 25.6152 131.404 25.6728C127.365 25.6047 123.325 25.6466 119.286 25.6414C118.086 25.5051 116.85 26.1551 116.424 27.3031C116.166 28.6294 116.377 30.0029 116.077 31.3187C115.809 32.7079 114.483 33.8873 113.026 33.6829C105.478 33.6777 97.9303 33.6252 90.3823 33.62C88.5256 33.8821 86.8214 32.0945 87.0686 30.2702C86.9529 29.0069 87.3631 27.4919 86.3848 26.4696C85.7063 25.6204 84.5912 25.2482 83.5286 25.3111C78.7947 25.3164 74.0661 25.2744 69.3374 25.2797C64.4878 25.2901 60.0537 29.5573 60.0852 34.4325C60.0326 51.0346 59.9958 67.6418 59.9853 84.2491C59.596 99.4462 59.7907 114.664 59.6802 129.872C59.6171 148.209 59.554 166.541 59.5172 184.878C59.2647 189.313 62.8677 193.496 67.2229 194.131C88.2468 194.592 109.297 194.435 130.331 194.571C135.081 194.692 139.51 190.655 139.683 185.906C139.81 174.677 139.678 163.443 139.904 152.209C141.24 152.602 142.576 153.011 143.918 153.388C143.844 164.942 143.87 176.501 143.807 188.06C143.76 194.812 137.711 200.872 130.92 200.93C110.049 200.888 89.1725 200.794 68.3012 200.678C61.5896 200.584 55.5617 194.755 55.4039 188.045C55.3934 174.389 55.5301 160.733 55.5038 147.077C55.5459 135.261 55.6248 123.45 55.588 111.64C55.8563 107.514 55.7458 103.373 55.709 99.2418L55.7248 98.9168C55.8037 96.3638 55.8142 93.8056 55.7248 91.2527L55.7616 90.7232C55.9299 71.2747 55.8773 51.8157 56.0246 32.3619Z" fill="#263238"/>
<path d="M186.759 70.4515C186.612 69.1776 187.301 67.5578 188.763 67.5106C190.946 67.2485 192.272 70.6035 190.541 71.9036C189.705 70.9076 188.427 70.6821 187.196 70.6821C188.521 71.4003 189.894 72.0241 191.22 72.7528C191.93 73.319 192.424 74.1158 192.955 74.8549C193.876 76.48 194.539 78.2781 195.764 79.7197C196.837 80.9254 198.526 81.1823 199.777 82.1363C200.898 83.1114 200.246 84.8885 201.287 85.8793C202.639 87.3471 205.195 85.9212 206.437 87.5882C207.352 88.9617 207.183 91.4779 209.293 91.6929C211.002 91.7086 212.48 93.0768 212.696 94.7491C212.901 96.5471 213.106 98.7803 211.476 100.017C209.787 101.627 207.352 100.101 205.342 100.715C204.543 102.062 203.381 103.184 201.839 103.619C201.361 100.012 198.505 97.0451 195.012 96.154C194.318 95.9757 193.587 96.0439 192.887 96.0229C191.767 94.6966 191.341 92.7098 189.631 91.9759C189.547 91.3311 189.505 90.6864 189.405 90.0468C188.984 86.9801 188.874 83.882 188.6 80.7996C187.212 80.3907 185.791 79.8874 184.745 78.839C183.556 77.8954 183.251 76.3227 182.257 75.2271C182.094 76.4433 182.062 77.6805 181.815 78.8862C180.011 79.6201 178.191 80.3383 176.313 80.8835C175.745 80.0866 175.819 79.0749 175.677 78.168L175.135 78.1365C174.998 78.7761 174.851 79.4156 174.698 80.0552C174.882 76.5429 177.113 73.277 180 71.3374C181.952 69.8958 184.492 70.2051 186.759 70.4515ZM191.661 82.4456C190.031 83.2057 190.457 85.2816 190.92 86.6551C191.509 86.6341 192.103 86.6237 192.703 86.6132C192.682 86.3825 192.629 85.9212 192.603 85.6905C193.96 84.9199 193.497 81.8323 191.661 82.4456Z" fill="#263238"/>
<path d="M182.346 80.9987C182.567 80.9148 183.009 80.7366 183.23 80.6475C183.235 80.9987 183.256 81.7011 183.262 82.0524C182.977 82.0209 182.404 81.958 182.12 81.9266C182.178 81.6959 182.288 81.2346 182.346 80.9987Z" fill="#263238"/>
<path d="M191.357 85.743C192.445 84.8047 192.44 86.9435 191.341 86.1309L191.357 85.743Z" fill="#263238"/>
<path d="M138.147 118.502C138.505 117.459 138.552 115.875 139.836 115.498C142.944 116.085 145.937 117.181 148.993 118.004C150.587 118.544 152.402 118.638 153.754 119.739C153.343 119.734 152.528 119.723 152.118 119.713C151.776 120.898 153.406 120.887 154.027 121.448C153.706 122.004 153.396 122.565 153.101 123.131C152.996 123.582 152.786 124.483 152.686 124.934C151.092 124.488 149.509 124.032 147.936 123.529C147.584 122.549 147.321 121.291 146.179 120.929C143.539 120.001 140.798 119.388 138.147 118.502Z" fill="#263238"/>
<path d="M137.9 119.445C140.583 120.095 143.255 120.829 145.874 121.71C147.657 122.25 146.905 125.165 145.127 124.834C142.381 124.195 139.715 123.277 137.006 122.502C137.321 121.49 137.621 120.468 137.9 119.445Z" fill="#263238"/>
<path d="M136.754 123.298C139.547 124.016 142.25 125.059 145.08 125.615C146.174 125.846 146.895 124.881 147.658 124.299C149.257 124.802 150.866 125.264 152.486 125.699C151.96 127.24 151.781 128.97 150.787 130.307C149.446 130.422 148.163 129.945 146.895 129.599C143.376 128.53 139.784 127.68 136.333 126.386C136.301 125.337 136.391 124.289 136.754 123.298Z" fill="#263238"/>
<path d="M74.8603 136.425C79.4154 136.404 83.9757 136.388 88.5308 136.441L88.4835 137.143C83.8337 137.043 79.1839 137.154 74.5342 137.08C74.6131 136.918 74.7761 136.587 74.8603 136.425Z" fill="#263238"/>
<path d="M3.2254 142.375C4.77182 143.78 6.38661 145.096 7.93828 146.495C13.9819 152.828 19.1051 159.984 23.6865 167.422C24.5543 168.722 25.0225 170.347 26.3322 171.307C27.1317 165.289 27.4894 159.218 28.6413 153.253C28.9884 152.173 27.5157 152.173 26.8477 152.063C27.7208 151.911 28.6045 151.879 29.4881 152L29.3356 152.424C28.3099 154.547 28.4993 156.943 28.0995 159.213C27.3842 163.202 27.4736 167.307 26.469 171.249C26.1744 172.025 26.7162 172.769 26.9739 173.477C29.6407 179.196 31.9498 185.073 34.2273 190.954C36.0946 195.955 37.8198 201.04 38.7719 206.309L38.5878 206.377C37.8146 203.73 37.4411 200.957 36.3418 198.409C28.5887 196.506 21.0512 193.796 13.4875 191.264C10.5314 190.388 7.70159 188.753 4.51934 188.968C4.57194 189.35 4.66662 190.121 4.71396 190.509L4.735 190.666C4.21953 189.135 4.11433 187.437 4.84546 185.953C4.7613 186.378 4.59298 187.238 4.50882 187.662C5.06637 188.014 5.63444 188.344 6.21303 188.669C16.3541 191.61 26.2428 195.426 36.4049 198.293C33.8328 190.205 30.4665 182.41 27.1422 174.609C26.7214 173.781 26.4374 172.816 25.7168 172.193C18.3213 170.049 10.7208 168.728 3.07812 167.857C10.7576 168.046 18.3582 169.692 25.6589 172.035C25.2644 171.003 24.8279 169.991 24.2493 169.058C19.7573 161.514 14.7078 154.27 8.81669 147.743C7.17034 145.735 4.94013 144.325 3.2254 142.375Z" fill="#263238"/>
<path d="M45.7938 168.46C46.7353 168.109 47.761 168.135 48.6762 168.559L48.6184 168.691C44.5524 178.142 41.3334 187.924 37.3779 197.418C38.2774 194.136 39.6607 191.012 40.8021 187.809C43.1165 181.371 45.6465 175.007 48.3711 168.738C47.5138 168.633 46.6512 168.533 45.7938 168.46Z" fill="#263238"/>
<path d="M60.0855 34.4326C60.0539 29.5574 64.488 25.2902 69.3376 25.2798C74.0663 25.2745 78.795 25.3164 83.5289 25.3112C84.5914 25.2483 85.7065 25.6205 86.385 26.4697C87.3634 27.492 86.9531 29.007 87.0688 30.2703C86.8216 32.0946 88.5258 33.8822 90.3825 33.6201C97.9305 33.6253 105.479 33.6777 113.026 33.683C114.483 33.8874 115.809 32.7079 116.077 31.3188C116.377 30.003 116.167 28.6295 116.424 27.3032C116.85 26.1552 118.087 25.5052 119.286 25.6415C123.325 25.6467 127.365 25.6048 131.405 25.6729C134.871 25.6153 138.043 27.9742 139.51 31.0147C140.893 33.8874 140.341 37.1586 140.325 40.2252C140.273 59.2649 140.215 78.3045 140.147 97.3442C139.557 98.2983 138.984 99.2838 138.684 100.374C137.564 104.269 136.391 108.154 135.297 112.059C134.419 111.566 133.519 111.021 132.483 111.021C132.083 112.651 134.803 112.531 134.608 114.198C133.083 113.81 131.704 113.039 130.253 112.463C130.242 114.203 132.209 114.738 133.314 115.718C132.078 115.508 130.847 115.309 129.606 115.168C130.279 116.772 132.341 116.824 133.54 117.915C132.588 118.035 131.62 118.004 130.668 117.904C131.042 118.717 131.867 119.084 132.604 119.503C132.63 119.88 132.683 120.63 132.714 121.007C130.547 128.105 128.533 135.25 126.392 142.364C125.976 143.821 125.508 145.525 126.371 146.925C127.007 148.178 128.291 148.906 129.616 149.242C133.061 150.175 136.475 151.218 139.905 152.209C139.678 163.443 139.81 174.677 139.684 185.906C139.51 190.655 135.081 194.692 130.332 194.571C109.297 194.435 88.247 194.592 67.2232 194.131C62.868 193.497 59.2649 189.313 59.5174 184.878C59.5542 166.541 59.6173 148.209 59.6804 129.872C59.7909 114.664 59.5963 99.4463 59.9855 84.2492C59.996 67.6419 60.0329 51.0347 60.0855 34.4326ZM89.8776 64.6853C90.1038 65.0261 90.4299 65.2253 90.8507 65.2777C93.5017 65.9592 96.1474 66.6564 98.7826 67.406C99.5085 67.6681 100.234 67.6576 100.965 67.3746C103.58 66.6302 106.21 65.9172 108.845 65.2567C109.255 65.2043 109.576 65.0156 109.818 64.6906C106.972 64.1663 104.206 63.3171 101.423 62.5518C100.376 62.2267 99.2665 62.2215 98.2198 62.5203C95.4426 63.2594 92.6969 64.1139 89.8776 64.6853ZM108.498 66.5987C108.666 68.1924 107.987 70.3364 109.555 71.4111C110.007 71.8567 111.296 71.301 110.712 70.63C109.813 69.3981 110.128 67.8359 110.028 66.41C109.644 66.4572 108.882 66.5515 108.498 66.5987ZM99.8451 69.2146C97.6938 68.8319 95.6319 68.0718 93.4859 67.6524C93.4754 69.2146 93.4806 70.7768 93.4859 72.3389C97.6781 72.318 101.881 72.449 106.068 72.276C106.047 70.7086 106.047 69.1412 106.01 67.579C103.964 68.1452 101.923 68.7742 99.8451 69.2146ZM91.5871 73.9221C90.6666 74.9181 89.7671 75.9298 89.0045 77.0464C96.1001 77.1251 103.201 77.0779 110.297 77.0726C109.413 75.9246 108.429 74.7346 107.204 73.9692C102.002 73.8539 96.7891 73.9588 91.5871 73.9221ZM87.9735 78.8026C87.9998 79.159 88.0471 79.872 88.0734 80.2284C95.9055 80.2075 103.732 80.2389 111.564 80.2127C111.854 79.2062 111.533 78.4094 110.381 78.6715C102.917 78.7816 95.4268 78.5142 87.9735 78.8026ZM80.6307 80.2546C80.0468 81.2507 79.5156 82.2781 79.0527 83.3318C82.0351 83.379 85.0227 83.3685 88.0103 83.3371C88.489 81.8011 86.7374 81.2926 86.0273 80.2389C84.2285 80.2389 82.4296 80.2546 80.6307 80.2546ZM113.368 80.2599C112.858 81.4656 111.038 81.8221 111.601 83.379C114.578 83.3213 117.555 83.4104 120.527 83.3161C120.043 82.2886 119.528 81.2716 118.991 80.2651C117.119 80.2442 115.241 80.2284 113.368 80.2599ZM89.4884 81.8221C89.5515 82.341 89.6199 82.8705 89.6935 83.3947C96.463 83.2846 103.238 83.3685 110.013 83.3528C110.023 83.0225 110.039 82.3568 110.049 82.0265L109.718 81.8378C102.98 81.7854 96.2316 81.8325 89.4884 81.8221ZM78.5215 84.9202C78.6056 90.6918 78.4426 96.474 78.6056 102.246C82.2455 102.177 85.8906 102.235 89.5357 102.209C89.5094 96.4268 89.6567 90.6342 89.4568 84.852C85.8117 84.9831 82.1666 84.873 78.5215 84.9202ZM91.14 84.9097C91.2347 90.6919 91.0348 96.4792 91.2347 102.256C92.7811 102.219 94.3275 102.214 95.8739 102.198C95.8949 98.8959 95.9107 95.5933 95.8634 92.2907C98.4092 91.7246 101.202 91.7455 103.753 92.2855C103.753 95.5933 103.722 98.9064 103.769 102.219C105.321 102.225 106.878 102.225 108.429 102.209C108.429 96.4268 108.545 90.6447 108.371 84.8678C102.628 84.9569 96.8838 84.8783 91.14 84.9097ZM110.034 84.9097C110.107 90.6919 109.865 96.4897 110.155 102.261C113.794 102.167 117.434 102.235 121.074 102.219C121.016 96.4373 121.211 90.6447 120.974 84.8678C117.329 84.9516 113.679 84.8835 110.034 84.9097ZM97.4677 93.4912C97.4045 96.4006 97.4308 99.31 97.4466 102.225C99.0141 102.219 100.587 102.219 102.16 102.219C102.238 99.3153 102.207 96.4058 102.175 93.4964C100.603 93.4912 99.0351 93.4859 97.4677 93.4912ZM77.4853 103.86C77.6851 104.343 77.4274 105.202 78.1743 105.281C81.4407 105.38 84.7176 105.297 87.9893 105.312C87.9683 104.914 87.9262 104.117 87.9051 103.719C84.4336 103.881 80.9568 103.645 77.4853 103.86ZM89.4989 103.902C89.5094 104.421 89.5199 105.464 89.5252 105.983C96.3105 106.261 103.112 105.947 109.902 106.141C110.06 105.339 110.065 104.526 109.934 103.719C103.127 103.928 96.3 103.572 89.4989 103.902ZM111.538 103.766C111.617 104.363 111.396 105.595 112.448 105.318C115.593 105.281 118.749 105.428 121.889 105.218C121.874 104.856 121.842 104.133 121.832 103.766C118.397 103.776 114.967 103.776 111.538 103.766ZM74.6712 134.113C74.6239 134.344 74.5292 134.8 74.4766 135.03C81.8983 135.14 89.3253 135.062 96.747 135.072C96.9627 135.03 97.3993 134.936 97.6149 134.889C97.9253 133.694 96.3631 134.081 95.6688 133.987C88.6678 134.092 81.6564 133.84 74.6712 134.113ZM74.8606 136.425C74.7764 136.587 74.6133 136.918 74.5344 137.08C79.1842 137.153 83.834 137.043 88.4837 137.143L88.5311 136.44C83.976 136.388 79.4156 136.404 74.8606 136.425ZM77.7798 151.307C77.0434 152.151 77.4958 153.451 77.3643 154.479C77.5378 158.038 77.0645 161.655 77.5378 165.178C83.7025 165.723 89.9933 165.1 96.2 165.571C105.5 165.571 114.799 165.708 124.099 165.603C124.241 165.44 124.53 165.105 124.672 164.937C124.877 161.1 124.698 157.247 124.793 153.399C124.845 152.581 124.803 151.161 123.599 151.444C108.324 151.507 93.0388 151.05 77.7798 151.307Z" fill="white"/>
<path d="M97.3734 89.9213C96.2793 88.962 95.9848 86.1994 98.0677 86.4719C98.0782 87.641 98.5727 89.1664 97.3734 89.9213Z" fill="white"/>
<path d="M101.597 86.5293C101.897 86.5345 102.496 86.545 102.796 86.5503C102.896 87.735 103.385 89.5855 101.728 89.8371C101.339 88.7625 101.223 87.6249 101.597 86.5293Z" fill="white"/>
<path d="M80.9624 87.4629C81.3253 87.4629 82.046 87.4629 82.4036 87.4629C82.5614 88.417 82.5456 89.371 82.33 90.3146C82.0197 90.3199 81.399 90.3251 81.0886 90.3304C80.8519 89.3868 80.7994 88.4222 80.9624 87.4629Z" fill="white"/>
<path d="M85.8379 90.3411C85.5696 89.3136 85.1067 87.2272 86.7584 87.2324C87.479 88.0659 86.9951 89.3031 87.0687 90.3096C86.7636 90.3149 86.1482 90.3306 85.8379 90.3411Z" fill="white"/>
<path d="M113.857 90.3926C111.648 90.9954 111.743 86.5396 113.952 87.457C113.952 88.4373 113.92 89.4123 113.857 90.3926Z" fill="white"/>
<path d="M118.565 90.3559C116.34 91.0374 116.434 86.5396 118.649 87.4727C118.67 88.4373 118.649 89.3966 118.565 90.3559Z" fill="white"/>
<path d="M81.0046 92.1699C81.3517 92.1699 82.0513 92.1804 82.3984 92.1804C82.6246 93.3337 82.9034 95.3782 81.1203 95.1475C80.831 94.1672 80.7836 93.1607 81.0046 92.1699Z" fill="white"/>
<path d="M85.8797 95.1426C85.6535 94.0994 85.2169 92.7102 86.211 91.9239C87.4997 91.7561 87.0684 93.4232 87.1263 94.1833C87.2999 95.0797 86.5424 95.1007 85.8797 95.1426Z" fill="white"/>
<path d="M112.327 92.2858C112.864 92.2543 113.405 92.2176 113.952 92.1914C113.952 93.156 113.931 94.1258 113.884 95.0903C111.99 95.4887 112.359 93.4967 112.327 92.2858Z" fill="white"/>
<path d="M117.024 92.4165C117.561 92.2802 118.103 92.1911 118.66 92.1387C118.487 93.0718 119.139 94.5868 118.15 95.1215C116.619 95.2263 117.129 93.3653 117.024 92.4165Z" fill="white"/>
<path d="M81.1357 99.8082C80.92 98.8069 80.3835 97.3024 81.4881 96.6523C83.0292 96.6995 82.5243 98.7492 82.3034 99.7295C82.0141 99.7505 81.4302 99.7872 81.1357 99.8082Z" fill="white"/>
<path d="M85.8642 99.7453C85.6696 98.7126 85.2015 97.4545 86.1588 96.6367C87.7946 96.6472 86.9215 98.7598 87.053 99.7715C86.7584 99.7663 86.164 99.7506 85.8642 99.7453Z" fill="white"/>
<path d="M112.39 99.5935C112.259 98.5398 112.132 95.8401 113.868 96.9724C114.042 97.9003 113.921 98.8491 113.879 99.7874C113.379 99.7193 112.885 99.6564 112.39 99.5935Z" fill="white"/>
<path d="M118.565 99.8189C116.251 100.485 116.571 95.7195 118.591 96.9305C118.749 97.8898 118.628 98.8596 118.565 99.8189Z" fill="white"/>
<path d="M143.587 106.56C156.573 110.04 169.434 113.998 182.363 117.71C182.094 118.795 181.816 119.885 181.526 120.965C175.856 119.45 170.233 117.762 164.605 116.116C164.39 115.975 163.969 115.697 163.753 115.555C163.438 114.706 163.19 113.783 162.422 113.217C162.249 113.925 162.107 114.638 161.986 115.361C155.553 113.406 149.01 111.776 142.65 109.595C142.998 108.594 143.303 107.582 143.587 106.56Z" fill="white"/>
<path d="M196.638 125.563C197.595 123.812 198.421 121.987 199.089 120.105C201.077 120.153 202.971 120.845 204.433 122.197C206.984 121.337 209.972 122.16 211.56 124.367C213.77 127.146 212.786 131.743 209.567 133.316C206.942 134.862 203.55 133.892 201.645 131.664C198.705 132.288 195.612 130.936 194.413 128.126C194.971 127.182 195.37 126.16 195.754 125.138C195.975 125.243 196.417 125.458 196.638 125.563ZM204.765 122.805C206.816 125.741 205.375 129.819 202.34 131.423C204.17 133.735 207.852 134.165 210.098 132.21C212.649 130.233 212.802 126.05 210.324 123.948C208.909 122.443 206.653 122.333 204.765 122.805Z" fill="white"/>
<path d="M138.732 132.247C139.379 130.831 141.304 132.021 141.903 132.981C141.398 134.433 139.862 134.889 138.732 135.728C139.457 136.11 140.53 136.126 140.925 136.959C139.815 136.645 138.732 136.283 137.653 135.89C138.584 134.826 140.189 134.674 141.056 133.536C141.577 131.969 139.673 132.194 138.732 132.247Z" fill="white"/>
<path d="M154.775 136.23C155.643 136.388 156.658 136.304 157.32 137.001C156.468 136.949 155.616 136.907 154.769 136.87C154.417 138.458 157.115 138.327 156.837 139.842C156.405 141.483 154.207 140.812 153.191 140.125C153.307 140 153.539 139.743 153.654 139.617C154.343 140.246 155.732 141.153 156.258 139.832C156.321 138.684 154.859 138.574 154.075 138.207C154.301 137.546 154.538 136.886 154.775 136.23Z" fill="white"/>
<path d="M165.294 138.889C166.251 139.24 167.203 139.617 168.145 140.031C167.65 140.383 167.151 140.734 166.656 141.085C166.898 141.94 167.913 142.972 166.93 143.727C165.878 144.765 164.142 143.738 163.658 142.59C164.647 143.04 165.562 144.073 166.735 143.481C167.188 142.401 166.004 141.929 165.547 141.169C166.488 141.148 166.961 140.661 166.956 139.701C166.514 139.67 165.636 139.607 165.199 139.575C165.22 139.402 165.268 139.062 165.294 138.889Z" fill="white"/>
<path d="M173.079 142.846C173.105 140.771 175.535 141.845 176.577 142.453C176.172 143.958 174.636 145.279 173.447 146.374C173.789 144.886 175.146 143.984 176.061 142.862C175.236 141.829 173.973 142.144 173.079 142.846Z" fill="white"/>
<path d="M179.649 144.922C179.733 144.398 179.386 143.523 180.243 143.518C181.306 143.712 182.337 144.047 183.373 144.356C182.231 145.709 181.243 147.261 179.765 148.267C180.075 146.647 182.095 145.976 182.268 144.356C181.637 144.251 181.006 144.141 180.385 144.037C180.133 144.33 179.891 144.624 179.649 144.922Z" fill="white"/>
<path d="M184.861 144.906C186.465 144.492 188.048 146.405 186.518 147.632C186.502 148.266 186.497 148.901 186.491 149.54C185.318 149.661 182.878 149.635 183.199 147.894C184.182 147.082 183.483 145.347 184.861 144.906ZM184.529 145.467C183.504 146.841 185.965 147.501 186.723 146.683C186.602 146.343 186.355 145.656 186.228 145.315C185.808 145.352 184.956 145.43 184.529 145.467ZM183.819 147.464C182.915 149.105 186.313 150.054 186.197 148.188C185.86 147.15 184.666 147.26 183.819 147.464Z" fill="white"/>
<path d="M188.333 147.13C188.464 145.95 189.837 146.396 190.647 146.302C192.151 147.334 191.715 149.379 190.563 150.506C189.632 150.7 188.059 151.067 187.617 149.924C188.759 150.38 190.557 150.705 190.857 149.027C189.611 149.331 187.801 148.729 188.333 147.13ZM188.717 148.262C189.453 148.608 190.195 148.634 190.947 148.335C191.541 147.345 190.426 146.883 189.774 146.506C189.027 146.852 188.432 147.345 188.717 148.262Z" fill="white"/>
<path d="M195.044 147.633C195.638 147.858 196.858 148.052 196.354 148.97C195.812 150.049 196.08 152.052 194.691 152.377C195.123 151.161 195.549 149.939 195.875 148.692C195.67 148.43 195.249 147.9 195.044 147.633Z" fill="white"/>
<path d="M168.771 150.652C167.288 150.537 168.324 149.189 168.629 148.435C180.511 152.088 192.525 155.359 204.417 158.971C204.286 159.412 204.023 160.298 203.891 160.738C192.135 157.561 180.479 154.017 168.771 150.652Z" fill="white"/>
<path d="M201.845 149.85C202.923 149.981 203.98 150.269 205.032 150.563C204.748 151.234 204.075 151.559 203.497 151.926C203.823 152.591 204.606 153.257 204.222 154.064C203.549 155.48 201.103 154.861 200.861 153.441C201.729 153.802 202.587 154.72 203.596 154.201C204.264 153.184 203.191 152.586 202.45 152.219C202.986 151.742 203.765 151.438 203.959 150.673C203.186 150.552 202.408 150.416 201.845 149.85Z" fill="white"/>
<path d="M93.0437 159.181C92.8543 157.236 96.1943 157.158 96.0997 159.103C95.7735 159.218 95.1318 159.449 94.8057 159.564C94.8636 159.202 94.9793 158.484 95.0372 158.122C94.8162 158.127 94.3639 158.127 94.143 158.133C94.2903 158.867 94.2324 159.59 93.9641 160.293C94.7058 160.371 95.4474 160.466 96.1943 160.581C95.1055 161.734 92.6965 160.937 93.0437 159.181Z" fill="white"/>
<path d="M96.7158 158.683C97.0734 156.953 100.098 157.577 99.6192 159.38C98.8829 159.406 98.1412 159.438 97.4048 159.469L97.6047 160.282C98.0833 160.334 99.0354 160.434 99.514 160.481C98.5778 162.122 95.6796 160.339 96.7158 158.683Z" fill="white"/>
<path d="M106.036 157.991C106.63 157.551 107.872 157.404 108.177 158.28C108.676 158.054 109.102 157.457 109.728 157.734C110.06 158.411 110.286 159.129 110.544 159.842C111.217 159.15 111.138 157.567 112.369 157.698C111.622 159.208 111.364 161.032 110.281 162.321C110.023 162.369 109.508 162.468 109.25 162.521C110.659 161.488 110.039 160.025 109.576 158.657C109.287 158.626 108.708 158.563 108.424 158.531C108.456 159.339 108.492 160.151 108.529 160.964C107.703 160.979 106.867 161.089 106.046 160.974C105.147 160.319 105.71 159.234 106.604 158.972C106.583 159.307 106.536 159.973 106.509 160.308C108.103 161.273 107.503 158.956 107.546 158.164C107.172 158.122 106.415 158.033 106.036 157.991Z" fill="white"/>
<path d="M184.709 157.65C190.994 158.835 197.017 161.194 203.234 162.714C203.076 163.406 202.861 164.088 202.593 164.748C196.512 162.866 190.374 161.184 184.288 159.328C184.393 158.909 184.604 158.07 184.709 157.65Z" fill="white"/>
<path d="M144.475 38.6629C147.279 38.4794 150.093 38.4637 152.907 38.4847C158.324 39.3234 163.474 41.9707 167.261 45.9338C172.016 50.7357 174.504 57.6082 174.225 64.313C173.873 72.5432 169.123 80.4799 161.912 84.5531C156.662 87.7665 150.271 88.5371 144.265 87.5883V87.5359C145.995 86.2149 144.885 83.6671 145.159 81.8114C147.92 82.0578 150.771 82.5506 153.459 81.5808C158.466 80.4222 163.363 77.366 165.315 72.4436C166.656 72.7529 166.93 71.1278 167.387 70.2419C170.664 62.6931 168.323 53.231 161.948 48.0307C158.093 44.9693 153.18 43.1502 148.225 43.4962C146.952 43.6954 145.701 44.0047 144.417 44.1305C144.422 42.3062 144.412 40.4872 144.475 38.6629Z" fill="#F0F0F0"/>
<path d="M39.4294 92.8197C44.5052 90.6495 50.3122 89.5486 55.7615 90.7229L55.7246 91.2523C55.2407 92.9875 55.3144 94.8013 55.1986 96.5836C48.0346 95.315 40.5708 97.8418 35.2951 102.727C30.819 107.54 28.2679 114.176 29.0043 120.766C29.1989 120.97 29.5934 121.379 29.788 121.584C29.7407 126.511 32.418 131.035 35.7948 134.458C38.1881 137.011 41.3651 138.689 44.6525 139.821C47.8453 140.854 51.2379 140.859 54.5622 140.948C54.6306 143.061 54.4938 145.189 54.7778 147.291C50.0702 147.962 45.1733 147.433 40.7444 145.645C32.9913 142.663 26.7162 136.136 24.0442 128.294C22.4452 123.911 22.2348 119.151 22.8029 114.559C24.2125 105.139 30.7348 96.7304 39.4294 92.8197Z" fill="#F0F0F0"/>
<path d="M145.506 133.111C145.501 134.574 143.323 134.548 143.086 135.958C143.981 136.209 144.727 135.853 145.253 135.182C145.29 135.816 145.464 136.409 145.895 136.901C145.348 137.158 144.812 137.431 144.28 137.703C144.685 136.162 142.808 136.377 141.882 135.895C142.886 134.731 144.301 134.034 145.506 133.111Z" fill="#F0F0F0"/>
<path d="M108.498 66.5989C108.882 66.5517 109.645 66.4573 110.029 66.4102C110.129 67.836 109.813 69.3982 110.713 70.6301C111.296 71.3011 110.008 71.8568 109.555 71.4112C107.988 70.3366 108.666 68.1925 108.498 66.5989Z" fill="#FF4C58"/>
<path d="M80.6307 80.255C82.4296 80.255 84.2285 80.2393 86.0274 80.2393C86.7375 81.2929 88.489 81.8014 88.0104 83.3374C85.0227 83.3689 82.0351 83.3793 79.0527 83.3322C79.5156 82.2785 80.0469 81.251 80.6307 80.255Z" fill="#FF4C58"/>
<path d="M113.368 80.26C115.241 80.2285 117.119 80.2443 118.991 80.2652C119.528 81.2717 120.043 82.2887 120.527 83.3162C117.555 83.4105 114.578 83.3214 111.601 83.3791C111.038 81.8221 112.858 81.4657 113.368 80.26Z" fill="#FF4C58"/>
<path d="M78.5215 84.9207C82.1666 84.8735 85.8117 84.9836 89.4568 84.8525C89.6567 90.6347 89.5094 96.4273 89.5357 102.209C85.8906 102.236 82.2455 102.178 78.6056 102.246C78.4426 96.4745 78.6056 90.6923 78.5215 84.9207ZM80.9621 87.4631C80.799 88.4225 80.8516 89.387 81.0883 90.3306C81.3986 90.3254 82.0193 90.3201 82.3297 90.3149C82.5453 89.3713 82.5611 88.4172 82.4033 87.4631C82.0456 87.4631 81.325 87.4631 80.9621 87.4631ZM85.838 90.3411C86.1483 90.3306 86.7638 90.3149 87.0688 90.3097C86.9952 89.3032 87.4791 88.066 86.7585 87.2325C85.1069 87.2272 85.5698 89.3136 85.838 90.3411ZM81.0042 92.1706C80.7832 93.1614 80.8306 94.1679 81.1199 95.1482C82.903 95.3789 82.6242 93.3344 82.398 92.1811C82.0509 92.1811 81.3513 92.1706 81.0042 92.1706ZM85.8801 95.143C86.5428 95.101 87.3003 95.0801 87.1267 94.1836C87.0688 93.4235 87.5001 91.7565 86.2115 91.9243C85.2173 92.7106 85.6539 94.0998 85.8801 95.143ZM81.1357 99.8085C81.4302 99.7875 82.0141 99.7508 82.3034 99.7299C82.5243 98.7496 83.0292 96.6999 81.4881 96.6527C80.3835 97.3027 80.92 98.8073 81.1357 99.8085ZM85.8643 99.7456C86.1641 99.7508 86.7585 99.7666 87.0531 99.7718C86.9216 98.7601 87.7947 96.6475 86.1589 96.637C85.2016 97.4548 85.6697 98.7129 85.8643 99.7456Z" fill="#FF4C58"/>
<path d="M187.196 70.6816C188.427 70.6816 189.705 70.9071 190.542 71.9031C190.71 72.1128 191.052 72.5374 191.22 72.7523C189.895 72.0237 188.522 71.3998 187.196 70.6816Z" fill="#B23740"/>
<path d="M140.147 97.3432C141.399 96.8032 142.724 96.2738 144.123 96.5254C151.971 98.9421 159.887 101.16 167.788 103.393C172.295 104.777 176.819 106.087 181.327 107.455C182.373 107.78 183.462 107.953 184.556 108.027C185.761 108.614 186.997 109.343 188.401 109.238C188.648 109.238 189.148 109.227 189.401 109.227C188.464 112.614 186.713 115.696 185.492 118.967C185.598 119.214 185.803 119.712 185.903 119.963C185.608 120.566 185.45 121.609 184.572 121.578C178.47 122.092 172.369 120.781 166.573 118.988C165.158 118.642 164.421 117.321 163.722 116.184L164.605 116.115C170.233 117.762 175.856 119.45 181.526 120.965C181.816 119.885 182.095 118.794 182.363 117.709C169.434 113.998 156.573 110.04 143.587 106.559C143.303 107.581 142.998 108.593 142.65 109.594C149.01 111.775 155.553 113.405 161.986 115.361C162.259 116.42 162.507 117.484 162.722 118.558C159.845 117.908 157.462 115.749 154.448 115.649C155.306 117.835 158.383 117.714 159.393 119.801C156.831 119.549 154.896 117.531 152.344 117.222C153.302 119.712 156.452 119.827 158.267 121.426L158.036 121.788C156.542 121.253 155.132 120.514 153.754 119.738C152.402 118.637 150.588 118.543 148.994 118.003C145.938 117.18 142.945 116.084 139.836 115.497C138.553 115.874 138.506 117.457 138.148 118.501C138.059 118.815 137.98 119.13 137.901 119.444C137.622 120.467 137.322 121.489 137.007 122.5C136.943 122.7 136.817 123.098 136.754 123.297C136.391 124.288 136.302 125.337 136.333 126.385C139.784 127.68 143.376 128.529 146.895 129.598C148.163 129.944 149.446 130.421 150.788 130.306C151.782 128.969 151.961 127.239 152.486 125.698C152.539 125.504 152.634 125.127 152.686 124.933C152.786 124.482 152.997 123.58 153.102 123.13C156.516 124.964 160.508 125.043 163.99 126.689C170.407 129.163 177.124 131.203 184.035 131.522C187.749 131.722 191.725 130.851 194.413 128.125C195.613 130.935 198.705 132.288 201.646 131.664C203.55 133.892 206.942 134.862 209.567 133.315C212.786 131.742 213.77 127.145 211.561 124.367C209.972 122.16 206.984 121.337 204.433 122.196C202.971 120.844 201.078 120.152 199.089 120.105C199.873 117.798 200.541 115.46 201.088 113.091C206.401 114.737 211.76 116.247 217.099 117.814C219.098 118.548 220.576 120.965 219.782 123.051C215.421 137.703 211.203 152.397 206.895 167.064C206.395 169.014 204.407 170.425 202.403 170.236C199.584 169.675 196.88 168.663 194.113 167.893C190.9 167.017 187.712 166.074 184.509 165.172C184.288 165.109 183.846 164.978 183.62 164.915C180.979 164.197 178.381 163.348 175.741 162.624C171.943 161.492 168.124 160.412 164.327 159.264C157.51 157.361 150.73 155.311 143.918 153.387C142.577 153.01 141.241 152.601 139.905 152.208C136.475 151.217 133.062 150.174 129.616 149.241C128.291 148.905 127.007 148.177 126.371 146.924C125.508 145.524 125.977 143.82 126.392 142.363C128.533 135.25 130.547 128.104 132.714 121.006C133.561 118.018 134.492 115.057 135.297 112.058C136.391 108.153 137.564 104.268 138.684 100.373C138.984 99.2828 139.558 98.2973 140.147 97.3432ZM135.707 130.505C135.928 130.951 136.296 131.229 136.807 131.344C136.386 132.744 135.939 134.149 135.728 135.595C136.996 134.51 136.917 132.555 137.569 131.087C136.964 130.841 136.354 130.61 135.707 130.505ZM138.732 132.246C139.673 132.193 141.577 131.968 141.057 133.535C140.189 134.673 138.585 134.825 137.654 135.889C138.732 136.282 139.815 136.644 140.925 136.958C140.531 136.125 139.458 136.109 138.732 135.727C139.863 134.888 141.399 134.432 141.904 132.98C141.304 132.02 139.379 130.83 138.732 132.246ZM145.507 133.111C144.302 134.033 142.887 134.731 141.883 135.894C142.808 136.377 144.686 136.162 144.281 137.703C144.812 137.43 145.349 137.158 145.896 136.901C145.464 136.408 145.291 135.816 145.254 135.181C144.728 135.852 143.981 136.209 143.087 135.957C143.324 134.547 145.501 134.573 145.507 133.111ZM152.213 135.166C151.077 136.073 149.788 136.801 148.784 137.871C149.762 138.29 151.682 138.175 151.187 139.753C151.692 139.422 152.176 139.061 152.744 138.84C152.497 138.316 152.318 137.766 152.145 137.226C151.492 137.656 150.861 138.358 149.962 137.975C150.209 136.817 151.487 136.471 152.329 135.847C152.302 135.674 152.245 135.333 152.213 135.166ZM154.775 136.23C154.538 136.885 154.301 137.546 154.075 138.206C154.859 138.573 156.321 138.683 156.258 139.831C155.732 141.152 154.343 140.245 153.654 139.616C153.538 139.742 153.307 139.999 153.191 140.125C154.206 140.811 156.405 141.482 156.836 139.842C157.115 138.327 154.417 138.458 154.769 136.869C155.616 136.906 156.468 136.948 157.32 137C156.658 136.303 155.642 136.387 154.775 136.23ZM159.004 142.164C159.94 142.557 161.449 142.028 161.281 140.832C161.344 139.443 159.556 139.396 158.577 139.37C159.067 137.666 160.629 137.913 161.86 138.61C161.691 137.991 161.071 137.74 160.524 137.572C158.193 136.995 156.658 141.262 159.004 142.164ZM165.294 138.888C165.268 139.061 165.221 139.401 165.2 139.574C165.636 139.606 166.515 139.669 166.957 139.7C166.962 140.659 166.488 141.147 165.547 141.168C166.004 141.928 167.188 142.4 166.736 143.48C165.563 144.072 164.647 143.039 163.659 142.589C164.142 143.737 165.878 144.764 166.93 143.726C167.914 142.971 166.899 141.939 166.657 141.084C167.151 140.733 167.651 140.382 168.145 140.03C167.204 139.616 166.252 139.239 165.294 138.888ZM169.544 145.299C170.523 145.666 171.995 145.257 171.853 143.978C171.98 142.547 170.181 142.489 169.187 142.484C169.665 140.948 171.164 140.874 172.316 141.718C172.411 140.89 171.454 140.78 170.854 140.612C168.65 140.576 167.546 144.208 169.544 145.299ZM173.079 142.845C173.973 142.143 175.236 141.828 176.061 142.861C175.146 143.983 173.789 144.885 173.447 146.373C174.636 145.278 176.172 143.957 176.577 142.452C175.535 141.844 173.105 140.77 173.079 142.845ZM179.649 144.921C179.891 144.623 180.133 144.329 180.385 144.035C181.006 144.14 181.637 144.25 182.268 144.355C182.095 145.975 180.075 146.646 179.764 148.266C181.242 147.259 182.231 145.708 183.373 144.355C182.336 144.046 181.306 143.71 180.243 143.516C179.386 143.522 179.733 144.397 179.649 144.921ZM184.861 144.906C183.483 145.346 184.183 147.081 183.199 147.894C182.878 149.634 185.319 149.66 186.492 149.54C186.497 148.9 186.502 148.266 186.518 147.632C188.049 146.405 186.466 144.491 184.861 144.906ZM188.333 147.128C187.802 148.727 189.611 149.33 190.858 149.026C190.558 150.703 188.759 150.378 187.617 149.922C188.059 151.065 189.632 150.698 190.563 150.504C191.715 149.377 192.151 147.333 190.647 146.3C189.837 146.394 188.464 145.949 188.333 147.128ZM195.044 147.632C195.25 147.899 195.67 148.428 195.875 148.69C195.549 149.938 195.123 151.16 194.692 152.376C196.081 152.051 195.812 150.048 196.354 148.968C196.859 148.051 195.639 147.857 195.044 147.632ZM168.771 150.651C180.48 154.017 192.136 157.56 203.892 160.737C204.023 160.297 204.286 159.411 204.418 158.97C192.525 155.359 180.511 152.087 168.629 148.434C168.324 149.189 167.288 150.536 168.771 150.651ZM197.874 148.832C197.88 148.984 197.895 149.288 197.906 149.445C198.674 149.576 200.362 148.932 200.162 150.347C199.536 151.747 197.611 151.893 196.643 153.052C197.701 153.414 198.779 153.744 199.894 153.917C199.494 153.157 198.526 153.199 197.853 152.905C198.611 151.831 200.657 151.857 200.73 150.321C200.815 148.837 198.916 148.827 197.874 148.832ZM201.845 149.849C202.408 150.415 203.187 150.551 203.96 150.672C203.765 151.437 202.987 151.741 202.45 152.218C203.192 152.585 204.265 153.183 203.597 154.2C202.587 154.719 201.73 153.802 200.862 153.44C201.104 154.861 203.55 155.479 204.223 154.064C204.607 153.256 203.823 152.591 203.497 151.925C204.076 151.558 204.749 151.233 205.033 150.562C203.981 150.268 202.924 149.98 201.845 149.849ZM184.709 157.649C184.604 158.069 184.393 158.908 184.288 159.327C190.374 161.183 196.512 162.865 202.592 164.747C202.861 164.087 203.076 163.405 203.234 162.713C197.017 161.193 190.994 158.834 184.709 157.649Z" fill="#B23740"/>
<path d="M204.765 122.804C206.653 122.333 208.909 122.443 210.324 123.947C212.802 126.049 212.649 130.233 210.098 132.209C207.852 134.164 204.17 133.734 202.34 131.423C205.375 129.818 206.816 125.74 204.765 122.804Z" fill="#B23740"/>
<path d="M160.234 141.719C158.746 142.379 157.736 140.393 159.167 139.538C160.061 139.79 161.528 140.901 160.234 141.719Z" fill="#B23740"/>
<path d="M169.608 144.738C168.609 144.392 169.245 143.286 169.666 142.751C170.197 143.076 171.507 143.034 171.27 144.004C171.417 144.9 170.192 145.236 169.608 144.738Z" fill="#B23740"/>
<path d="M184.529 145.466C184.956 145.43 185.808 145.351 186.228 145.314C186.355 145.655 186.602 146.342 186.723 146.683C185.965 147.5 183.504 146.84 184.529 145.466Z" fill="#B23740"/>
<path d="M188.717 148.261C188.433 147.344 189.027 146.851 189.774 146.505C190.426 146.882 191.541 147.344 190.947 148.334C190.195 148.633 189.453 148.607 188.717 148.261Z" fill="#B23740"/>
<path d="M183.819 147.464C184.666 147.26 185.86 147.15 186.197 148.187C186.313 150.054 182.915 149.105 183.819 147.464Z" fill="#B23740"/>
<path d="M192.872 74.3203C195.46 74.4094 196.412 77.5862 195.765 79.7198C194.539 78.2782 193.877 76.4801 192.956 74.855L192.872 74.3203Z" fill="#0B0E10"/>
<path d="M182.257 75.2275C183.251 76.3232 183.556 77.8958 184.745 78.8394C185.791 79.8878 187.212 80.3911 188.6 80.8C188.874 83.8824 188.984 86.9805 189.405 90.0472C189.468 92.0288 189.463 94.0103 189.358 95.9866C189.31 96.3116 189.216 96.9564 189.168 97.2814C188.353 101.349 181.589 101.648 180.226 97.8581C179.985 95.6983 180.084 93.5333 180.053 91.3735C178.144 91.2739 176.481 89.6803 176.355 87.7721C176.208 85.4813 176.224 83.1747 176.313 80.8839C178.191 80.3387 180.011 79.6205 181.815 78.8866C182.062 77.6809 182.094 76.4437 182.257 75.2275ZM182.346 80.9992C182.288 81.2351 182.178 81.6964 182.12 81.9271C182.404 81.9585 182.977 82.0214 183.261 82.0529C183.256 81.7016 183.235 80.9992 183.23 80.648C183.009 80.7371 182.567 80.9153 182.346 80.9992ZM178.769 85.2034C179.006 85.3659 179.485 85.691 179.727 85.8535C179.869 84.3856 180.106 82.9388 180.3 81.4815C179.38 82.5037 178.964 83.8667 178.769 85.2034ZM179.806 87.3527C180.726 87.3003 182.231 87.2164 181.962 85.9006C181.126 86.2361 179.548 86.0317 179.806 87.3527Z" fill="#F4BBAC"/>
<path d="M162.422 113.218C163.19 113.784 163.437 114.707 163.753 115.556C163.968 115.697 164.389 115.975 164.605 116.117L163.721 116.185C164.421 117.322 165.157 118.643 166.572 118.989C172.369 120.782 178.47 122.093 184.572 121.579C185.45 121.611 185.608 120.567 185.902 119.964C189.269 121.532 192.477 123.398 195.754 125.139C195.37 126.161 194.97 127.183 194.413 128.127C191.725 130.853 187.749 131.723 184.035 131.524C177.124 131.204 170.407 129.165 163.99 126.69C160.507 125.044 156.515 124.966 153.101 123.131C153.396 122.565 153.706 122.004 154.027 121.448C153.407 120.887 151.776 120.898 152.118 119.713C152.528 119.723 153.343 119.734 153.754 119.739C155.132 120.515 156.541 121.254 158.035 121.789L158.267 121.427C156.452 119.828 153.301 119.713 152.344 117.223C154.895 117.532 156.831 119.55 159.392 119.802C158.382 117.716 155.305 117.836 154.448 115.65C157.462 115.75 159.845 117.91 162.722 118.56C162.506 117.485 162.259 116.421 161.986 115.362C162.106 114.638 162.248 113.925 162.422 113.218Z" fill="#F4BBAC"/>
<path d="M87.9736 78.8026C95.4269 78.5142 102.917 78.7816 110.381 78.6715C111.533 78.4094 111.854 79.2062 111.564 80.2127C103.732 80.2389 95.9056 80.2075 88.0736 80.2284C88.0473 79.872 87.9999 79.159 87.9736 78.8026Z" fill="#FF3543"/>
<path d="M103.138 157.257C103.89 156.723 104.663 158.038 103.948 158.536C103.117 159.26 102.36 157.761 103.138 157.257Z" fill="#FF3543"/>
<path d="M89.4883 81.822C96.2315 81.8325 102.98 81.7853 109.718 81.8378L110.049 82.0265C110.039 82.3567 110.023 83.0225 110.012 83.3527C103.238 83.3685 96.4629 83.2846 89.6934 83.3947C89.6198 82.8705 89.5514 82.341 89.4883 81.822Z" fill="#FF3E4B"/>
<path d="M178.771 85.2034C178.965 83.8666 179.381 82.5037 180.301 81.4814C180.107 82.9388 179.87 84.3856 179.728 85.8534C179.486 85.6909 179.007 85.3659 178.771 85.2034Z" fill="#BC978E"/>
<path d="M191.662 82.4453C193.498 81.832 193.961 84.9196 192.604 85.6902C192.63 85.9209 192.683 86.3822 192.704 86.6128C192.104 86.6233 191.51 86.6338 190.921 86.6548C190.458 85.2813 190.032 83.2054 191.662 82.4453ZM191.357 85.7426L191.342 86.1306C192.441 86.9431 192.446 84.8043 191.357 85.7426Z" fill="#FBC0B0"/>
<path d="M132.483 111.021C133.519 111.021 134.418 111.566 135.297 112.058C134.492 115.057 133.561 118.019 132.714 121.007C132.683 120.629 132.63 119.88 132.604 119.502C131.867 119.083 131.041 118.716 130.668 117.904C131.62 118.003 132.588 118.035 133.54 117.914C132.341 116.824 130.279 116.771 129.605 115.167C130.847 115.309 132.078 115.508 133.314 115.718C132.209 114.737 130.242 114.203 130.252 112.462C131.704 113.039 133.082 113.809 134.608 114.197C134.802 112.53 132.083 112.651 132.483 111.021Z" fill="#FBC0B0"/>
<path d="M179.806 87.3525C179.549 86.0314 181.127 86.2359 181.963 85.9004C182.231 87.2162 180.727 87.3 179.806 87.3525Z" fill="#FEE6E7"/>
<path d="M167.787 103.394C170.396 99.247 174.888 96.3323 179.832 96.0492C179.932 97.905 180.905 100.143 182.972 100.437C185.376 101.103 188.848 100.101 189.169 97.2812C189.216 96.9561 189.311 96.3113 189.358 95.9863C190.121 95.9916 190.894 95.9968 191.662 96.023C192.051 96.9037 192.403 97.8054 192.809 98.6861C191.956 98.7542 191.104 98.8276 190.263 98.901C190.378 99.9442 190.51 100.982 190.647 102.025C189.642 101.695 188.643 101.37 187.643 101.04C187.365 101.936 187.138 102.843 186.886 103.745C186.102 103.116 185.324 102.487 184.566 101.837C183.725 102.429 182.894 103.021 182.078 103.635C181.815 102.817 181.668 101.947 181.195 101.218C180.311 101.291 179.469 101.569 178.623 101.795C178.749 100.966 179.07 100.138 178.98 99.2889C178.033 98.7647 177.018 98.3873 175.998 98.0413C176.282 99.1369 177.365 99.3256 178.317 99.5772C178.123 100.652 177.897 101.721 177.655 102.785C178.659 102.576 179.669 102.382 180.684 102.177C180.963 103.069 181.247 103.96 181.542 104.851C182.573 104.243 183.562 103.567 184.508 102.827C185.429 103.593 186.36 104.342 187.317 105.061C187.543 104.096 187.764 103.137 187.964 102.167C189.084 102.445 190.205 102.712 191.33 102.969C191.241 101.831 191.152 100.694 191.036 99.5615C192.056 99.5405 193.077 99.5143 194.102 99.4986C193.608 98.3768 193.177 97.2235 192.756 96.0754C193.503 96.1121 194.26 96.1384 195.012 96.1541C198.505 97.0453 201.361 100.012 201.84 103.619C202.387 106.77 201.687 109.993 201.088 113.092C200.541 115.461 199.873 117.799 199.089 120.106C198.421 121.988 197.595 123.812 196.638 125.563C196.417 125.458 195.975 125.243 195.754 125.138C192.477 123.398 189.269 121.532 185.902 119.964C185.802 119.712 185.597 119.214 185.492 118.968C186.328 117.453 187.159 115.922 187.701 114.266C188.448 115.105 188.874 116.143 189.237 117.196C190.463 116.19 191.404 114.601 192.977 114.166C194.05 115.22 194.644 116.714 195.849 117.626C197.432 116.399 197.653 113.815 199.61 113.139C199.468 113.023 199.184 112.793 199.047 112.677C197.9 114.192 197.148 116.017 195.654 117.254C194.755 116.032 193.85 114.816 192.956 113.6C191.63 114.554 190.447 115.681 189.195 116.719C188.985 115.666 188.8 114.57 188.122 113.694C188.895 111.965 189.19 110.062 189.816 108.316C191.215 107.923 192.782 109.102 194.292 109.223C194.192 107.535 194.129 105.847 194.123 104.159C195.649 104.458 197.137 104.909 198.579 105.496C198.352 103.755 197.863 102.073 197.458 100.369C197.905 100.322 198.794 100.233 199.241 100.185C198.589 100.191 197.932 100.201 197.285 100.217C197.574 101.837 197.99 103.435 198.405 105.034C196.874 104.636 195.365 104.143 193.824 103.792C193.855 105.454 193.934 107.116 194.123 108.772C192.735 108.573 190.263 108.762 189.979 107.021C189.6 107.855 189.079 108.62 188.401 109.239C186.996 109.343 185.76 108.615 184.556 108.028C183.462 107.954 182.373 107.781 181.326 107.456C176.818 106.088 172.295 104.777 167.787 103.394Z" fill="#F8633A"/>
<path d="M191.662 96.0225C191.936 96.0382 192.483 96.0644 192.756 96.0749C193.177 97.2229 193.608 98.3762 194.103 99.498C193.077 99.5138 192.057 99.54 191.036 99.5609C191.152 100.693 191.241 101.831 191.331 102.968C190.205 102.711 189.085 102.444 187.964 102.166C187.764 103.136 187.544 104.095 187.317 105.06C186.36 104.342 185.429 103.592 184.509 102.827C183.562 103.566 182.573 104.242 181.542 104.85C181.247 103.959 180.963 103.068 180.685 102.177C179.669 102.381 178.66 102.575 177.655 102.785C177.897 101.721 178.123 100.651 178.318 99.5767C177.366 99.325 176.282 99.1363 175.998 98.0407C177.018 98.3867 178.034 98.7641 178.98 99.2883C179.07 100.138 178.749 100.966 178.623 101.794C179.47 101.569 180.311 101.291 181.195 101.217C181.668 101.946 181.816 102.816 182.079 103.634C182.894 103.021 183.725 102.428 184.566 101.836C185.324 102.486 186.102 103.115 186.886 103.744C187.139 102.843 187.365 101.936 187.643 101.039C188.643 101.369 189.642 101.695 190.647 102.025C190.51 100.982 190.379 99.9436 190.263 98.9004C191.105 98.827 191.957 98.7536 192.809 98.6855C192.404 97.8048 192.051 96.9031 191.662 96.0225Z" fill="#B1604B"/>
<path d="M197.285 100.217C197.932 100.201 198.589 100.191 199.242 100.186C198.795 100.233 197.906 100.322 197.458 100.369C197.864 102.073 198.353 103.755 198.579 105.496C197.138 104.909 195.649 104.458 194.124 104.159C194.129 105.847 194.192 107.535 194.292 109.223C192.782 109.103 191.215 107.923 189.816 108.316C189.19 110.062 188.895 111.965 188.122 113.695C188.801 114.57 188.985 115.666 189.195 116.719C190.447 115.681 191.63 114.554 192.956 113.6C193.85 114.817 194.755 116.033 195.654 117.254C197.148 116.017 197.9 114.193 199.047 112.678C199.184 112.793 199.468 113.024 199.61 113.139C197.653 113.815 197.432 116.4 195.849 117.626C194.644 116.714 194.05 115.22 192.977 114.166C191.404 114.602 190.463 116.19 189.237 117.196C188.874 116.143 188.448 115.105 187.701 114.266C187.16 115.923 186.329 117.453 185.492 118.968C186.712 115.697 188.464 112.615 189.4 109.228C189.148 109.228 188.648 109.239 188.401 109.239C189.079 108.62 189.6 107.855 189.979 107.021C190.263 108.762 192.735 108.573 194.124 108.772C193.934 107.116 193.855 105.454 193.824 103.792C195.365 104.143 196.875 104.636 198.405 105.035C197.99 103.436 197.574 101.837 197.285 100.217Z" fill="#184982"/>
<path d="M164.327 159.265C168.124 160.413 171.943 161.493 175.741 162.625C176.072 172.008 175.878 181.45 177.345 190.755C176.619 190.367 175.935 189.905 175.325 189.36C171.18 185.837 166.952 182.372 163.327 178.299C162.291 177.041 161.166 175.584 161.302 173.864C161.586 168.868 163.196 164.093 164.327 159.265Z" fill="#184982"/>
<path d="M183.62 164.916C183.847 164.979 184.288 165.11 184.509 165.173L183.778 165.32C183.72 166.594 183.736 167.878 183.894 169.152C184.536 173.172 184.078 177.272 184.767 181.287C185.425 194.587 187.181 207.808 188.055 221.081C187.339 217.443 187.202 213.726 186.624 210.067C185.467 197.842 184.283 185.607 183.736 173.345C184.136 170.52 182.847 167.679 183.62 164.916Z" fill="#184982"/>
<path d="M193.277 180.066C193.225 180.979 193.23 181.901 193.346 182.819C193.435 183.018 193.619 183.421 193.714 183.621C197.422 186.645 201.251 189.529 204.896 192.627C204.502 193.161 204.113 193.701 203.729 194.247C201.851 196.941 199.973 199.63 198.074 202.304C197.38 203.247 196.849 204.327 195.934 205.082C195.334 204.658 195.187 203.95 195.134 203.263C194.671 199.012 194.119 194.771 193.688 190.519C193.104 187.07 192.825 183.547 193.277 180.066Z" fill="#184982"/>
<path d="M77.4854 103.86C80.9569 103.645 84.4337 103.881 87.9052 103.719C87.9263 104.117 87.9684 104.914 87.9894 105.312C84.7177 105.297 81.4408 105.381 78.1744 105.281C77.4275 105.202 77.6852 104.343 77.4854 103.86Z" fill="#FF4955"/>
<path d="M89.499 103.902C96.3001 103.572 103.127 103.928 109.934 103.719C110.065 104.526 110.06 105.339 109.902 106.141C103.112 105.947 96.3106 106.261 89.5253 105.983C89.5201 105.464 89.5095 104.421 89.499 103.902Z" fill="#FF4955"/>
<path d="M111.538 103.766C114.968 103.776 118.397 103.776 121.832 103.766C121.842 104.133 121.874 104.856 121.89 105.218C118.749 105.427 115.593 105.281 112.448 105.317C111.396 105.595 111.617 104.363 111.538 103.766Z" fill="#FF4955"/>
<path d="M74.6712 134.112C81.6563 133.84 88.6678 134.092 95.6688 133.987C96.3631 134.081 97.9253 133.693 97.6149 134.888C97.3993 134.935 96.9627 135.03 96.747 135.072C89.3253 135.061 81.8983 135.14 74.4766 135.03C74.5292 134.799 74.6238 134.343 74.6712 134.112Z" fill="#6B7377"/>
<path d="M89.9511 156.565C90.8453 156.455 91.7447 156.444 92.6495 156.481C92.7546 157.865 90.6191 156.701 90.7822 158.122C91.324 158.656 92.3759 158.342 92.66 159.196C92.2444 159.233 91.4186 159.296 91.0031 159.327C90.8453 159.904 90.9505 161.665 89.8985 160.895C89.7986 159.453 89.8827 158.006 89.9511 156.565Z" fill="#FFD0D3"/>
<path d="M102.044 156.618C103.233 156.193 105.426 156.424 105.126 158.159C105.163 159.228 103.901 159.307 103.122 159.438C103.043 160.02 102.991 161.776 102.017 160.853C101.939 159.443 102.023 158.028 102.044 156.618ZM103.138 157.257C102.359 157.76 103.117 159.26 103.948 158.536C104.663 158.038 103.89 156.722 103.138 157.257Z" fill="#FFD4D6"/>
<path d="M175.74 162.625C178.381 163.348 180.979 164.198 183.62 164.916C182.846 167.678 184.135 170.52 183.735 173.345C184.282 185.607 185.466 197.842 186.623 210.067C187.202 213.726 187.338 217.443 188.054 221.081C187.181 207.807 185.424 194.587 184.766 181.287C184.077 177.272 184.535 173.172 183.893 169.152C183.735 167.878 183.72 166.593 183.777 165.319L184.508 165.173C187.712 166.074 190.899 167.018 194.113 167.893C193.608 171.935 193.866 176.029 193.277 180.066C192.824 183.547 193.103 187.069 193.687 190.519C194.118 194.77 194.671 199.011 195.134 203.263C195.186 203.949 195.333 204.657 195.933 205.082C195.77 205.097 195.444 205.123 195.281 205.134C196.249 210.775 196.543 216.504 197.506 222.145C192.13 222.842 186.691 222.549 181.3 222.323C180.427 211.755 178.712 201.27 177.345 190.755C175.877 181.45 176.072 172.009 175.74 162.625Z" fill="#2C79E8"/>
<path d="M181.568 222.354C185.003 222.732 188.459 222.7 191.915 222.669C193.514 222.548 195.113 223.172 196.685 222.685C198.074 223.031 197.516 224.986 197.9 226.019C197.111 225.966 196.328 225.935 195.544 225.924C195.313 225.919 194.844 225.903 194.608 225.898C191.862 225.841 189.116 225.668 186.376 225.552C184.819 225.421 183.257 225.411 181.7 225.374C181.653 224.368 181.605 223.356 181.568 222.354Z" fill="#2C79E8"/>
<path d="M204.433 198.896C204.265 197.748 203.939 196.469 204.922 195.572C205.101 196.589 205.306 197.611 205.58 198.613C203.686 201.464 201.619 204.201 199.504 206.895C198.673 207.897 197.905 209.034 196.69 209.606C196.706 208.772 196.906 207.97 197.232 207.21C198.279 206.696 199.057 205.847 199.531 204.793C199.231 204.767 198.631 204.72 198.332 204.699C198.642 203.913 198.879 203.1 199.121 202.293C199.241 202.162 199.489 201.894 199.61 201.758C199.657 202.633 199.71 203.514 199.778 204.395C201.498 202.707 202.76 200.626 204.433 198.896Z" fill="#A74048"/>
<path d="M198.332 204.699C198.632 204.72 199.231 204.767 199.531 204.794C199.058 205.847 198.279 206.697 197.232 207.21C197.569 206.361 197.89 205.501 198.332 204.699Z" fill="#FF4D59"/>
<path d="M186.376 225.553C189.117 225.668 191.862 225.841 194.608 225.899C193.451 226.727 192.53 228.331 190.879 227.912C187.276 227.492 183.673 228.011 180.064 227.927C181.921 226.465 184.693 227.12 186.376 225.553Z" fill="#FF4D59"/>
<path d="M38.5879 206.376L38.7719 206.308L39.219 206.13C40.0028 211.225 40.8917 216.368 40.5077 221.547C40.4025 222.328 40.4814 223.225 39.9081 223.864C39.7345 218.051 39.3558 212.227 38.1934 206.502L38.5879 206.376Z" fill="#0B0F10"/>
<path d="M194.608 225.898C194.845 225.904 195.313 225.919 195.544 225.925L195.57 226.171C194.755 226.58 194.098 227.246 193.398 227.817C194.14 227.98 194.887 228.147 195.644 228.289C195.029 228.409 194.413 228.53 193.808 228.651C192.225 228.729 190.631 228.719 189.053 228.645C185.987 228.2 182.889 228.656 179.817 228.399L179.522 227.927H180.064C183.673 228.011 187.276 227.492 190.879 227.911C192.53 228.331 193.451 226.727 194.608 225.898Z" fill="#8D3C46"/>
<path d="M177.734 228.33C178.365 228.383 178.975 228.252 179.522 227.927L179.817 228.399L180.043 228.755C168.214 229.043 156.379 228.849 144.544 228.933C112.827 228.923 81.1042 228.959 49.3869 228.907C35.0116 228.839 20.631 228.76 6.25564 228.797C5.36146 228.807 4.47253 228.734 3.58887 228.608C57.5871 227.984 111.601 228.32 165.605 228.257C169.65 228.257 173.689 228.273 177.734 228.33Z" fill="#0F1416"/>
<path d="M179.816 228.398C182.888 228.655 185.986 228.199 189.053 228.645C186.081 229.122 183.03 228.965 180.043 228.755L179.816 228.398Z" fill="#943034"/>
<path d="M193.809 228.65C194.413 228.53 195.029 228.409 195.644 228.289L195.834 228.283C202.603 228.126 209.378 228.43 216.153 228.446C216.863 228.446 217.61 228.42 218.283 228.713C214.401 228.792 210.525 228.928 206.648 228.876C202.372 228.923 198.059 229.232 193.809 228.65Z" fill="#080C0F"/>
<rect x="77" y="151" width="48" height="15" rx="2" fill="#C4C4C4"/>
<rect x="77" y="151" width="48" height="15" rx="2" fill="url(#paint16_linear_119_908)"/>
<path d="M97.872 155.44V156.184H95.512V157.824H97.352V158.568H95.512V161H94.6V155.44H97.872ZM102.757 158.688C102.757 158.853 102.747 159.003 102.725 159.136H99.3572C99.3839 159.488 99.5145 159.771 99.7492 159.984C99.9839 160.197 100.272 160.304 100.613 160.304C101.104 160.304 101.451 160.099 101.653 159.688H102.637C102.504 160.093 102.261 160.427 101.909 160.688C101.563 160.944 101.131 161.072 100.613 161.072C100.192 161.072 99.8132 160.979 99.4772 160.792C99.1465 160.6 98.8852 160.333 98.6932 159.992C98.5065 159.645 98.4132 159.245 98.4132 158.792C98.4132 158.339 98.5039 157.941 98.6852 157.6C98.8719 157.253 99.1305 156.987 99.4612 156.8C99.7972 156.613 100.181 156.52 100.613 156.52C101.029 156.52 101.4 156.611 101.725 156.792C102.051 156.973 102.304 157.229 102.485 157.56C102.667 157.885 102.757 158.261 102.757 158.688ZM101.805 158.4C101.8 158.064 101.68 157.795 101.445 157.592C101.211 157.389 100.92 157.288 100.573 157.288C100.259 157.288 99.9892 157.389 99.7652 157.592C99.5412 157.789 99.4079 158.059 99.3652 158.4H101.805ZM107.695 158.688C107.695 158.853 107.684 159.003 107.663 159.136H104.295C104.321 159.488 104.452 159.771 104.687 159.984C104.921 160.197 105.209 160.304 105.551 160.304C106.041 160.304 106.388 160.099 106.591 159.688H107.575C107.441 160.093 107.199 160.427 106.847 160.688C106.5 160.944 106.068 161.072 105.551 161.072C105.129 161.072 104.751 160.979 104.415 160.792C104.084 160.6 103.823 160.333 103.631 159.992C103.444 159.645 103.351 159.245 103.351 158.792C103.351 158.339 103.441 157.941 103.623 157.6C103.809 157.253 104.068 156.987 104.399 156.8C104.735 156.613 105.119 156.52 105.551 156.52C105.967 156.52 106.337 156.611 106.663 156.792C106.988 156.973 107.241 157.229 107.423 157.56C107.604 157.885 107.695 158.261 107.695 158.688ZM106.743 158.4C106.737 158.064 106.617 157.795 106.383 157.592C106.148 157.389 105.857 157.288 105.511 157.288C105.196 157.288 104.927 157.389 104.703 157.592C104.479 157.789 104.345 158.059 104.303 158.4H106.743Z" fill="white"/>
</g>
<defs>
<linearGradient id="paint0_linear_119_908" x1="145.012" y1="18.2021" x2="145.012" y2="23.8294" gradientUnits="userSpaceOnUse">
<stop stop-color="#E20B69"/>
<stop offset="1" stop-color="#B30184"/>
</linearGradient>
<linearGradient id="paint1_linear_119_908" x1="153.289" y1="26.7578" x2="153.289" y2="30.2544" gradientUnits="userSpaceOnUse">
<stop stop-color="#E20B69"/>
<stop offset="1" stop-color="#B30184"/>
</linearGradient>
<linearGradient id="paint2_linear_119_908" x1="42.3119" y1="59.165" x2="42.3119" y2="62.6196" gradientUnits="userSpaceOnUse">
<stop stop-color="#E20B69"/>
<stop offset="1" stop-color="#B30184"/>
</linearGradient>
<linearGradient id="paint3_linear_119_908" x1="99.8471" y1="62.3008" x2="99.8471" y2="67.5939" gradientUnits="userSpaceOnUse">
<stop stop-color="#E20B69"/>
<stop offset="1" stop-color="#B30184"/>
</linearGradient>
<linearGradient id="paint4_linear_119_908" x1="99.7734" y1="67.5781" x2="99.7734" y2="72.366" gradientUnits="userSpaceOnUse">
<stop stop-color="#E20B69"/>
<stop offset="1" stop-color="#B30184"/>
</linearGradient>
<linearGradient id="paint5_linear_119_908" x1="48.5952" y1="71.1328" x2="48.5952" y2="76.915" gradientUnits="userSpaceOnUse">
<stop stop-color="#E20B69"/>
<stop offset="1" stop-color="#B30184"/>
</linearGradient>
<linearGradient id="paint6_linear_119_908" x1="99.65" y1="73.9131" x2="99.65" y2="77.0912" gradientUnits="userSpaceOnUse">
<stop stop-color="#E20B69"/>
<stop offset="1" stop-color="#B30184"/>
</linearGradient>
<linearGradient id="paint7_linear_119_908" x1="99.8032" y1="84.8672" x2="99.8032" y2="102.256" gradientUnits="userSpaceOnUse">
<stop stop-color="#E20B69"/>
<stop offset="1" stop-color="#B30184"/>
</linearGradient>
<linearGradient id="paint8_linear_119_908" x1="115.551" y1="84.8672" x2="115.551" y2="102.261" gradientUnits="userSpaceOnUse">
<stop stop-color="#E20B69"/>
<stop offset="1" stop-color="#B30184"/>
</linearGradient>
<linearGradient id="paint9_linear_119_908" x1="99.8185" y1="93.4883" x2="99.8185" y2="102.224" gradientUnits="userSpaceOnUse">
<stop stop-color="#E20B69"/>
<stop offset="1" stop-color="#B30184"/>
</linearGradient>
<linearGradient id="paint10_linear_119_908" x1="18.2026" y1="140.477" x2="18.2026" y2="198.292" gradientUnits="userSpaceOnUse">
<stop stop-color="#E20B69"/>
<stop offset="1" stop-color="#B30184"/>
</linearGradient>
<linearGradient id="paint11_linear_119_908" x1="101.063" y1="151.228" x2="101.063" y2="165.642" gradientUnits="userSpaceOnUse">
<stop stop-color="#E20B69"/>
<stop offset="1" stop-color="#B30184"/>
</linearGradient>
<linearGradient id="paint12_linear_119_908" x1="38.7826" y1="152.083" x2="38.7826" y2="206.308" gradientUnits="userSpaceOnUse">
<stop stop-color="#E20B69"/>
<stop offset="1" stop-color="#B30184"/>
</linearGradient>
<linearGradient id="paint13_linear_119_908" x1="21.5538" y1="188.947" x2="21.5538" y2="207.285" gradientUnits="userSpaceOnUse">
<stop stop-color="#E20B69"/>
<stop offset="1" stop-color="#B30184"/>
</linearGradient>
<linearGradient id="paint14_linear_119_908" x1="202.535" y1="194.245" x2="202.535" y2="204.394" gradientUnits="userSpaceOnUse">
<stop stop-color="#E20B69"/>
<stop offset="1" stop-color="#B30184"/>
</linearGradient>
<linearGradient id="paint15_linear_119_908" x1="194.663" y1="226.171" x2="194.663" y2="228.289" gradientUnits="userSpaceOnUse">
<stop stop-color="#E20B69"/>
<stop offset="1" stop-color="#B30184"/>
</linearGradient>
<linearGradient id="paint16_linear_119_908" x1="101" y1="151" x2="101" y2="166" gradientUnits="userSpaceOnUse">
<stop stop-color="#E90D65"/>
<stop offset="1" stop-color="#AC0087"/>
</linearGradient>
<clipPath id="clip0_119_908">
<rect width="220" height="229" fill="white"/>
</clipPath>
</defs>
</svg>
