<svg width="22" height="18" viewBox="0 0 22 18" fill="none" xmlns="http://www.w3.org/2000/svg">
<g clip-path="url(#clip0_7_562)">
<path fill-rule="evenodd" clip-rule="evenodd" d="M3.33332 0.434784C2.62608 0.434784 1.9478 0.663821 1.4477 1.07151C0.947608 1.4792 0.666656 2.03214 0.666656 2.6087L0.666656 15.6522C0.666656 16.2287 0.947608 16.7817 1.4477 17.1894C1.9478 17.5971 2.62608 17.8261 3.33332 17.8261H19.3333C20.0406 17.8261 20.7188 17.5971 21.2189 17.1894C21.719 16.7817 22 16.2287 22 15.6522V2.6087C22 2.03214 21.719 1.4792 21.2189 1.07151C20.7188 0.663821 20.0406 0.434784 19.3333 0.434784L3.33332 0.434784ZM10.8613 12.0065C10.7361 12.1086 10.6658 12.247 10.6658 12.3913C10.6658 12.5356 10.7361 12.674 10.8613 12.7761C10.9865 12.8781 11.1563 12.9355 11.3333 12.9355C11.5104 12.9355 11.6801 12.8781 11.8053 12.7761L15.8053 9.51522C15.8674 9.46473 15.9167 9.40476 15.9503 9.33873C15.9839 9.27271 16.0012 9.20192 16.0012 9.13044C16.0012 9.05895 15.9839 8.98817 15.9503 8.92214C15.9167 8.85611 15.8674 8.79614 15.8053 8.74565L11.8053 5.48478C11.7433 5.43425 11.6698 5.39417 11.5888 5.36682C11.5078 5.33948 11.421 5.3254 11.3333 5.3254C11.2457 5.3254 11.1589 5.33948 11.0779 5.36682C10.9969 5.39417 10.9233 5.43425 10.8613 5.48478C10.7993 5.53531 10.7502 5.5953 10.7166 5.66132C10.6831 5.72734 10.6658 5.79811 10.6658 5.86957C10.6658 5.94103 10.6831 6.01179 10.7166 6.07781C10.7502 6.14383 10.7993 6.20382 10.8613 6.25435L13.724 8.58696H7.33332C7.15651 8.58696 6.98694 8.64422 6.86192 8.74614C6.73689 8.84806 6.66666 8.9863 6.66666 9.13044C6.66666 9.27458 6.73689 9.41281 6.86192 9.51473C6.98694 9.61666 7.15651 9.67391 7.33332 9.67391H13.724L10.8613 12.0065V12.0065Z" fill="white"/>
</g>
<defs>
<clipPath id="clip0_7_562">
<rect width="21.3333" height="17.3913" fill="white" transform="translate(0.666656 0.434784)"/>
</clipPath>
</defs>
</svg>
