<svg width="392" height="334" viewBox="0 0 392 334" fill="none" xmlns="http://www.w3.org/2000/svg">
<path opacity="0.1" d="M389.542 229.634C378.872 175.827 316.359 132.824 304.167 76.7536C282.007 5.4173 208.966 -5.8611 161.502 25.1202C86.2965 74.2105 166.526 86.3926 19.0713 202.537C-17.3385 231.216 -5.73666 357.809 108.806 328.756C170.448 313.121 189.187 310.927 216.914 308.353C286.801 301.865 407.453 319.955 389.542 229.634Z" fill="url(#paint0_linear_159_2341)"/>
<path d="M306.054 243.119L198.037 300.168L90.1831 243.119V156.97H306.054V243.119Z" fill="white"/>
<path d="M198.037 301.043C197.894 301.044 197.753 301.008 197.627 300.941L89.7767 243.892C89.6365 243.818 89.5191 243.707 89.4369 243.571C89.3548 243.436 89.3111 243.28 89.3105 243.122V156.97C89.3105 156.738 89.4027 156.515 89.5668 156.351C89.7309 156.187 89.9535 156.095 90.1855 156.095H306.054C306.286 156.095 306.508 156.187 306.672 156.351C306.836 156.515 306.929 156.738 306.929 156.97V243.119C306.928 243.278 306.884 243.433 306.802 243.569C306.72 243.704 306.603 243.815 306.462 243.889L198.445 300.939C198.32 301.007 198.179 301.043 198.037 301.043ZM91.0577 242.593L198.037 299.179L305.179 242.592V157.845H91.0577V242.593Z" fill="#262626"/>
<path d="M306.053 138.484L198.036 81.4345L246.575 58.0384L354.592 115.088L306.053 138.484Z" fill="white"/>
<path d="M306.053 139.359C305.911 139.359 305.771 139.324 305.645 139.258L197.628 82.208C197.485 82.1322 197.365 82.0183 197.283 81.8788C197.201 81.7394 197.159 81.5798 197.162 81.4179C197.165 81.2561 197.213 81.0982 197.3 80.9618C197.387 80.8255 197.511 80.716 197.656 80.6456L246.195 57.2495C246.318 57.1896 246.454 57.1598 246.591 57.1623C246.728 57.1649 246.863 57.1998 246.984 57.2642L355.001 114.314C355.144 114.39 355.263 114.504 355.346 114.643C355.428 114.782 355.47 114.942 355.467 115.104C355.464 115.266 355.416 115.424 355.329 115.56C355.241 115.696 355.118 115.806 354.972 115.876L306.434 139.272C306.315 139.329 306.185 139.359 306.053 139.359ZM199.978 81.4688L306.072 137.502L352.651 115.051L246.557 59.0191L199.978 81.4688Z" fill="#262626"/>
<path d="M90.1832 138.484L198.2 81.4345L149.662 58.0384L41.6445 115.088L90.1832 138.484Z" fill="white"/>
<path d="M90.1828 139.359C90.0512 139.359 89.9213 139.329 89.8027 139.272L41.2668 115.876C41.121 115.806 40.9976 115.696 40.9102 115.56C40.8229 115.424 40.7751 115.266 40.7721 115.104C40.7691 114.942 40.8111 114.782 40.8934 114.643C40.9757 114.504 41.095 114.39 41.2381 114.314L149.255 57.2642C149.376 57.1998 149.511 57.1649 149.648 57.1623C149.785 57.1598 149.921 57.1896 150.044 57.2495L198.583 80.6456C198.728 80.716 198.852 80.8255 198.939 80.9618C199.026 81.0982 199.074 81.2561 199.077 81.4179C199.08 81.5798 199.038 81.7394 198.956 81.8788C198.874 82.0183 198.755 82.1322 198.611 82.208L90.5944 139.258C90.4675 139.325 90.3262 139.359 90.1828 139.359ZM43.5852 115.053L90.1646 137.504L196.259 81.4702L149.679 59.0191L43.5852 115.053Z" fill="#262626"/>
<path d="M90.1827 138.484L198.2 195.534L142.661 225.929L34.644 168.88L90.1827 138.484Z" fill="white"/>
<path d="M142.661 226.804C142.518 226.804 142.378 226.769 142.252 226.703L34.2351 169.653C34.0956 169.579 33.9788 169.468 33.8969 169.333C33.815 169.198 33.7712 169.044 33.77 168.886C33.7689 168.728 33.8105 168.573 33.8904 168.437C33.9703 168.301 34.0855 168.189 34.2239 168.113L89.7626 137.717C89.8894 137.647 90.0316 137.61 90.1763 137.609C90.3209 137.608 90.4636 137.643 90.5914 137.711L198.608 194.761C198.748 194.835 198.865 194.945 198.947 195.08C199.028 195.215 199.072 195.37 199.073 195.528C199.075 195.685 199.033 195.841 198.953 195.977C198.873 196.113 198.758 196.225 198.62 196.301L143.081 226.697C142.952 226.767 142.808 226.804 142.661 226.804ZM36.4919 168.866L142.653 224.936L196.352 195.547L90.1903 139.477L36.4919 168.866Z" fill="#262626"/>
<path d="M306.054 138.484L198.037 195.534L253.576 225.929L361.593 168.88L306.054 138.484Z" fill="white"/>
<path d="M253.577 226.804C253.43 226.804 253.286 226.767 253.157 226.697L197.618 196.301C197.48 196.225 197.365 196.113 197.285 195.977C197.205 195.841 197.163 195.685 197.165 195.528C197.166 195.37 197.21 195.215 197.291 195.08C197.373 194.945 197.49 194.835 197.63 194.761L305.647 137.711C305.774 137.643 305.917 137.608 306.062 137.609C306.206 137.61 306.349 137.647 306.475 137.717L362.014 168.113C362.152 168.189 362.268 168.301 362.348 168.437C362.427 168.573 362.469 168.728 362.468 168.886C362.467 169.044 362.423 169.198 362.341 169.333C362.259 169.468 362.142 169.579 362.003 169.653L253.986 226.703C253.86 226.769 253.72 226.804 253.577 226.804ZM199.887 195.547L253.585 224.936L359.747 168.866L306.048 139.477L199.887 195.547Z" fill="#262626"/>
<path d="M198.2 81.4345L90.1826 138.484L198.037 195.534L306.054 138.484L198.2 81.4345Z" fill="#262626"/>
<path d="M198.912 195.533H197.162V300.168H198.912V195.533Z" fill="#262626"/>
<path d="M137.517 133.304C137.372 133.305 137.23 133.259 137.113 133.175C136.961 133.068 136.858 132.905 136.827 132.722C136.796 132.539 136.839 132.351 136.946 132.199C137.076 132.016 149.727 113.727 135.603 97.0529C133.104 94.0863 129.986 91.7024 126.467 90.068C122.949 88.4337 119.116 87.5885 115.237 87.5917H115.047C116.388 92.2509 116.148 96.3935 114.249 99.5715C113.44 101.008 112.246 102.189 110.801 102.983C109.357 103.777 107.719 104.152 106.073 104.065C104.711 103.954 103.41 103.447 102.331 102.608C101.252 101.768 100.441 100.632 99.9979 99.3391C98.4446 95.2875 100.068 91.3591 104.346 88.8272C107.057 87.3325 110.068 86.4663 113.159 86.2925C112.153 83.6271 110.846 81.0857 109.262 78.7178C104.163 70.9296 94.869 65.5382 83.7628 63.9261C74.3506 62.5604 65.3304 64.169 60.7797 68.0232C60.638 68.1431 60.4544 68.2018 60.2694 68.1864C60.0843 68.171 59.913 68.0827 59.7931 67.9409C59.6732 67.7992 59.6144 67.6156 59.6299 67.4306C59.6453 67.2455 59.7336 67.0742 59.8753 66.9543C64.7179 62.853 74.1728 61.1191 83.9637 62.5443C95.4668 64.2145 105.114 69.8306 110.434 77.9541C112.159 80.5304 113.562 83.3081 114.612 86.2253C118.797 86.1248 122.951 86.9643 126.768 88.6822C130.585 90.4001 133.968 92.9524 136.668 96.1513C151.503 113.665 138.22 132.821 138.084 133.013C138.02 133.103 137.934 133.176 137.836 133.227C137.737 133.278 137.628 133.304 137.517 133.304ZM113.613 87.6428C110.617 87.7705 107.691 88.5884 105.062 90.0326C101.369 92.218 100.001 95.4282 101.308 98.8386C101.662 99.8836 102.313 100.803 103.182 101.483C104.05 102.164 105.098 102.577 106.197 102.672C107.581 102.734 108.955 102.41 110.166 101.735C111.376 101.061 112.375 100.063 113.051 98.854C114.794 95.935 114.953 92.0549 113.611 87.6428H113.613Z" fill="#292A2E"/>
<path d="M48.6987 79.3093C47.5091 79.6666 46.2271 79.5455 45.1255 78.9717C44.0239 78.398 43.1898 77.4168 42.8008 76.2372C42.4118 75.0577 42.4987 73.7728 43.0428 72.6563C43.587 71.5398 44.5455 70.6798 45.7143 70.2595C46.8831 69.8391 48.1698 69.8916 49.3004 70.4058C50.431 70.9199 51.3163 71.8552 51.7677 73.0123C52.2191 74.1694 52.201 75.4571 51.7172 76.601C51.2334 77.745 50.3222 78.6549 49.1775 79.1371C49.0211 79.2032 48.8613 79.2606 48.6987 79.3093ZM46.3712 71.5309C46.2578 71.565 46.1463 71.6051 46.0373 71.6513C45.2319 71.9909 44.5909 72.6315 44.2508 73.4367C43.9107 74.2419 43.8984 75.1481 44.2166 75.9622C44.5348 76.7763 45.1582 77.4341 45.9541 77.7954C46.7501 78.1566 47.6556 78.1929 48.4778 77.8964C49.3001 77.5999 49.9741 76.9941 50.3563 76.208C50.7385 75.4219 50.7987 74.5176 50.5241 73.6878C50.2495 72.858 49.6617 72.1682 48.886 71.7653C48.1103 71.3624 47.208 71.2783 46.3712 71.5309Z" fill="#292A2E"/>
<path d="M48.6903 68.3403C47.565 68.6762 46.3553 68.5844 45.2936 68.0824C44.232 67.5804 43.3934 66.7037 42.9391 65.6208C42.5748 64.7526 42.4762 63.7959 42.6556 62.8717C42.8351 61.9475 43.2846 61.0972 43.9473 60.4285C44.6101 59.7598 45.4562 59.3026 46.3788 59.1148C47.3013 58.9269 48.2588 59.0169 49.1303 59.3733C50.0017 59.7297 50.7478 60.3365 51.2744 61.117C51.8009 61.8975 52.0842 62.8166 52.0883 63.7581C52.0925 64.6995 51.8173 65.6211 51.2977 66.4062C50.7781 67.1913 50.0373 67.8047 49.1691 68.1688C49.0126 68.2342 48.8528 68.2915 48.6903 68.3403ZM46.3656 60.5612C46.2508 60.5956 46.138 60.636 46.0275 60.6823C45.2063 61.0272 44.5557 61.6841 44.2186 62.5085C43.8815 63.333 43.8856 64.2575 44.2299 65.079C44.481 65.6778 44.9002 66.191 45.4369 66.5565C45.9735 66.9221 46.6046 67.1243 47.2538 67.1387C47.9029 67.1531 48.5424 66.9792 49.0947 66.6378C49.6471 66.2965 50.0887 65.8024 50.3662 65.2154C50.6437 64.6283 50.7451 63.9734 50.6582 63.33C50.5713 62.6865 50.2999 62.0819 49.8766 61.5895C49.4534 61.0971 48.8966 60.7378 48.2735 60.5552C47.6504 60.3726 46.9877 60.3744 46.3656 60.5605V60.5612Z" fill="#292A2E"/>
<path d="M47.3313 73.2907C50.769 73.2907 53.5557 71.4294 53.5557 69.1334C53.5557 66.8373 50.769 64.9761 47.3313 64.9761C43.8937 64.9761 41.1069 66.8373 41.1069 69.1334C41.1069 71.4294 43.8937 73.2907 47.3313 73.2907Z" fill="white"/>
<path d="M50.0871 73.5966C49.1947 73.8603 48.2688 73.9933 47.3382 73.9914C43.4546 73.9914 40.4082 71.8634 40.4082 69.1397C40.4082 66.416 43.4455 64.2803 47.3277 64.2761C49.0203 64.2436 50.6855 64.7058 52.1192 65.6061C52.7631 65.9415 53.3028 66.447 53.6796 67.0676C54.0564 67.6882 54.256 68.4002 54.2567 69.1262C54.2573 69.8522 54.059 70.5646 53.6833 71.1859C53.3076 71.8071 52.7688 72.3136 52.1255 72.6502C51.4966 73.0648 50.8097 73.3837 50.0871 73.5966ZM45.0037 66.0093C43.1333 66.5693 41.8075 67.7782 41.8082 69.1362C41.8082 71.0101 44.3401 72.5914 47.3382 72.5886C48.7544 72.6184 50.1487 72.235 51.3506 71.4854C51.8014 71.2777 52.1831 70.9452 52.4506 70.5271C52.7181 70.1091 52.86 69.6231 52.8595 69.1268C52.8591 68.6305 52.7163 68.1447 52.4481 67.7271C52.1799 67.3096 51.7976 66.9777 51.3464 66.7709C50.1436 66.0228 48.7487 65.6418 47.3326 65.6747C46.5442 65.6726 45.7597 65.7853 45.0037 66.0093Z" fill="#292A2E"/>
<path d="M48.8582 73.164L48.7112 65.079L46.7008 64.9978L46.5601 73.2585L48.8582 73.164Z" fill="#292A2E"/>
<path d="M39.0738 70.8925C39.4287 70.8925 39.7164 70.6048 39.7164 70.2499C39.7164 69.895 39.4287 69.6073 39.0738 69.6073C38.7189 69.6073 38.4312 69.895 38.4312 70.2499C38.4312 70.6048 38.7189 70.8925 39.0738 70.8925Z" fill="#292A2E"/>
<path d="M39.5752 67.4541C39.9301 67.4541 40.2178 67.1664 40.2178 66.8115C40.2178 66.4566 39.9301 66.1689 39.5752 66.1689C39.2203 66.1689 38.9326 66.4566 38.9326 66.8115C38.9326 67.1664 39.2203 67.4541 39.5752 67.4541Z" fill="#292A2E"/>
<path d="M247.504 92.9355C247.354 92.9355 247.209 92.8874 247.088 92.7983C246.968 92.7092 246.879 92.5838 246.835 92.4406C244.513 83.7702 243.894 74.732 245.011 65.8259C246.82 52.8059 254.001 35.7182 277.932 28.2359C281.299 27.1533 284.753 26.3615 288.255 25.8692C289.383 18.8265 293.673 11.1867 303.266 5.91568C326.06 -6.60872 341.456 4.62838 341.609 4.74318C341.757 4.85458 341.855 5.0204 341.882 5.20419C341.908 5.38798 341.86 5.57466 341.749 5.72318C341.637 5.87171 341.472 5.96989 341.288 5.99615C341.104 6.0224 340.917 5.97458 340.769 5.86318C340.623 5.75398 325.909 -4.92872 303.941 7.14349C294.977 12.0694 290.873 19.1394 289.707 25.7026C300.262 24.6631 305.317 28.1841 307.585 30.8434C308.989 32.4426 309.891 34.4194 310.179 36.5276C310.467 38.6358 310.128 40.7822 309.205 42.6993C308.475 44.2488 307.293 45.5406 305.814 46.4041C304.335 47.2675 302.629 47.6621 300.921 47.5356C295.026 47.1898 290.148 42.231 288.494 34.902C287.949 32.421 287.804 29.8688 288.064 27.342C284.77 27.8153 281.521 28.5624 278.35 29.5757C259.699 35.4074 248.95 47.6707 246.397 66.0226C245.303 74.7266 245.906 83.5601 248.173 92.0346C248.206 92.1393 248.213 92.25 248.194 92.3579C248.176 92.4658 248.132 92.5678 248.067 92.6559C248.002 92.7439 247.917 92.8154 247.819 92.8647C247.722 92.914 247.614 92.9397 247.504 92.9397V92.9355ZM289.492 27.167C289.2 29.6457 289.324 32.1556 289.86 34.5933C291.373 41.2979 295.746 45.829 301.002 46.1377C302.435 46.2403 303.865 45.9076 305.105 45.183C306.346 44.4585 307.338 43.3761 307.952 42.0777C308.752 40.4059 309.043 38.5357 308.788 36.6999C308.533 34.8641 307.744 33.1438 306.518 31.7534C303.245 27.9125 297.272 26.3613 289.492 27.167Z" fill="#292A2E"/>
<path d="M357.915 11.8181C356.972 11.8161 356.049 11.5476 355.253 11.0435C354.456 10.5394 353.818 9.82024 353.412 8.9691C353.007 8.11795 352.85 7.16948 352.961 6.23315C353.071 5.29682 353.444 4.4108 354.036 3.67735C354.629 2.94389 355.417 2.39291 356.309 2.08799C357.201 1.78307 358.161 1.73663 359.079 1.95405C359.996 2.17146 360.833 2.64386 361.494 3.31673C362.154 3.98959 362.611 4.83549 362.811 5.7568C362.968 6.48712 362.959 7.24329 362.786 7.96994C362.613 8.69658 362.28 9.37531 361.81 9.95642C361.341 10.5375 360.748 11.0063 360.074 11.3284C359.4 11.6505 358.662 11.8178 357.915 11.8181ZM357.926 3.21929C357.181 3.21928 356.455 3.45019 355.847 3.8802C355.239 4.31021 354.78 4.91815 354.532 5.62023C354.284 6.32231 354.26 7.08397 354.464 7.80024C354.667 8.5165 355.087 9.1521 355.667 9.61944C356.246 10.0868 356.957 10.3628 357.7 10.4096C358.443 10.4563 359.182 10.2715 359.816 9.88046C360.449 9.48945 360.946 8.91155 361.237 8.2264C361.529 7.54126 361.6 6.7826 361.442 6.055C361.272 5.24998 360.829 4.5284 360.188 4.01186C359.548 3.49532 358.749 3.21541 357.926 3.21929Z" fill="#292A2E"/>
<path d="M355.807 23.2428C354.524 23.2427 353.29 22.7508 352.359 21.8682C351.427 20.9857 350.87 19.7797 350.801 18.4986C350.732 17.2174 351.157 15.9587 351.988 14.9814C352.82 14.0041 353.994 13.3826 355.269 13.245C356.545 13.1073 357.825 13.4639 358.845 14.2414C359.866 15.0189 360.55 16.158 360.756 17.4243C360.962 18.6907 360.674 19.9878 359.953 21.0487C359.231 22.1096 358.131 22.8535 356.877 23.1273C356.526 23.2041 356.167 23.2428 355.807 23.2428ZM355.824 14.6433C355.566 14.6434 355.307 14.6714 355.054 14.7266C354.16 14.923 353.375 15.4546 352.861 16.2121C352.347 16.9696 352.143 17.8953 352.291 18.7988C352.438 19.7023 352.926 20.5149 353.655 21.0693C354.384 21.6237 355.297 21.8778 356.207 21.7794C357.117 21.6809 357.955 21.2373 358.548 20.5399C359.141 19.8425 359.444 18.9444 359.395 18.0302C359.346 17.116 358.949 16.2554 358.285 15.6254C357.62 14.9954 356.74 14.6439 355.824 14.6433Z" fill="#292A2E"/>
<path d="M363.325 13.8631C363.766 11.4722 361.222 8.99838 357.642 8.33781C354.062 7.67725 350.803 9.08003 350.361 11.471C349.92 13.8619 352.464 16.3357 356.044 16.9963C359.624 17.6568 362.884 16.2541 363.325 13.8631Z" fill="white"/>
<path d="M357.807 17.8605C357.173 17.8595 356.541 17.8009 355.917 17.6855C354.157 17.3934 352.52 16.594 351.207 15.3853C350.632 14.895 350.19 14.2678 349.922 13.5616C349.654 12.8554 349.569 12.093 349.673 11.3449C349.843 10.6088 350.195 9.92725 350.697 9.36324C351.2 8.79923 351.836 8.37093 352.548 8.11789C354.213 7.489 356.019 7.32731 357.769 7.65031C359.519 7.97331 361.148 8.76872 362.479 9.95049C363.054 10.4408 363.495 11.068 363.763 11.7742C364.032 12.4804 364.117 13.2428 364.013 13.9909C363.843 14.727 363.491 15.4085 362.988 15.9725C362.486 16.5366 361.849 16.9649 361.138 17.2179C360.082 17.6547 358.949 17.8733 357.807 17.8605ZM355.874 8.87389C354.923 8.8618 353.98 9.04205 353.101 9.40379C352.604 9.57029 352.156 9.85822 351.797 10.2415C351.439 10.6248 351.182 11.0914 351.05 11.599C350.993 12.1204 351.066 12.6479 351.264 13.1337C351.462 13.6196 351.777 14.0484 352.183 14.3815C353.315 15.3697 354.692 16.0352 356.17 16.308C357.648 16.5808 359.172 16.4509 360.583 15.932C361.08 15.7655 361.528 15.4776 361.886 15.0943C362.244 14.711 362.501 14.2444 362.634 13.7368C362.691 13.2154 362.618 12.6877 362.42 12.2018C362.223 11.7159 361.907 11.2871 361.501 10.9543C360.387 9.93773 359 9.26805 357.511 9.02719C356.972 8.92679 356.425 8.87548 355.877 8.87389H355.874Z" fill="#292A2E"/>
<path d="M356.035 8.1767L354.627 16.6229L356.704 17.0961L358.445 8.5218L356.035 8.1767Z" fill="#292A2E"/>
<path d="M364.473 17.2634C364.849 17.2634 365.154 16.9588 365.154 16.583C365.154 16.2072 364.849 15.9026 364.473 15.9026C364.098 15.9026 363.793 16.2072 363.793 16.583C363.793 16.9588 364.098 17.2634 364.473 17.2634Z" fill="#292A2E"/>
<path d="M365.659 13.7802C366.035 13.7802 366.339 13.4755 366.339 13.0998C366.339 12.724 366.035 12.4194 365.659 12.4194C365.283 12.4194 364.979 12.724 364.979 13.0998C364.979 13.4755 365.283 13.7802 365.659 13.7802Z" fill="#292A2E"/>
<defs>
<linearGradient id="paint0_linear_159_2341" x1="196" y1="8.87393" x2="196" y2="333.058" gradientUnits="userSpaceOnUse">
<stop stop-color="#E90D65"/>
<stop offset="1" stop-color="#AC0087"/>
</linearGradient>
</defs>
</svg>
