<svg width="65" height="65" viewBox="0 0 65 65" fill="none" xmlns="http://www.w3.org/2000/svg">
<rect width="65" height="65" rx="32.5" fill="url(#paint0_linear_114_673)"/>
<path d="M45.5352 39.8281C44.7983 38.0827 43.7289 36.4973 42.3867 35.1602C41.0486 33.8192 39.4634 32.75 37.7188 32.0117C37.7031 32.0039 37.6875 32 37.6719 31.9922C40.1055 30.2344 41.6875 27.3711 41.6875 24.1406C41.6875 18.7891 37.3516 14.4531 32 14.4531C26.6484 14.4531 22.3125 18.7891 22.3125 24.1406C22.3125 27.3711 23.8945 30.2344 26.3281 31.9961C26.3125 32.0039 26.2969 32.0078 26.2812 32.0156C24.5312 32.7539 22.9609 33.8125 21.6133 35.1641C20.2723 36.5022 19.2031 38.0874 18.4648 39.832C17.7395 41.5401 17.3484 43.3713 17.3125 45.2266C17.3115 45.2683 17.3188 45.3097 17.334 45.3486C17.3492 45.3874 17.3721 45.4228 17.4012 45.4526C17.4303 45.4825 17.4651 45.5062 17.5036 45.5224C17.542 45.5386 17.5833 45.5469 17.625 45.5469H19.9687C20.1406 45.5469 20.2773 45.4102 20.2812 45.2422C20.3594 42.2266 21.5703 39.4023 23.7109 37.2617C25.9258 35.0469 28.8672 33.8281 32 33.8281C35.1328 33.8281 38.0742 35.0469 40.2891 37.2617C42.4297 39.4023 43.6406 42.2266 43.7187 45.2422C43.7227 45.4141 43.8594 45.5469 44.0312 45.5469H46.375C46.4167 45.5469 46.458 45.5386 46.4964 45.5224C46.5349 45.5062 46.5697 45.4825 46.5988 45.4526C46.6279 45.4228 46.6508 45.3874 46.666 45.3486C46.6812 45.3097 46.6885 45.2683 46.6875 45.2266C46.6484 43.3594 46.2617 41.543 45.5352 39.8281ZM32 30.8594C30.207 30.8594 28.5195 30.1602 27.25 28.8906C25.9805 27.6211 25.2812 25.9336 25.2812 24.1406C25.2812 22.3477 25.9805 20.6602 27.25 19.3906C28.5195 18.1211 30.207 17.4219 32 17.4219C33.793 17.4219 35.4805 18.1211 36.75 19.3906C38.0195 20.6602 38.7187 22.3477 38.7187 24.1406C38.7187 25.9336 38.0195 27.6211 36.75 28.8906C35.4805 30.1602 33.793 30.8594 32 30.8594Z" fill="white"/>
<defs>
<linearGradient id="paint0_linear_114_673" x1="32.5" y1="0" x2="32.5" y2="65" gradientUnits="userSpaceOnUse">
<stop stop-color="#E90D65"/>
<stop offset="1" stop-color="#AC0087"/>
</linearGradient>
</defs>
</svg>
