<svg width="24" height="48" viewBox="0 0 24 48" fill="none" xmlns="http://www.w3.org/2000/svg">
<path d="M12.1765 9.44881C14.7673 9.44881 16.8746 7.34149 16.8746 4.75072C16.8746 2.15995 14.7673 0.0526352 12.1765 0.0526352C9.58564 0.0526352 7.479 2.15995 7.479 4.75072C7.479 7.34149 9.58632 9.44881 12.1765 9.44881Z" fill="#8E8E8F"/>
<path d="M23.3828 24.0884L19.825 11.6994C19.6224 10.5591 18.6448 9.73575 17.4861 9.73575H6.86945C5.71001 9.73575 4.7325 10.5591 4.5297 11.6994L0.971566 24.0884C0.937253 24.2069 0.940217 24.3277 0.97453 24.4373C0.956633 24.5515 0.947627 24.6598 0.947627 24.7688C0.947627 26.0822 2.0161 27.1509 3.33047 27.1509C4.47886 27.1509 5.46229 26.33 5.65916 25.2486L7.19536 19.5448L4.65464 31.8569C4.54315 32.1389 4.48695 32.4338 4.48695 32.7348C4.48695 34.0482 5.55566 35.117 6.87002 35.117H7.12913V45.3988C7.12913 46.713 8.19784 47.7805 9.51163 47.7805C10.8251 47.7805 11.8939 46.7118 11.8939 45.3988V35.117H12.4633V45.3988C12.4633 46.713 13.5318 47.7805 14.8456 47.7805C16.1594 47.7805 17.2282 46.7118 17.2282 45.3988V35.117H17.4879C18.8017 35.117 19.8699 34.0482 19.8699 32.7348C19.8699 32.4314 19.8136 32.1368 19.702 31.8556L17.1627 19.5442L18.6865 25.1995C18.8945 26.33 19.8786 27.1509 21.0269 27.1509C22.3403 27.1509 23.4086 26.0822 23.4086 24.7688C23.4086 24.6605 23.3992 24.5503 23.3817 24.4366C23.4143 24.327 23.4172 24.2069 23.3828 24.0884Z" fill="#8E8E8F"/>
</svg>
