<svg width="65" height="65" viewBox="0 0 65 65" fill="none" xmlns="http://www.w3.org/2000/svg">
<rect width="65" height="65" rx="32.5" fill="url(#paint0_linear_124_1170)"/>
<path d="M31.8806 13C20.9005 13 12 21.9008 12 32.8806C12 36.5475 12.9988 39.9863 14.7305 42.9348C15.6363 40.7069 17.4164 38.7428 19.7334 37.2455C22.9339 35.1767 27.1957 33.9268 31.8804 33.9268C36.5654 33.9268 40.8272 35.1771 44.0273 37.2455C45.3448 38.0969 46.4706 39.1048 47.3789 40.2209C47.4453 40.2209 47.5085 40.2048 47.5753 40.2048C48.4916 40.2048 49.366 40.3577 50.1911 40.63C51.2023 38.2469 51.7607 35.6307 51.7607 32.8806C51.7607 21.9005 42.86 13 31.8802 13L31.8806 13ZM31.8806 16.6621C35.9135 16.6621 39.2048 19.9538 39.2048 23.9864C39.2048 28.0193 35.9131 31.3106 31.8806 31.3106C27.8477 31.3106 24.5563 28.0189 24.5563 23.9864C24.5563 19.9534 27.848 16.6621 31.8806 16.6621V16.6621ZM31.8806 18.7546C28.9786 18.7546 26.6488 21.0847 26.6488 23.9864C26.6488 26.888 28.9786 29.2181 31.8806 29.2181C34.7825 29.2181 37.1123 26.888 37.1123 23.9864C37.1123 21.0847 34.7825 18.7546 31.8806 18.7546ZM31.8806 36.0193C27.5714 36.0193 23.6874 37.1787 20.8781 38.9951C18.2859 40.6705 16.6405 42.8583 16.2514 45.1589C19.8913 49.7878 25.5358 52.7612 31.8812 52.7612C34.6317 52.7612 37.2498 52.2018 39.6306 51.1916C39.3588 50.3665 39.2055 49.4922 39.2055 48.5758C39.2055 44.8742 41.6133 41.735 44.9441 40.63C44.3453 40.0461 43.6617 39.4976 42.884 38.9951C40.0744 37.1791 36.1904 36.0193 31.8815 36.0193H31.8806ZM47.5758 41.2511C43.5304 41.2511 40.2515 44.5304 40.2515 48.5753C40.2515 52.6206 43.5309 55.8995 47.5758 55.8995C51.6211 55.8995 54.9 52.6202 54.9 48.5753C54.9 44.53 51.6206 41.2511 47.5758 41.2511V41.2511ZM47.5758 43.8669C47.8776 43.8669 48.1367 44.0056 48.3279 44.2103C49.199 44.9866 50.0577 45.9559 50.9273 46.7937C51.3481 47.2145 51.3361 47.8564 50.9273 48.2651C50.5186 48.6738 49.8646 48.6738 49.4559 48.2651L48.622 47.4312V52.2378C48.622 52.8158 48.1534 53.284 47.5758 53.284C46.9977 53.284 46.5295 52.8155 46.5295 52.2378V47.4312L45.6956 48.2651C45.2869 48.6738 44.6329 48.6738 44.2242 48.2651C43.8155 47.8564 43.8075 47.2145 44.2242 46.7937C45.0752 45.9372 45.9679 45.0026 46.8236 44.2103C47.0145 44.006 47.2736 43.8669 47.5758 43.8669Z" fill="white"/>
<defs>
<linearGradient id="paint0_linear_124_1170" x1="32.5" y1="0" x2="32.5" y2="65" gradientUnits="userSpaceOnUse">
<stop stop-color="#E90D65"/>
<stop offset="1" stop-color="#AC0087"/>
</linearGradient>
</defs>
</svg>
