<svg width="65" height="65" viewBox="0 0 65 65" fill="none" xmlns="http://www.w3.org/2000/svg">
<rect width="65" height="65" rx="32.5" fill="url(#paint0_linear_124_1167)"/>
<rect x="20.6271" y="31.4838" width="8.67571" height="2.8919" fill="white"/>
<rect x="20.6271" y="35.5325" width="8.67571" height="2.8919" fill="white"/>
<rect x="20.6271" y="40.4487" width="18.5082" height="2.8919" fill="white"/>
<rect x="46.8842" y="21.662" width="3.47028" height="18.3879" transform="rotate(45 46.8842 21.662)" fill="white"/>
<path d="M33.7108 37.2892L33.9065 34.9684L36.0316 37.0935L33.7108 37.2892Z" fill="white"/>
<path fill-rule="evenodd" clip-rule="evenodd" d="M22.9406 22.519H36.8217V26.8568H22.9406V22.519ZM20.6271 20.2054H22.9406H36.8217H39.1352V22.519V26.2203L36.1852 29.1703H22.9406H20.6271V26.8568V22.519V20.2054Z" fill="white"/>
<path fill-rule="evenodd" clip-rule="evenodd" d="M18.8919 17.8919H40.5812V25.0635L43.4731 22.1716V17.8919V15H40.5812H18.8919H16V17.8919V46.5217V49.4136H18.8919H40.5812H43.4731V46.5217V34.5979L40.5812 37.4898V46.5217H18.8919V17.8919Z" fill="white"/>
<defs>
<linearGradient id="paint0_linear_124_1167" x1="32.5" y1="0" x2="32.5" y2="65" gradientUnits="userSpaceOnUse">
<stop stop-color="#E90D65"/>
<stop offset="1" stop-color="#AC0087"/>
</linearGradient>
</defs>
</svg>
