<svg width="65" height="65" viewBox="0 0 65 65" fill="none" xmlns="http://www.w3.org/2000/svg">
<rect width="65" height="65" rx="32.5" fill="url(#paint0_linear_124_1166)"/>
<path d="M42.5 30C39.4627 30 37 32.4627 37 35.5C37 38.5373 39.4627 41 42.5 41C45.5373 41 48 38.5373 48 35.5C48 32.4627 45.5373 30 42.5 30ZM44.6669 37.1905L44.3157 37.6693C44.3081 37.6797 44.2985 37.6885 44.2874 37.6952C44.2764 37.7019 44.2641 37.7064 44.2513 37.7083C44.2385 37.7103 44.2255 37.7097 44.213 37.7065C44.2004 37.7034 44.1886 37.6979 44.1782 37.6902L42.1477 36.2096C42.135 36.2005 42.1247 36.1885 42.1177 36.1746C42.1106 36.1607 42.107 36.1454 42.1071 36.1298V32.75C42.1071 32.696 42.1513 32.6518 42.2054 32.6518H42.7959C42.8499 32.6518 42.8941 32.696 42.8941 32.75V35.7885L44.6448 37.0542C44.689 37.0849 44.6988 37.1463 44.6669 37.1905Z" fill="white"/>
<rect x="21" y="32" width="8.67571" height="2.8919" fill="white"/>
<rect x="21" y="36.0487" width="8.67571" height="2.8919" fill="white"/>
<rect x="21" y="41" width="19" height="3" fill="white"/>
<rect x="22" y="22" width="17" height="7" stroke="white" stroke-width="2"/>
<path fill-rule="evenodd" clip-rule="evenodd" d="M41 18H20V46H41V41.6546C41.4809 41.7714 41.9832 41.8333 42.5 41.8333C43.0168 41.8333 43.5191 41.7714 44 41.6546V46V49H41H20H17V46V18V15H20H41H44V18V29.3454C43.5191 29.2286 43.0168 29.1667 42.5 29.1667C41.9832 29.1667 41.4809 29.2286 41 29.3454V18Z" fill="white"/>
<defs>
<linearGradient id="paint0_linear_124_1166" x1="32.5" y1="0" x2="32.5" y2="65" gradientUnits="userSpaceOnUse">
<stop stop-color="#E90D65"/>
<stop offset="1" stop-color="#AC0087"/>
</linearGradient>
</defs>
</svg>
