<svg width="65" height="65" viewBox="0 0 65 65" fill="none" xmlns="http://www.w3.org/2000/svg">
<rect width="65" height="65" rx="32.5" fill="url(#paint0_linear_124_1168)"/>
<g clip-path="url(#clip0_124_1168)">
<path d="M44.0002 27.2V26.2382C43.9976 24.2663 43.2131 22.3758 41.8188 20.9815C40.4244 19.5871 38.534 18.8026 36.562 18.8H34.9002V16H30.7002V18.8H29.0384C27.2527 18.7973 25.5256 19.4372 24.1726 20.6027C22.8197 21.7682 21.9312 23.3815 21.6695 25.148C21.4077 26.9144 21.7902 28.7161 22.7471 30.2238C23.7039 31.7315 25.1712 32.8447 26.881 33.36L30.7002 34.4044V42.6H29.0384C28.1799 42.5989 27.3569 42.2574 26.7499 41.6503C26.1428 41.0433 25.8013 40.2203 25.8002 39.3618V38.4H21.6002V39.3618C21.6028 41.3337 22.3873 43.2242 23.7817 44.6185C25.176 46.0129 27.0665 46.7974 29.0384 46.8H30.7002V49.6H34.9002V46.8H36.562C38.3477 46.8027 40.0748 46.1628 41.4278 44.9973C42.7807 43.8318 43.6692 42.2185 43.931 40.452C44.1927 38.6856 43.8102 36.8839 42.8534 35.3762C41.8965 33.8685 40.4292 32.7553 38.7194 32.24L34.9002 31.1984V23H36.562C37.4205 23.0011 38.2435 23.3426 38.8505 23.9497C39.4576 24.5567 39.7991 25.3797 39.8002 26.2382V27.2H44.0002ZM37.535 36.2706C38.2736 36.5033 38.9043 36.993 39.313 37.6507C39.7217 38.3085 39.8812 39.0908 39.7628 39.8561C39.6443 40.6214 39.2556 41.3189 38.6671 41.8222C38.0787 42.3256 37.3294 42.6015 36.555 42.6H34.9002V35.551L37.535 36.2706ZM30.7002 30.049L28.0654 29.3294C27.3274 29.0968 26.6971 28.6078 26.2883 27.9508C25.8796 27.2938 25.7196 26.5122 25.8372 25.7474C25.9547 24.9826 26.3421 24.2851 26.9293 23.7812C27.5165 23.2773 28.2646 23.0002 29.0384 23H30.7002V30.049Z" fill="white"/>
</g>
<defs>
<linearGradient id="paint0_linear_124_1168" x1="32.5" y1="0" x2="32.5" y2="65" gradientUnits="userSpaceOnUse">
<stop stop-color="#E90D65"/>
<stop offset="1" stop-color="#AC0087"/>
</linearGradient>
<clipPath id="clip0_124_1168">
<rect width="33.6" height="33.6" fill="white" transform="translate(16 16)"/>
</clipPath>
</defs>
</svg>
