<svg width="65" height="65" viewBox="0 0 65 65" fill="none" xmlns="http://www.w3.org/2000/svg">
<rect width="65" height="65" rx="32.5" fill="url(#paint0_linear_124_1169)"/>
<path d="M47 48.0017V42.4271C47 40.8662 46.7857 39.3053 45.9286 37.7444C45.0714 36.1835 44 34.8456 42.5 33.9537C41 32.8388 37.7857 32.6158 36.2857 32.6158L32.8571 36.4065L34.1429 39.3053V45.9949L32 48.4477L29.8571 45.9949V39.3053L31.3571 36.4065L27.7143 32.6158C26 32.6158 22.7857 32.8388 21.2857 33.9537C19.7857 34.8456 18.9286 36.1835 18.0714 37.7444C17.2143 39.3053 17 40.6432 17 42.4271V48.0017C17 48.0017 22.5714 50.4545 32 50.4545C41.4286 50.4545 47 48.0017 47 48.0017ZM32 15C27.9286 15 25.5714 19.0137 26.2143 23.4734C26.8571 27.9331 29 31.0549 32 31.0549C35 31.0549 37.1429 27.9331 37.7857 23.4734C38.4286 18.7907 36.0714 15 32 15V15Z" fill="white"/>
<defs>
<linearGradient id="paint0_linear_124_1169" x1="32.5" y1="0" x2="32.5" y2="65" gradientUnits="userSpaceOnUse">
<stop stop-color="#E90D65"/>
<stop offset="1" stop-color="#AC0087"/>
</linearGradient>
</defs>
</svg>
