<svg width="65" height="65" viewBox="0 0 65 65" fill="none" xmlns="http://www.w3.org/2000/svg">
<rect width="65" height="65" rx="32.5" fill="url(#paint0_linear_124_1171)"/>
<path d="M45.6667 16H29C27.6739 16 26.4021 16.5268 25.4645 17.4645C24.5268 18.4021 24 19.6739 24 21V32.6667C24 33.9927 24.5268 35.2645 25.4645 36.2022C26.4021 37.1399 27.6739 37.6667 29 37.6667H45.6667C46.9927 37.6667 48.2645 37.1399 49.2022 36.2022C50.1399 35.2645 50.6667 33.9927 50.6667 32.6667V21C50.6667 19.6739 50.1399 18.4021 49.2022 17.4645C48.2645 16.5268 46.9927 16 45.6667 16ZM47.3333 32.6667C47.3333 33.1087 47.1577 33.5326 46.8452 33.8452C46.5326 34.1577 46.1087 34.3333 45.6667 34.3333H29C28.558 34.3333 28.134 34.1577 27.8215 33.8452C27.5089 33.5326 27.3333 33.1087 27.3333 32.6667V21C27.3333 20.558 27.5089 20.134 27.8215 19.8215C28.134 19.5089 28.558 19.3333 29 19.3333H45.6667C46.1087 19.3333 46.5326 19.5089 46.8452 19.8215C47.1577 20.134 47.3333 20.558 47.3333 21V32.6667ZM41.5 26C40.883 26.0021 40.2888 26.2338 39.8333 26.65C39.4749 26.3243 39.0297 26.1096 38.5516 26.0322C38.0735 25.9547 37.5832 26.0178 37.1403 26.2138C36.6974 26.4097 36.321 26.7301 36.0567 27.1359C35.7925 27.5418 35.6518 28.0157 35.6518 28.5C35.6518 28.9843 35.7925 29.4582 36.0567 29.8641C36.321 30.2699 36.6974 30.5903 37.1403 30.7862C37.5832 30.9822 38.0735 31.0453 38.5516 30.9678C39.0297 30.8904 39.4749 30.6757 39.8333 30.35C40.1343 30.6235 40.4975 30.8195 40.8913 30.921C41.2852 31.0224 41.6978 31.0262 42.0935 30.9321C42.4892 30.8379 42.8559 30.6486 43.1619 30.3807C43.4678 30.1127 43.7038 29.7742 43.8493 29.3944C43.9948 29.0146 44.0455 28.6051 43.9969 28.2013C43.9483 27.7975 43.8019 27.4116 43.5705 27.0772C43.339 26.7428 43.0294 26.4699 42.6686 26.2822C42.3078 26.0944 41.9067 25.9976 41.5 26V26ZM39 41C38.558 41 38.134 41.1756 37.8215 41.4882C37.5089 41.8007 37.3333 42.2246 37.3333 42.6667V44.3333C37.3333 44.7754 37.1577 45.1993 36.8452 45.5118C36.5326 45.8244 36.1087 46 35.6667 46H19C18.558 46 18.134 45.8244 17.8215 45.5118C17.5089 45.1993 17.3333 44.7754 17.3333 44.3333V37.6667H19C19.442 37.6667 19.8659 37.4911 20.1785 37.1785C20.4911 36.8659 20.6667 36.442 20.6667 36C20.6667 35.558 20.4911 35.134 20.1785 34.8215C19.8659 34.5089 19.442 34.3333 19 34.3333H17.3333V32.6667C17.3333 32.2246 17.5089 31.8007 17.8215 31.4882C18.134 31.1756 18.558 31 19 31C19.442 31 19.8659 30.8244 20.1785 30.5118C20.4911 30.1993 20.6667 29.7754 20.6667 29.3333C20.6667 28.8913 20.4911 28.4674 20.1785 28.1548C19.8659 27.8423 19.442 27.6667 19 27.6667C17.6739 27.6667 16.4021 28.1934 15.4645 29.1311C14.5268 30.0688 14 31.3406 14 32.6667V44.3333C14 45.6594 14.5268 46.9312 15.4645 47.8689C16.4021 48.8065 17.6739 49.3333 19 49.3333H35.6667C36.9927 49.3333 38.2645 48.8065 39.2022 47.8689C40.1399 46.9312 40.6667 45.6594 40.6667 44.3333V42.6667C40.6667 42.2246 40.4911 41.8007 40.1785 41.4882C39.8659 41.1756 39.442 41 39 41ZM22.3333 42.6667H24C24.442 42.6667 24.8659 42.4911 25.1785 42.1785C25.4911 41.866 25.6667 41.442 25.6667 41C25.6667 40.558 25.4911 40.134 25.1785 39.8215C24.8659 39.5089 24.442 39.3333 24 39.3333H22.3333C21.8913 39.3333 21.4674 39.5089 21.1548 39.8215C20.8423 40.134 20.6667 40.558 20.6667 41C20.6667 41.442 20.8423 41.866 21.1548 42.1785C21.4674 42.4911 21.8913 42.6667 22.3333 42.6667Z" fill="white"/>
<defs>
<linearGradient id="paint0_linear_124_1171" x1="32.5" y1="0" x2="32.5" y2="65" gradientUnits="userSpaceOnUse">
<stop stop-color="#E90D65"/>
<stop offset="1" stop-color="#AC0087"/>
</linearGradient>
</defs>
</svg>
