<svg width="8" height="13" viewBox="0 0 8 13" fill="none" xmlns="http://www.w3.org/2000/svg">
<path d="M7.25423 7.25226L1.77223 12.0483C1.12723 12.6143 0.114228 12.1543 0.114228 11.2953L0.114228 1.70326C0.114063 1.51101 0.169315 1.32279 0.273368 1.16114C0.377421 0.999494 0.525864 0.871264 0.70092 0.791807C0.875977 0.712351 1.07023 0.685039 1.2604 0.71314C1.45058 0.741242 1.62863 0.823567 1.77323 0.950256L7.25323 5.74626C7.36064 5.84012 7.44672 5.95587 7.50571 6.08575C7.56469 6.21562 7.59521 6.35661 7.59521 6.49926C7.59521 6.6419 7.56469 6.78289 7.50571 6.91277C7.44672 7.04264 7.36064 7.15839 7.25323 7.25226H7.25423Z" fill="#E90D65"/>
</svg>
