<svg width="24" height="49" viewBox="0 0 24 49" fill="none" xmlns="http://www.w3.org/2000/svg">
<path d="M12.1771 10.2909C14.7682 10.2909 16.8753 8.18359 16.8753 5.59282C16.8753 3.00205 14.7682 0.89473 12.1771 0.89473C9.58666 0.89473 7.479 3.00205 7.479 5.59282C7.479 8.18359 9.58666 10.2909 12.1771 10.2909Z" fill="#8E8E8F"/>
<path d="M23.3803 25.2787C23.409 25.1866 23.4156 25.0871 23.3964 24.9867L21.0579 12.5804C20.87 11.4195 19.8831 10.5778 18.7115 10.5778H5.64296C4.47075 10.5778 3.48435 11.4204 3.30013 12.5649L0.958095 24.9867C0.939286 25.0871 0.945443 25.1866 0.973942 25.2787C0.955816 25.3924 0.947266 25.5013 0.947266 25.6108C0.947266 26.9243 2.01597 27.993 3.33011 27.993C4.47838 27.993 5.46159 27.1721 5.67146 26.028L7.14724 16.8029L7.12821 46.241C7.12821 47.5551 8.19634 48.6227 9.51037 48.6227C10.8244 48.6227 11.8931 47.554 11.8931 46.241V31.6697H12.4615V46.2409C12.4615 47.555 13.5304 48.6226 14.8451 48.6226C16.1585 48.6226 17.2268 47.5539 17.2268 46.2404L17.2076 16.8029L18.6857 26.0416C18.8932 27.1721 19.8772 27.993 21.0255 27.993C22.3389 27.993 23.4076 26.9243 23.4076 25.6108C23.4073 25.5013 23.3988 25.3912 23.3803 25.2787Z" fill="#8E8E8F"/>
</svg>
