<svg width="16" height="16" viewBox="0 0 16 16" fill="none" xmlns="http://www.w3.org/2000/svg">
<path d="M12.618 11.586C10.6598 10.8727 10.0339 10.2706 10.0339 8.98129C10.0339 8.20757 10.6755 7.70613 10.8942 7.04303C11.1129 6.37991 11.2394 5.59482 11.3446 5.02372C11.4497 4.45262 11.4915 4.23173 11.5487 3.62324C11.6186 2.86382 11.1103 0.903308 8.39191 0.903308C5.67437 0.903308 5.16437 2.86382 5.23586 3.62324C5.29306 4.23173 5.33508 4.45265 5.44002 5.02372C5.54497 5.5948 5.67025 6.37986 5.88883 7.04303C6.10739 7.70618 6.74991 8.20757 6.74991 8.98129C6.74991 10.2706 6.12394 10.8727 4.16582 11.586C2.20057 12.301 0.924805 13.006 0.924805 13.5041V15.8375H15.859V13.5041C15.859 13.0068 14.5825 12.3018 12.618 11.586Z" fill="#3B71B1"/>
<path d="M12.618 11.586C10.6598 10.8727 10.0339 10.2706 10.0339 8.98129C10.0339 8.20757 10.6755 7.70613 10.8942 7.04303C11.1129 6.37991 11.2394 5.59482 11.3446 5.02372C11.4497 4.45262 11.4915 4.23173 11.5487 3.62324C11.6186 2.86382 11.1103 0.903308 8.39191 0.903308C5.67437 0.903308 5.16437 2.86382 5.23586 3.62324C5.29306 4.23173 5.33508 4.45265 5.44002 5.02372C5.54497 5.5948 5.67025 6.37986 5.88883 7.04303C6.10739 7.70618 6.74991 8.20757 6.74991 8.98129C6.74991 10.2706 6.12394 10.8727 4.16582 11.586C2.20057 12.301 0.924805 13.006 0.924805 13.5041V15.8375H15.859V13.5041C15.859 13.0068 14.5825 12.3018 12.618 11.586Z" fill="url(#paint0_linear_287_1673)"/>
<defs>
<linearGradient id="paint0_linear_287_1673" x1="8.39191" y1="0.903308" x2="8.39191" y2="15.8375" gradientUnits="userSpaceOnUse">
<stop stop-color="#E90D65"/>
<stop offset="1" stop-color="#AC0087"/>
</linearGradient>
</defs>
</svg>
