<svg width="24" height="18" viewBox="0 0 24 18" fill="none" xmlns="http://www.w3.org/2000/svg">
<path d="M21.6302 8.20224C22.1233 8.84723 22.1233 9.71795 21.6302 10.3619C20.077 12.3894 16.3507 16.5641 12.0002 16.5641C7.64964 16.5641 3.9233 12.3894 2.37014 10.3619C2.13023 10.0531 2 9.67314 2 9.28207C2 8.891 2.13023 8.51107 2.37014 8.20224C3.9233 6.17471 7.64964 2 12.0002 2C16.3507 2 20.077 6.17471 21.6302 8.20224V8.20224Z" stroke="#667085" stroke-width="2.08059" stroke-linecap="round" stroke-linejoin="round"/>
<path d="M12.0003 12.403C13.7239 12.403 15.1212 11.0058 15.1212 9.28214C15.1212 7.55852 13.7239 6.16125 12.0003 6.16125C10.2767 6.16125 8.87939 7.55852 8.87939 9.28214C8.87939 11.0058 10.2767 12.403 12.0003 12.403Z" stroke="#667085" stroke-width="2.08059" stroke-linecap="round" stroke-linejoin="round"/>
</svg>
