<svg width="16" height="16" viewBox="0 0 16 16" fill="none" xmlns="http://www.w3.org/2000/svg">
<g clip-path="url(#clip0_26_506)">
<path fill-rule="evenodd" clip-rule="evenodd" d="M11.4601 12.3188L15.7639 16.6226C15.9151 16.7739 16.0001 16.9792 16 17.1932C15.9999 17.4072 15.9148 17.6124 15.7635 17.7637C15.6121 17.915 15.4068 17.9999 15.1928 17.9998C14.9788 17.9998 14.7736 17.9147 14.6223 17.7633L10.3185 13.4595C9.03194 14.456 7.41407 14.9249 5.79403 14.7709C4.17398 14.6169 2.67346 13.8515 1.59771 12.6304C0.521957 11.4094 -0.0482098 9.82433 0.00319691 8.19779C0.0546036 6.57125 0.723722 5.02539 1.87443 3.87468C3.02514 2.72397 4.57101 2.05485 6.19754 2.00344C7.82408 1.95203 9.40911 2.5222 10.6302 3.59795C11.8513 4.6737 12.6167 6.17423 12.7707 7.79427C12.9247 9.41432 12.4558 11.0322 11.4593 12.3188H11.4601ZM6.4003 13.1995C7.67328 13.1995 8.89412 12.6938 9.79425 11.7937C10.6944 10.8936 11.2001 9.67272 11.2001 8.39974C11.2001 7.12676 10.6944 5.90592 9.79425 5.00579C8.89412 4.10565 7.67328 3.59997 6.4003 3.59997C5.12732 3.59997 3.90648 4.10565 3.00634 5.00579C2.10621 5.90592 1.60052 7.12676 1.60052 8.39974C1.60052 9.67272 2.10621 10.8936 3.00634 11.7937C3.90648 12.6938 5.12732 13.1995 6.4003 13.1995Z" fill="white"/>
</g>
<defs>
<clipPath id="clip0_26_506">
<rect width="16" height="16" fill="white"/>
</clipPath>
</defs>
</svg>
